/* XPM */
static char *f89268329ff44244d0c7578fcda9ba36zvYl597tp5gMwZo8[] = {
/* columns rows colors chars-per-pixel */
"64 64 80 1 ",
"  c None",
". c #0F0F18",
"X c #171218",
"o c #181318",
"O c #192032",
"+ c #1B2337",
"@ c #1F283D",
"# c #2A262F",
"$ c #282D39",
"% c #46352C",
"& c #4A372C",
"* c #573C2A",
"= c #654428",
"- c #764D26",
"; c #212A40",
": c #29364B",
"> c #2A364C",
", c #313E4D",
"< c #313E4E",
"1 c #2D3853",
"2 c #2D3954",
"3 c #2F3D57",
"4 c #3B4F68",
"5 c #3D516A",
"6 c #3E516A",
"7 c #3E516B",
"8 c #3E526B",
"9 c #3F536C",
"0 c #404D5B",
"q c #44505D",
"w c #475461",
"e c #40546D",
"r c #42566F",
"t c #435770",
"y c #445971",
"u c #475A73",
"i c #485E76",
"p c #51677E",
"a c #52687F",
"s c #AE5A1F",
"d c #AD5D1F",
"f c #B45F1F",
"g c #BE5E1F",
"h c #BF5E1F",
"j c #845424",
"k c #985023",
"l c #995023",
"z c #9A5022",
"x c #A45422",
"c c #A95820",
"v c #B15C20",
"b c #C9671D",
"n c #DE7E19",
"m c #ED8617",
"M c #526980",
"N c #526A81",
"B c #536C83",
"V c #556D84",
"C c #587187",
"Z c #597288",
"A c #597389",
"S c #5A748A",
"D c #5B758B",
"F c #60778D",
"G c #647F94",
"H c #6C8599",
"J c #728BA0",
"K c #738DA2",
"L c #7892A6",
"P c #7F99AC",
"I c #85A0B2",
"U c #88A3B5",
"Y c #93ABBD",
"T c #97AEBF",
"R c #A0B7C5",
"E c #B2C6D3",
"W c #B2C6D4",
"Q c #B7CBD7",
"! c #BCCEDA",
"~ c #BFD1DC",
/* pixels */
"                ~~~~~~~~~~~~~~~~~~~~~~~~~~~~~~~~                ",
"                ~~~~~~~~~~~~~~~~~~~~~~~~~~~~~~~~                ",
"                ~~~~~~~~~~~~~~~~~~~~~~~~~~~~~~~~                ",
"                ~~~~~~~~~~~~~~~~~~~~~~~~~~~~~~~~                ",
"                ~~~~~~~~~~~~~~~~~~~~~~~~~~~~~~~~                ",
"                ~~~~~~~~~~~~~~~~~~~~~~~~~~~~~~~~                ",
"                ~~~~~~~~~~~~~~~~~~~~~~~~~~~~~~~~                ",
"                !!!!!!!!!!!!!!!!!!!!!!!!!!!!!!!!                ",
"                ~~~~~~~~~~~~~~~QW~~~~~~~~~~~~~~~                ",
"                ~~~~~~~~~~~~~~~RU~~~~~~~~~~~~~~~                ",
"                ~~~~~~~~~~~~~~UUUDUUUUE~~~~~~~~~                ",
"                TTTTTTTTTTTTTTUUUDaFUUYTTTTTTTTT                ",
"                UUUUUUUUUUUUUUUUUD9pUUUUUUUUUUUU                ",
"                DDDDDDDDDDDDDDDKUDDB9UGDDDDDDDDD                ",
"                DDDDDDDDDDDDDDDDDDDDD9VDDDDDDIPD                ",
"                DDDDDDDDDDDDDDDDDDDDD9VDDDDDyJHy                ",
"                DDDDDDDDDDDDDDDDDDDDD9VDDDDD1CN1                ",
"                DDDDDDDDDDDDDDDDDDDDD9VDDDDD9239                ",
"                DDDDDDDDDDDDDDDDDDDDDZDDDDDD97tZ                ",
"                DDDDDDDDDDDDDDDDDDDDDDDDDDDDe9yD                ",
"                DDDDDDDDDDDDDDDDDDDDDDDDDDDDDeyD                ",
"                DDDDDDDDDDDDDDDDDDDDDDDDDDDDDeyD                ",
"                DDDDDDDDDDDDDDDDDDDDDDDDDDDDDeyD                ",
"                DDDDDDDDDDDDDDDDDDDDDDDDDDDDDeyD                ",
"                DDDDDDDDDDDDDDDDDDDDDDDDDDDDDDDD                ",
"                ZDDDDDDDDDDDDDDDDDDDDDDDDDDDDDDD                ",
"                ZDNNNNNNVDDDDDNNNNNNNNNNNNNNNNNN                ",
"                ZC999999iDDDDD999999999999999999                ",
"                99999911119971111999999999999999                ",
"                999999+44499944>+999999999999999                ",
"                777777O77777777:O777777777777777                ",
"                1111@OO11111111;OO11111111111111                ",
"                DDDDDD.ULDDDDDUq.DDDDDDDDDDDDDDD                ",
"                <<<<<<.w0<<<<<w$.<<<<<<<<<<<<<<<                ",
"                ................................                ",
"                ...gggg.....oggggg.....Xgggggo..                ",
"                O#ggggOOOOOxgggggOOOOOkgggggOOOO                ",
"                %*bbckOOOO&fbbbskOOOO&dbbbvkOOOO                ",
"                nmmm=OOOOOmmmmm-OOOOOmmmmmjOOOOO                ",
"                ................................                ",
"                DDDDDDDDDDDDDDDKUDDB9UGDDDDDDDDD                ",
"                DDDDDDDDDDDDDDDDDDDDD9VDDDDDDDDD                ",
"                DDDDDDDIPDDDDDDDDDDDD9VDDDDDDDDD                ",
"                DDDDDDyJHyDDDDDDDDDDD9VDDDDDDDDD                ",
"                DDDDDD1CN1DDDDDDDDDDD9VDDDDDDDDD                ",
"                DDDDDD9239DDDDDDDDDDDZDDDDDDDDDD                ",
"                DDDDDD97tZDDDDDDDDDDDDDDDDDDDDDD                ",
"                DDDDDDe9yDDDDDDDDDDDDDDDDDDDDDDD                ",
"                DDDDDDDeyDDDDDDDDDDDDDDDDDDDDDDD                ",
"                DDDDDDDeyDDDDDDDDDDDDDDDDDDDDDDD                ",
"                DDDDDDDeyDDDDDDDDDDDDDDDDDDDDDDD                ",
"                DDDDDDDeyDDDDDDDDDDDDDDDDDDDDDDD                ",
"                DDDDDDDDDDDDDDDDDDDDDDDDDDDDDDDD                ",
"                DDDDDDDDDDDDDDDDDDDDDDDDDDDDDDDD                ",
"                DDDDDDDDDDDDDDDDDDDDDDDDDDDDDDDD                ",
"                DDDDDDDDDDDDDDDDDDDDDDDDDDDDDDDD                ",
"                NNNNNNNNNNNNNNNNNNNNNNNNNNNNNNNN                ",
"                99999999999999999999999999999999                ",
"                99999999999999999111199711119999                ",
"                99999999999999999+44499944>+9999                ",
"                77777777777777777O77777777:O7777                ",
"                11@OO11@O11@O11@OO11111111;OO111                ",
"                DDDDDDDDDDDDDDDDD.ULDDDDDUq.DDDD                ",
"                <<<<<<<<<<<<<<<<<.w0<<<<<w$.<<<<                "
};
