/* XPM */
static char *_82bdbe221104495d7ad4fe42118011b1XgX9RXfucCFirYH[] = {
/* columns rows colors chars-per-pixel */
"64 64 206 2 ",
"   c None",
".  c #0F0F18",
"X  c #181318",
"o  c #171218",
"O  c #192032",
"+  c #1F283D",
"@  c #282D39",
"#  c #2A262F",
"$  c #49362C",
"%  c #573C2A",
"&  c #6E4927",
"*  c #212A40",
"=  c #2A364C",
"-  c #313E4E",
";  c #2D3853",
":  c #323E58",
">  c #3B465E",
",  c #3D4A64",
"<  c #3C4D69",
"1  c #394564",
"2  c #3F536C",
"3  c #2C586C",
"4  c #386079",
"5  c #424958",
"6  c #44505D",
"7  c #444D67",
"8  c #465362",
"9  c #41536D",
"0  c #4B5268",
"q  c #5B5B6B",
"w  c #565768",
"e  c #424F70",
"r  c #455373",
"t  c #4A5576",
"y  c #445972",
"u  c #4D5975",
"i  c #4A5779",
"p  c #4D5A7C",
"a  c #415C78",
"s  c #535D7D",
"d  c #595D7A",
"f  c #575A75",
"g  c #625E6D",
"h  c #4A647E",
"j  c #5E6073",
"k  c #5C617E",
"l  c #63606D",
"z  c #696573",
"x  c #666779",
"c  c #716772",
"v  c #716B75",
"b  c #7A737C",
"n  c #AE5C1F",
"m  c #BF5E1F",
"M  c #B45F1F",
"N  c #995023",
"B  c #845424",
"V  c #A75621",
"C  c #B15C20",
"Z  c #C9671D",
"A  c #DE7E19",
"S  c #ED8617",
"D  c #3C7A8C",
"F  c #4E5C83",
"G  c #535E81",
"H  c #525E8A",
"J  c #4C6582",
"K  c #4D6A86",
"L  c #466B87",
"P  c #546284",
"I  c #5C6584",
"U  c #526A81",
"Y  c #5C6884",
"T  c #55648B",
"R  c #5C6788",
"E  c #5C6B8B",
"W  c #45748A",
"Q  c #5B758B",
"!  c #587187",
"~  c #596894",
"^  c #5E719D",
"/  c #597A96",
"(  c #4F7D95",
")  c #616581",
"_  c #646B84",
"`  c #6A6D84",
"'  c #616C8C",
"]  c #60678A",
"[  c #726E82",
"{  c #727487",
"}  c #7C7A8C",
"|  c #74798C",
" . c #616E92",
".. c #647193",
"X. c #6C7593",
"o. c #66749A",
"O. c #69759C",
"+. c #6C799C",
"@. c #647C97",
"#. c #7D7D92",
"$. c #6B7BA3",
"%. c #677BA8",
"&. c #6579A5",
"*. c #857E8D",
"=. c #807C81",
"-. c #847D91",
";. c #58859E",
":. c #498799",
">. c #6E839C",
",. c #6A8393",
"<. c #73819C",
"1. c #7E8297",
"2. c #7D909F",
"3. c #6D85AC",
"4. c #6C8BAD",
"5. c #6283AB",
"6. c #7883A4",
"7. c #738CA1",
"8. c #7985AA",
"9. c #7689A9",
"0. c #7C8AA6",
"q. c #7995A8",
"w. c #778FB1",
"e. c #7C92B1",
"r. c #7299B6",
"t. c #7A9DB8",
"y. c #6299AE",
"u. c #82818E",
"i. c #818296",
"p. c #898493",
"a. c #8A8C9D",
"s. c #848699",
"d. c #928E9D",
"f. c #9A929F",
"g. c #83939C",
"h. c #8D8EA1",
"j. c #838CAA",
"k. c #908DA0",
"l. c #8E90A4",
"z. c #859BAD",
"x. c #8796AA",
"c. c #9594A4",
"v. c #9495A9",
"b. c #939BAC",
"n. c #9C9BAB",
"m. c #9899A3",
"M. c #849AB4",
"N. c #8D9BB4",
"B. c #8799B7",
"V. c #939CB2",
"C. c #9197B1",
"Z. c #A39BA6",
"A. c #89A4AE",
"S. c #95A6AE",
"D. c #9AA5AF",
"F. c #88A3B5",
"G. c #8DA1B9",
"H. c #83A1B7",
"J. c #94A3B6",
"K. c #9CA5B4",
"L. c #9BAAB5",
"P. c #94A4BB",
"I. c #9BA6BC",
"U. c #9DABBA",
"Y. c #97AABD",
"T. c #91B2BD",
"R. c #A4A2AC",
"E. c #ACA2AF",
"W. c #A1A2B1",
"Q. c #AAA6B1",
"!. c #A4AAB6",
"~. c #ABAAB4",
"^. c #A5A7B9",
"/. c #A5AAB9",
"(. c #AAADBD",
"). c #B4ACB5",
"_. c #B9AEB6",
"`. c #B4AEB9",
"'. c #ADB2BE",
"]. c #A4B0BC",
"[. c #BBB3B6",
"{. c #B4B2BD",
"}. c #BBB3BB",
"|. c #BEB8BF",
" X c #B1B0B7",
".X c #B3A6AE",
"XX c #C0B6BB",
"oX c #9AACC0",
"OX c #ACAFC0",
"+X c #A0AFC1",
"@X c #AEB0C2",
"#X c #AEB4C2",
"$X c #ACB9C5",
"%X c #A5B8C5",
"&X c #B1B2C1",
"*X c #B3B5C2",
"=X c #B5B6C2",
"-X c #B3B4C3",
";X c #BAB5C1",
":X c #BCBAC5",
">X c #BDBDCA",
",X c #B4BAC4",
"<X c #C0BCC7",
"1X c #BDC2D0",
"2X c #BFD1DC",
"3X c #C0C1CE",
/* pixels */
"                                2X2X2X2X2X2X2X2X2X2X2X2X2X2X2X2X2X2X2X2X2X2X2X2X2X2X2X2X2X2X2X2X                                ",
"                                2X2X2X2X2X2X2X2X2X2X2X2X2X2X2X2X2X2X2X2X2X2X2X2X2X2X2X2X2X2X2X3X                                ",
"                                (.(.(.(./././././.^.^.^.^.^././././.!././.!././.(.(.W.q v l q OX                                ",
"                                (.(.(.(.(.(./././././././././././.!.!./.(.(.(.(.(.(.j l.(.(.v.|                                 ",
"                                @X(.OX(.(.(.(.(.(././.U.K.K.K.K./.(./.(.(.(.(.(.(.(.0 (.OXOX(.5                                 ",
"                                @X@XOXOX(.(.(./.U.K.P.J.N.N.N.B.w.M./.(.(.(.(.(.(.(.5 (.OXOX=Xl                                 ",
"                                &X@X@X@XOXOXU.Y.G.G.M.N.9.%.%.%.%.&.&.V.(.(.OXOX'.'.} q #X/.f n.                                ",
"                                -X-X@X&XOXP.t.r.j.e.B.e.4.3.3.^ ^ ^ T T j.(.'.'.'.'.'.u.q x n.*X                                ",
"                                *X-X#X#XY.t.y.t.w.4.4.5.5.^ ^ T ~ T P r F j.(.'.'.'.'.*X{ h.-X*X                                ",
"                                *X*X-XoXM.r.M.N.r.w.@.O.T F ~ H F i t > > 1 K.'.{.&Xn.j } } x =X                                ",
"                                =X=X#XG.I.I.I.P.N.8.' Y i r < r < < t 9 > < ' (.&X&X0 =X*X*Xd.|                                 ",
"                                ,X=X+XH.P.J.B.e.6.+.o.' 9 , 1 , e 7 0 i G , 1 W.{.=X1.{.*X=X=X1.                                ",
"                                ,X,XP.M.J.V.x.>._ Y P P t , , , 7 7 8 u p i r | {.{._ =X{.=Xn.s.                                ",
"                                :X,XG.C.b.7.,.@...Y P p r r e r p s s s t r p X.(.{.d.` 1.s._ ,X                                ",
"                                >X#Xq.V.b.x.<.+. .R P p r r t G i s p I P p p ' ~.{.{.R.a.a.;X:X                                ",
"                                >X-Xz.x.N.N.0.$.o. . .T P G P P p p G P P G s Y Q.{.{.=X{.h.a.:X                                ",
"                                >X=XJ.z.9.N.8.$.o. .E P s p P s t s s h K J K Q A.{.| h.d W.} v.                                ",
"                                >X,Xz.2.>.<.8.$.+. .E P G s s s s P J k I I R X.L.;Xl.;X` =Xc.c.                                ",
"                                3X>XJ.b.0.>.O.+.o.E E R P G s s R U I I R R ] i.`.;Xl.v.v.v.v.~.                                ",
"                                3X>X/.N.V.j.$.o./ ..E R I P P E E I R R R ] _ m.}.;X}.}.}.}.Q.Q.                                ",
"                                3X>X$Xq.7.9.3./ ;.Q ' R I s h P I ) ) I _ ` #.Q.;X;X}.}.Z.i.s.R.                                ",
"                                3X>X,XI.0.6.+.+.@...E I s y p d d k k I ) ` c.{.;X;Xd.` h.` |.|.                                ",
"                                1X>X>X;XM.<.<.X... .E P K t h h f d d d k p.).}.}.}.c.#.n.x |.|.                                ",
"                                %X%XU.L.A.q.;.;.( ( ( :.W W D L y 0 u f -.E.[.}.[.[.[.|.k.k d.|.                                ",
"                                <X>X:X;X}. XC.o.R R K t < : 3 4 1 < d *.E.[.[.[.[.[.[.[.[.XXp.=X                                ",
"                                >X>X:X;X;X}. XR.<.a i r 1 : ; - 0 [ f.).}.[.[.[.[.Z.p.p.p.p.p.R.                                ",
"                                ;X;X;X}.U.].].'.'.Q.d.{ x x z d.Z.D.].'.[.[.[.[.[.Z.*.u.*.7 a.|.                                ",
"                                }.}.}.$X{.}.K.R. X`.`.).).).~.).g.`._.`.'. X[.[.[.[.[.[.z n.[.[.                                ",
"                                K.L.#X{.{.{.A.$X].]./.!.!.K.S.S._.`._._._.'.{.[._.[.[.g m.[.[.[.                                ",
"                                &X-X{.{.{.`.`.`.`.`.`.).).).).).~./._._._._.{. X_..Xw w b b b [.                                ",
"                                `. X X`.`.`.`.`.'.S.D.K.K.!.!.!.T.y.m.).)._._. X).=.v z c c v [.                                ",
"                                ; ; ; ; + O O ; ; ; ; ; ; ; ; * O O ; ; ; ; ; ; ; ; ; ; ; ; ; ;                                 ",
"                                Q Q Q Q Q Q . F.q.Q Q Q Q Q F.6 . Q Q Q Q Q Q Q Q Q Q Q Q Q Q Q                                 ",
"                                - - - - - - . 8 5 - - - - - 8 @ . - - - - - - - - - - - - - - -                                 ",
"                                . . . . . . . . . . . . . . . . . . . . . . . . . . . . . . . .                                 ",
"                                . . . m m m m . . . . . X m m m m m . . . . . o m m m m m X . .                                 ",
"                                O # m m m m O O O O O V m m m m m O O O O O N m m m m m O O O O                                 ",
"                                $ % Z Z V N O O O O $ M Z Z Z n N O O O O $ n Z Z Z C N O O O O                                 ",
"                                A S S S & O O O O O S S S S S & O O O O O S S S S S B O O O O O                                 ",
"                                . . . . . . . . . . . . . . . . . . . . . . . . . . . . . . . .                                 ",
"                                Q Q Q Q Q Q Q Q Q Q Q Q Q Q Q 7.F.Q Q U 2 F.@.Q Q Q Q Q Q Q Q Q                                 ",
"                                Q Q Q Q Q Q Q Q Q Q Q Q Q Q Q Q Q Q Q Q Q 2 U Q Q Q Q Q Q Q Q Q                                 ",
"                                Q Q Q Q Q Q Q F.q.Q Q Q Q Q Q Q Q Q Q Q Q 2 U Q Q Q Q Q Q Q Q Q                                 ",
"                                Q Q Q Q Q Q y 7.>.y Q Q Q Q Q Q Q Q Q Q Q 2 U Q Q Q Q Q Q Q Q Q                                 ",
"                                Q Q Q Q Q Q ; ! U ; Q Q Q Q Q Q Q Q Q Q Q 2 U Q Q Q Q Q Q Q Q Q                                 ",
"                                Q Q Q Q Q Q 2 ; ; 2 Q Q Q Q Q Q Q Q Q Q Q Q Q Q Q Q Q Q Q Q Q Q                                 ",
"                                Q Q Q Q Q Q 2 2 y Q Q Q Q Q Q Q Q Q Q Q Q Q Q Q Q Q Q Q Q Q Q Q                                 ",
"                                Q Q Q Q Q Q 9 2 y Q Q Q Q Q Q Q Q Q Q Q Q Q Q Q Q Q Q Q Q Q Q Q                                 ",
"                                Q Q Q Q Q Q Q 9 y Q Q Q Q Q Q Q Q Q Q Q Q Q Q Q Q Q Q Q Q Q Q Q                                 ",
"                                Q Q Q Q Q Q Q 9 y Q Q Q Q Q Q Q Q Q Q Q Q Q Q Q Q Q Q Q Q Q Q Q                                 ",
"                                Q Q Q Q Q Q Q 9 y Q Q Q Q Q Q Q Q Q Q Q Q Q Q Q Q Q Q Q Q Q Q Q                                 ",
"                                Q Q Q Q Q Q Q 9 y Q Q Q Q Q Q Q Q Q Q Q Q Q Q Q Q Q Q Q Q Q Q Q                                 ",
"                                Q Q Q Q Q Q Q Q Q Q Q Q Q Q Q Q Q Q Q Q Q Q Q Q Q Q Q Q Q Q Q Q                                 ",
"                                Q Q Q Q Q Q Q Q Q Q Q Q Q Q Q Q Q Q Q Q Q Q Q Q Q Q Q Q Q Q Q Q                                 ",
"                                Q Q Q Q Q Q Q Q Q Q Q Q Q Q Q Q Q Q Q Q Q Q Q Q Q Q Q Q Q Q Q Q                                 ",
"                                Q Q Q Q Q Q Q Q Q Q Q Q Q Q Q Q Q Q Q Q Q Q Q Q Q Q Q Q Q Q Q Q                                 ",
"                                U U U U U U U U U U U U U U U U U U U U U U U U U U U U U U U U                                 ",
"                                2 2 2 2 2 2 2 2 2 2 2 2 2 2 2 2 2 2 2 2 2 2 2 2 2 2 2 2 2 2 2 2                                 ",
"                                2 2 2 2 2 2 2 2 2 2 2 2 2 2 2 2 2 ; ; ; ; 2 2 2 ; ; ; ; 2 2 2 2                                 ",
"                                2 2 2 2 2 2 2 2 2 2 2 2 2 2 2 2 2 O < < < 2 2 2 < < = O 2 2 2 2                                 ",
"                                2 2 2 2 2 2 2 2 2 2 2 2 2 2 2 2 2 O 2 2 2 2 2 2 2 2 = O 2 2 2 2                                 ",
"                                ; ; + O O ; ; + O ; ; + O ; ; + O O ; ; ; ; ; ; ; ; * O O ; ; ;                                 ",
"                                Q Q Q Q Q Q Q Q Q Q Q Q Q Q Q Q Q . F.q.Q Q Q Q Q F.6 . Q Q Q Q                                 ",
"                                - - - - - - - - - - - - - - - - - . 8 5 - - - - - 8 @ . - - - -                                 "
};
