/* XPM */
static char *_af9303b582e4b24f9df028ce3e9459bxsaGNZoSM6zewJrK[] = {
/* columns rows colors chars-per-pixel */
"64 64 212 2 ",
"   c None",
".  c #1E212A",
"X  c #542F3C",
"o  c #562933",
"O  c #57333E",
"+  c #492831",
"@  c #513842",
"#  c #663541",
"$  c #4A444C",
"%  c #4B484F",
"&  c #5D4745",
"*  c #474550",
"=  c #4C4551",
"-  c #4D4954",
";  c #4D4E58",
":  c #514A55",
">  c #534E5A",
",  c #504553",
"<  c #54525D",
"1  c #59525C",
"2  c #694148",
"3  c #69524E",
"4  c #764D57",
"5  c #685257",
"6  c #77585A",
"7  c #654F54",
"8  c #7A625D",
"9  c #5D5461",
"0  c #5E5A65",
"q  c #625A65",
"w  c #635D69",
"e  c #695F6B",
"r  c #715C61",
"t  c #5C6069",
"y  c #65616C",
"u  c #6A636D",
"i  c #69646A",
"p  c #6B6672",
"a  c #6D6A75",
"s  c #6F6D78",
"d  c #666972",
"f  c #716A75",
"g  c #716E79",
"h  c #716674",
"j  c #6F727B",
"k  c #73727C",
"l  c #78747D",
"z  c #78747A",
"x  c #825E65",
"c  c #915D6A",
"v  c #8A626D",
"b  c #816E75",
"n  c #916A71",
"m  c #9F6E7A",
"M  c #867478",
"N  c #97767B",
"B  c #85726D",
"V  c #737581",
"C  c #797781",
"Z  c #757984",
"A  c #7A7A85",
"S  c #797D89",
"D  c #777F89",
"F  c #8F7C82",
"G  c #957981",
"H  c #7D828D",
"J  c #7F8291",
"K  c #828692",
"L  c #868A93",
"P  c #8A8D96",
"I  c #858C99",
"U  c #8A8E99",
"Y  c #8E929B",
"T  c #8A9296",
"R  c #92959E",
"E  c #94989E",
"W  c #9C979D",
"Q  c #8E848B",
"!  c #AB898A",
"~  c #AB9598",
"^  c #BE9D96",
"/  c #B5A09D",
"(  c #8E99A6",
")  c #8E9CAA",
"_  c #8E94A1",
"`  c #9397A1",
"'  c #9599A2",
"]  c #9A9CA5",
"[  c #939DAC",
"{  c #9C9FA9",
"}  c #9997A2",
"|  c #929EB0",
" . c #A49EA2",
".. c #A79DA8",
"X. c #9EA1A6",
"o. c #94A1AD",
"O. c #9DA1AB",
"+. c #96A3B2",
"@. c #9BA5B3",
"#. c #9BA9B6",
"$. c #9DABBA",
"%. c #9AA6B9",
"&. c #9EB0BD",
"*. c #A3A0A5",
"=. c #A2A4AC",
"-. c #A8A4AC",
";. c #A6A8AD",
":. c #AAAAAD",
">. c #B4AAAE",
",. c #BEADAC",
"<. c #B8A2A8",
"1. c #A3A6B2",
"2. c #A5ABB2",
"3. c #ABACB4",
"4. c #A1ADBB",
"5. c #AEAEB8",
"6. c #B2AEB4",
"7. c #BBADB2",
"8. c #B1AEB9",
"9. c #A2B1BE",
"0. c #ACB2BB",
"q. c #AEB1B7",
"w. c #B1B1B6",
"e. c #BCB2B5",
"r. c #B4B3BB",
"t. c #BAB5BC",
"y. c #BDB9BE",
"u. c #B7B8BD",
"i. c #C4A6AB",
"p. c #C5ADB4",
"a. c #CFADB4",
"s. c #D1ADB4",
"d. c #C2B7BB",
"f. c #C4BBBD",
"g. c #CAB9BD",
"h. c #CBB8B8",
"j. c #DDB8B9",
"k. c #D8BBBA",
"l. c #D1AEAC",
"z. c #C3C1BF",
"x. c #D6C8BF",
"c. c #9FB1C0",
"v. c #A4B5C3",
"b. c #AAB7C4",
"n. c #A6B8C6",
"m. c #A9B9C6",
"M. c #ACBCCA",
"N. c #A7B8C8",
"B. c #B9B6C1",
"V. c #B5B9C2",
"C. c #BCBBC2",
"Z. c #B1BECC",
"A. c #B6B6C0",
"S. c #C2BDC3",
"D. c #C8BEC1",
"F. c #C5B6C0",
"G. c #D7BDC3",
"H. c #EBBEC9",
"J. c #AFC1CE",
"K. c #B1C1CE",
"L. c #B4C5D2",
"P. c #B6C8D5",
"I. c #B9CAD6",
"U. c #BDCDDB",
"Y. c #BFD1DD",
"T. c #BFD0E0",
"R. c #C4C1C3",
"E. c #CBC3C5",
"W. c #C6C4CA",
"Q. c #CAC5C9",
"!. c #CCCACC",
"~. c #C7C8C6",
"^. c #D2C3C4",
"/. c #DCCBC5",
"(. c #D2C7C8",
"). c #DCC4C9",
"_. c #D2CBCC",
"`. c #D9CBC9",
"'. c #D4D1CF",
"]. c #DDD2CD",
"[. c #CCCAD1",
"{. c #D4CFD1",
"}. c #C2D2DF",
"|. c #DCD4D2",
" X c #DEDBD5",
".X c #DADBD8",
"XX c #E2C5C3",
"oX c #E7CBC9",
"OX c #E8D4CD",
"+X c #E2D2D1",
"@X c #E3D9D5",
"#X c #EADBD4",
"$X c #E3DCD9",
"%X c #EFDBD8",
"&X c #F5D7D6",
"*X c #ECE4DB",
"=X c #E5E1DB",
"-X c #F4E3DD",
";X c #F6E8DD",
":X c #C4D5E2",
">X c #C7D9E5",
",X c #C9DAE6",
"<X c #CADCE9",
"1X c #C6D9E8",
"2X c #CFE0EB",
"3X c #D1E2ED",
"4X c #D3E4F0",
"5X c #EBE8E1",
"6X c #F5EAE2",
"7X c #FDECE5",
"8X c #F9EAE5",
"9X c #FDF1E9",
/* pixels */
"                                ;.w.;.] ] ' ] ] ] ] ] R R R R d . t R Y Y Y Y Y R U Y R R R ` }                                 ",
"                                2.r.2.X.X.O.] O.{ O.O.] ] ' ' < K ; R R R Y R R ' R ' R ' E } ]                                 ",
"                                3.3.;.=.X.O.] { ] =.=.=.] ' E W W } ' ` ` R R R R R ` R ] ' ' ]                                 ",
"                                w.3.:.X.X.=.] { { O.=.2.O.] R ] E ` R ` R R ' Y R R ` ] ' ] ' ]                                 ",
"                                q.3.;.] { O.] O.] ] 3.;.O.O.` ] ' ` ` ' Y R ' R Y R R R ] ' ` ]                                 ",
"                                3.3.=.O.O.X.' ] ] { 3.;.O.{ ` ] ' ' ' ' ' R ' R R ` Y R ' R ` '                                 ",
"                                3.;.=.O.=.] ` ] ] O.3.=.O.{ ' ' R R R ' P Y Y Y Y R R R ' R R R                                 ",
"                                3.;.=.O.O.' ' ] ] =.=.] ' ] R R Y R Y ` Y U P U P Y ` R ` R R Y                                 ",
"                                1.=.X.] O.' ' ' ' 1.{ ' ` ' Y R P Y Y ` P P P P P U Y Y R P Y P                                 ",
"                                O.O.O.O.] ` ' ' R O.] ` Y Y Y Y P U U Y P L P P P P P Y Y P Y P                                 ",
"                                =.] ] ] ' ' Y ` ' ] R Y Y Y U U P P P U P K L P L L L P Y P P L                                 ",
"                                O.R ' ' R Y Y Y ` ` Y L Y U L P L P L P L L L L L L L P P L L L                                 ",
"                                ] Y R ` R Y P Y Y Y P L P L K L L P L L L L L L L L K P P L L L                                 ",
"                                ' R Y Y Y P U Y L Y Y P L L L L L L L P P L L P P L L P P P P L                                 ",
"                                ] ' } R ' E R ` Y Y ' Y T U U U Y Y Y Y Y Y Y R Y Y Y E R E Y P                                 ",
"                                y.f.X e.F ~ :.>.g.z b G.5 M  .W .. .M >.<. .*.7. .>.p.e.e.7.>. .                                ",
"                                $X$X#Xn l.,.+X Xo n ).4 i.^._.N oX&XoXk./.]./.XXOX! /.x.XX2 3 ].                                ",
"                                @X$X-Xx j.<.=X*X&Xm %X6 k.=X*X! 6X;XoX#XOX;X6X-X;X^ l.-X7X&XB 7X                                ",
"                                _.+X& +Xi.p. X@X/.! B j.h.=X*X7X& 7X8 OX/ 5X6XXX7X~ 6X-X7X3 8 9X                                ",
"                                f.R.R.~.z.R.W.Q.R.R.D.R.R.E.!.E.{.'.`. X].|.@X|.$X$X|. X$X@X].|.                                ",
"                                Q.D.e.g.(.|.^.E._.E.^.f.E.E.E.R.S.D.D.E.R.E._.Q.!.E.(._._._._.|.                                ",
"                                [.F O E._.(.X E. X).g.N ).N ^.f.E.G.G.Q.R.`.i.R.R.oX^.! H.N _..X                                ",
"                                R.b 2 e.!.!.+ g.,.j.Q v 4 v F y.D.p.7 d.y.G O C.d.# ).m 2 c 7 !.                                ",
"                                W.M @ C.R.R.@ e.7.a.i.r h.x 7.r.7.h.s.g.r.X v r.e.p.).v s.6 7.V.                                ",
"                                8.r.;.w.w.2.3.2.2.:.6.;.3.7.*.-.2.w.-.3.2.3.-.3.w.:.:.>.:.<.F.;.                                ",
"                                1.=.*.=.=.{ { ] ] X.X.O.] ] ] ] ] ] ] =.O.] ..X.;.=.O.O.=.O.O.O.                                ",
"                                =.X.X.=.=.O.{ ] ] ] ] { ] ] ] ] ] ] ] { ] ] ] O.O.O.O.O.O.=.=.*.                                ",
"                                3.3.3.3.3.;.=.=.{ ] ] ] ] ] ] ] ] ] ] =.{ =.{ =.=.=.=.-.-.;.;.=.                                ",
"                                W.S.y.C.C.r.w.w.w.3.3.3.3.2.3.6.6.6.3.r.7.t.t.t.d.S.Q.D.E.E.E.R.                                ",
"                                _.Q.Q.R.E.C.C.t.t.t.t.t.t.C.t.S.R.C.S.W.Q.!.'.'.|.|.@X$X$X$X=X5X                                ",
"                                _._.{.E.R.Q.S.S.D.y.t.y.S.y.y.S.S.S.S.S.R.Q.W.Q.W.W.Q.[.W.!.!.{.                                ",
"                                r.u.u.t.t.u.w.r.r.w.6.r.r.r.r.t.t.t.C.C.S.S.C.C.C.C.C.S.S.S.S.R.                                ",
"                                3.5.3.5.3.1.1.2.3.1.2.;.1.;.;.2.3.2.2.3.3.3.3.3.5.w.5.w.r.r.r.u.                                ",
"                                R.t.t.t.u.r.5.5.5.3.2.3.3.3.5.8.8.5.3.6.3.w.w.r.w.r.r.r.r.u.w.r.                                ",
"                                R.z.y.C.C.B.B.r.B.8.r.r.r.A.u.B.C.C.B.C.C.C.C.C.C.R.W.W.W.W.W.!.                                ",
"                                3.w.6.r.w.r.5.r.r.5.0.q.3.q.q.r.r.u.w.r.u.u.C.u.V.C.C.V.C.V.V.C.                                ",
"                                1.1.=.1.O.O.{ O.{ O.[ { { { O.O.O.1.=.1.=.1.2.2.2.0.0.0.0.0.0.V.                                ",
"                                @.@.@.O.o.o.[ o.[ [ [ [ [ [ o.o.+.@.@.@.@.2.#.4.4.9.b.v.b.m.M.K.                                ",
"                                o.o.o.o.o.[ [ [ [ ( [ ( [ [ [ +.+.+.+.+.%.#.$.$.$.9.9.9.v.v.n.m.                                ",
"                                +.+.o.+.+.[ [ [ [ ( ( [ ) ) o.o.[ %.+.+.+.$.$.9.v.n.m.m.m.M.K.L.                                ",
"                                @.%.o.+.o.[ [ [ [ [ [ ) [ [ +.@.+.#.+.$.$.9.v.m.K.L.P.I.U.}.:X:X                                ",
"                                @.@.+.+.+.+.[ | [ o.| ) +.[ +.+.%.#.+.$.4.9.v.m.M.K.P.I.U.}.:X,X                                ",
"                                v.4.4.4.4.$.$.$.$.%.%.+.$.+.$.#.$.9.9.9.n.n.m.M.J.I.U.U.:X>X:X,X                                ",
"                                Z.Z.M.m.m.M.m.b.n.n.n.N.N.N.N.M.K.K.L.L.I.I.U.U.U.}.:X:X>X>X>X,X                                ",
"                                M.m.M.M.m.M.N.N.N.n.n.m.M.M.M.L.P.L.L.I.T.:X>X>X>X,X,X<X<X>X,X,X                                ",
"                                N.m.m.v.N.N.n.v.n.n.n.N.M.M.J.L.P.I.I.U.:X:X1X<X<X<X<X<X<X,X,X<X                                ",
"                                M.v.n.v.N.n.v.v.v.v.N.N.J.M.L.L.U.Y.Y.:X,X>X<X<X<X2X2X2X2X2X2X2X                                ",
"                                m.v.v.N.v.v.n.c.$.v.v.v.v.J.M.J.L.Y.Y.Y.:X,X,X,X<X<X3X3X4X3X3X3X                                ",
"                                M.m.9.v.9.v.v.v.$.v.$.$.&.v.v.M.J.I.U.Y.:X<X<X>X<X<X2X4X3X<X2X3X                                ",
"                                v.9.#.9.4.4.9.$.$.%.%.%.#.&.&.v.m.M.K.K.P.Y.Y.U.:X:X:X<X,X>X,X>X                                ",
"                                [ [ [ [ [ [ [ [ ( [ ( ( [ [ +.+.%.$.$.4.9.v.n.b.M.M.Z.K.M.m.b.b.                                ",
"                                U U I U U U U U I I I I I U Y _ Y _ ` ] ] [ o.o.@.1.4.4.@.1.@.@.                                ",
"                                H H H H D H S H D D D H H J J K K L L L L U Y Y Y ` ' ` ` ] ` ]                                 ",
"                                D S Z Z Z Z A Z V V Z Z Z Z Z Z Z D D H H H K K H L L L L L L K                                 ",
"                                S S Z l k k C C k V V V V k k k k Z Z Z Z Z Z Z Z D H H H H K D                                 ",
"                                Z Z C l k k k g k k k V V j k j k k k k k k k V V C S S S S S Z                                 ",
"                                A A l z l l k g k g g g k g k s g g k k g k k s k l l C A A A l                                 ",
"                                C C k l k k g f f s s s g g a s f f g g g g g s g k k l C C C k                                 ",
"                                g g g f f f a a u p y p p p p p p p h f h f a a a g k k k k C g                                 ",
"                                a a a f u u p i y y y y y y y y u y e u e u u e u p a p a a g p                                 ",
"                                p p p p i i y w q 0 0 0 0 0 0 q q q w q q 0 q 0 0 w w w y w y w                                 ",
"                                0 0 0 9 1 1 1 1 > > > < > > > > 1 1 1 1 1 1 1 1 1 9 9 9 9 0 q 9                                 ",
"                                < < ; - - = = - = = * - - $ $ $ $ % % : = - : : : : > ; < < < >                                 ",
"                                > < - - , = = = = = * = * $ $ $ $ $ $ $ $ $ = = = = % = : > > %                                 "
};
