/* XPM */
static char *fed3de0b4e82433cc87374da1a3113082RTrOmAes4QQt01M[] = {
/* columns rows colors chars-per-pixel */
"64 64 2 1 ",
"  c black",
". c #00EF48",
/* pixels */
"................................................................",
"..................................      ........................",
".............................. .  ..............................",
"............. ...........       ................................",
"............  ....      ...... .................................",
"............ . ..   ...  ...... ................................",
"............ .   .. .   ....... ................................",
"...........   ...  .     ......  ...............................",
"............ ..... . ....  ..... ...............................",
"............ ....... ......  ...................................",
"..................... ..........................................",
"...................... .........................................",
".............................. .................................",
"...........................    .................................",
"........     ..........      ...................................",
".......  ....    ...   ...... ..........          ..............",
"......  .........   .......... ....     ......... ..............",
"...... ........................    ..      ..    ...............",
"...... ....................          ..      ...................",
"...... ..................   ...        ......  .................",
"...... .................       .  .      ...... ................",
"...... ................  ......          ....... ...............",
"....... .            ........................... ...............",
".......  ........... ............................ ..............",
".......  ..   .....  ............................ ..............",
"......  .. ......   .............. ............... .............",
"......  ..            .............     .......... .............",
"....... ........    .  ............. ...     ...... ............",
"....... ...........     ............ ...... .     . ............",
"........ ..............  ............ .....  .....  ............",
"........ ............... ............ ...... ...................",
"........ ............... ............. .....  ..................",
"........  .............  ........ .... ...... ..................",
".......... .........             ..... ...... ..................",
"........... .......  .... ............. ...... .................",
"............   .......... ............. ...... .................",
"............... ......... .............. ...... ................",
".............    ......................   ..... ................",
"............  . ............           ......   ................",
"............ .        .     ..............   ...................",
"........... .........  .......            ......................",
"........... ................  ..................................",
"........... ............    ....................  ..............",
".........  ..........   .....................   . ..............",
".........            ......................  .... .......... ...",
".......................................... ...... .....     ....",
"......................................... ...... ....  .  ......",
"........................................ ....... .      ........",
".............................  ........ ......    .. ...........",
"...........................  . ....... .....  .. ... ...........",
"..........................  .. ...... ....  .... .. ............",
"......................... .... ....       ...... . .............",
"....................     ...... .   ............  ..............",
".............................    . ............. ...............",
"...........................  .. . ..............................",
".........................  ....   ..............................",
".......................  .......................................",
"................................................................",
"................................................................",
"................................................................",
"................................................................",
"................................................................",
"................................................................",
"................................................................"
};
