/* XPM */
static char *_c512f429bfc4b04db2814c8a014f5a5oWArVjhjZE9l9moV[] = {
/* columns rows colors chars-per-pixel */
"64 64 154 2 ",
"   c #0F0F18",
".  c #0F1019",
"X  c #11121D",
"o  c #101B1E",
"O  c #0C1E20",
"+  c #131724",
"@  c #141926",
"#  c #161C2B",
"$  c #181E2E",
"%  c #181F31",
"&  c #102126",
"*  c #073A2F",
"=  c #172332",
"-  c #192032",
";  c #182D36",
":  c #1D2539",
">  c #1F283D",
",  c #0C3B35",
"<  c #173338",
"1  c #20273C",
"2  c #212A3F",
"3  c #0A4037",
"4  c #064E39",
"5  c #0A4B3A",
"6  c #154236",
"7  c #124A3A",
"8  c #0D5C3E",
"9  c #026C3F",
"0  c #242D43",
"q  c #263144",
"w  c #283244",
"e  c #263148",
"r  c #2A344C",
"t  c #2C3A4E",
"y  c #2C3751",
"u  c #2D3853",
"i  c #313D57",
"p  c #303E59",
"a  c #184445",
"s  c #105043",
"d  c #195345",
"f  c #16564A",
"g  c #19534A",
"h  c #334256",
"j  c #33425A",
"k  c #344E5F",
"l  c #3D4B5E",
"z  c #225451",
"x  c #0E6040",
"c  c #156C4B",
"v  c #1D6D4F",
"b  c #1C6350",
"n  c #1B6C50",
"m  c #206E4E",
"M  c #2F764C",
"N  c #397B4A",
"B  c #374660",
"V  c #3C4761",
"C  c #3A4C65",
"Z  c #3B4F68",
"A  c #3A5866",
"S  c #3F536C",
"D  c #414A58",
"F  c #505A5E",
"G  c #785B44",
"H  c #414F61",
"J  c #4A5667",
"K  c #415867",
"L  c #41546D",
"P  c #545F6E",
"I  c #4A5D74",
"U  c #4D647B",
"Y  c #586473",
"T  c #54697F",
"R  c #5B6B7F",
"E  c #656F79",
"W  c #6A777E",
"Q  c #757875",
"!  c #BF5E1F",
"~  c #815C3F",
"^  c #8C5D3B",
"/  c #965B37",
"(  c #956036",
")  c #AE6023",
"_  c #B36323",
"`  c #835943",
"'  c #967B5B",
"]  c #AF7F46",
"[  c #B87F40",
"{  c #A57D50",
"}  c #827A6C",
"|  c #0E884F",
" . c #019649",
".. c #168F57",
"X. c #0EA659",
"o. c #478248",
"O. c #548845",
"+. c #5A8C45",
"@. c #409A7A",
"#. c #BC803C",
"$. c #ED8617",
"%. c #E4851C",
"&. c #EB8518",
"*. c #D88326",
"=. c #C58136",
"-. c #556D84",
";. c #5C6F81",
":. c #577086",
">. c #597187",
",. c #5B758B",
"<. c #5F798E",
"1. c #667989",
"2. c #657B8E",
"3. c #627D92",
"4. c #668196",
"5. c #688197",
"6. c #6D869C",
"7. c #6F899E",
"8. c #778894",
"9. c #7B8B95",
"0. c #738B9F",
"q. c #788998",
"w. c #4AA487",
"e. c #4BA588",
"r. c #758DA2",
"t. c #788EA1",
"y. c #7791A5",
"u. c #7B94A7",
"i. c #7F98AA",
"p. c #63FFB6",
"a. c #818E97",
"s. c #818F98",
"d. c #85939C",
"f. c #8F989C",
"g. c #919A9D",
"h. c #8697A5",
"j. c #819BAE",
"k. c #899BAA",
"l. c #859FB3",
"z. c #87A1B4",
"x. c #88A3B5",
"c. c #97ACBC",
"v. c #A2B8C5",
"b. c #AABEC9",
"n. c #ADC2CF",
"m. c #B3C5D1",
"M. c #B4C8D3",
"N. c #B4C9D5",
"B. c #BFD1DC",
"V. c #CAD5DB",
"C. c #C9D8DF",
"Z. c #CCDBE2",
"A. c #D1E0E6",
"S. c #E0ECF0",
/* pixels */
"  j S S q   - - - - - - - - - - - - - - - - - - - - - - - - - - - - - - - - - - - - - - - - - - - - - - - - - - - - - X   S S S ",
"  j S S q   r j -.u.u.u.v.b.b.b.b.b.b.b.b.b.b.b.b.V.V.V.- l u.V.V.V.V.V.b.b.b.b.b.b.b.b.b.b.b.b.b.b.b.b.b.u.u.u.-.-.r +   S S S ",
"  j S S q   u B ,.z.x.x.N.B.B.B.B.B.B.B.B.B.B.B.B.S.S.S.- H x.S.S.S.S.S.B.B.B.B.B.B.B.B.B.B.B.B.B.B.B.B.B.x.x.x.,.,.u +   S S S ",
"  j S S q   - : u u u u u u u u u u u u u u u u u ,.c.B.- H x.,.-.u u u u u u u u u u u u u u u u u u u u u u u u u - X   S S S ",
"  j S S q   - - > > > > > > > > > > > > > > > > > u h.B.- H x.u t > > > > > > > > > > > > > > > > > > > > > > > > > - X   S S S ",
"  j S S q   - - - - - - - - - - - - - - - - - - - - 9.B.- H x.- - - - - - - - - - - - - - - - - - - - - - - - - - - - X   S S S ",
"  j S S q   - - - - - - - - - - - - - - - - - - - - 9.B.- H x.- - - - - - - - - - - - - - - - - - - - - - - - - - - - X   B.v.x.",
"  I ,.q.D   - - 2 2 2 2 2 2 2 2 2 2 2 2 2 2 2 2 2 h k.B.- H x.h h 2 2 2 2 2 2 2 2 2 2 2 2 2 2 2 2 2 2 2 2 2 2 2 2 2 - X   k.t.5.",
"  2.x.B.E   - : u u u u u u u u u u u u u u u u u ,.c.B.- H x.,.-.u u u u u u u u u u u u u u u u u u u u u u u u u - X   S S S ",
"  j S S q   u B ,.z.x.x.N.B.B.B.B.B.B.B.B.B.B.B.B.S.S.S.- H x.S.S.S.S.S.B.B.B.B.B.B.B.B.B.B.B.B.B.B.B.B.B.x.x.x.,.,.u +   - - - ",
"  u B B 2   u j -.z.x.x.n.N.N.N.N.N.N.N.N.N.N.N.N.A.Z.C.- l j.A.A.A.A.A.N.N.N.N.N.N.N.N.N.N.N.N.N.N.N.N.N.x.x.x.-.-.u +   - - - ",
"  # - - +   u p S z.x.x.x.x.x.x.x.x.x.x.x.x.x.x.x.x.6.,.- i ,.x.x.x.x.x.x.x.x.x.x.x.x.x.x.x.x.x.x.x.x.x.x.x.x.x.S S u +   - - - ",
"  # - - +   - - - : : : u i i i i i i i i i i 2 : : : : - - : : > i i i i i i i i i i i i i i i i i i i i : : : - - - X   y y y ",
"  # - - +   - - - - - - r u u u u u u u u u u : - - - - - - - - - u u u u u u u u u u u u u u u u u u u u - - - - - - X   u u u ",
"  0 u u :   - 0 S S S ,.,.,.,.,.,.,.,.,.,.,.,.,.,.u I ,.- e S ,.,.,.,.,.,.,.,.,.,.,.,.,.,.,.,.,.,.,.,.,.,.,.-.S S S - X   u u u ",
"  0 u u :   - 0 S S S ,.,.,.,.,.,.,.,.,.,.,.,.,.,.u I ,.- e S ,.,.,.,.,.,.,.,.,.,.,.,.,.,.,.,.,.,.,.,.,.,.,.-.S S S - X   u u u ",
"  0 u u :   - 0 S S S ,.,.,.,.,.,.,.,.,.,.,.,.,.,.u I ,.- e S ,.,.,.,.,.,.,.,.,.,.,.,.,.,.,.,.,.,.,.,.,.,.,.-.S S S - X   u u u ",
"  0 u u :   - 0 S S S ,.,.,.,.,.,.,.,.,.,.,.,.,.,.S U ,.- e S ,.,.,.,.,.,.,.,.,.,.,.$.*.,.,.,.,.,.,.,.,.,.,.-.S S S - X   u u u ",
"  0 u u 1 + - 2 j j B L -.,.,.,.,.,.,.,.,.,.,.,.,.S U ,.- e S ,.,.,.,.,.,.,.,.,.Q { $.%.{ ,.,.,.,.,.,.,.,.L L j j j - # + u u u ",
"  0 u u 0 - - : u u u u -.,.,.,.,.,.,.,.,.,.,.,.,.S U ,.- e S ,.,.,.,.,.,.,.,.,.' $.$.$.$.,.,.,.,.,.,.,.,.u u u u u - - - u u u ",
"  0 u u 0 - - r ,.z.z.,.,.,.,.,.,.,.,.,.,.,.,.,.,.,.,.,.- e S ,.,.,.,.,.,.,.,.$.$.$.,.Q $.$.$.,.,.,.,.,.,.,.3.x.,.,.- - - u u u ",
"  0 u u 0 - : t ,.z.z.,.,.,.,.,.,.,.,.,.,.,.,.,.,.,.,.,.- 0 C ,.,.,.,.,.,.Q } $.*.=.,.W =.$.$.} 1.,.,.,.,.,.3.x.,.,.: - - u u u ",
"  0 u u 0 - u B ,.z.z.,.,.,.,.,.,.,.,.,.,.,.,.,.,.,.,.,.- > u ,.,.,.,.,.,.#.$.$.] ,.,.,.,.&.$.$.} ,.,.,.,.,.3.x.,.,.u : - u u u ",
"  0 u u 0 - u u u u u S -.,.,.,.,.,.,.,.,.,.,.,.,.,.y.z.- > u ,.,.,.,.,.,.#.$.$.$.&.&.&.&.$.$.$.} ,.,.,.,.S C u u u u : - u u u ",
"  0 u u 0 - u u u u u L -.,.,.,.,.,.,.,.,.,.,.,.,.,.y.x.- 2 i >.>.,.,.,.,.[ %.%.%.%.%.%.%.%.%.%.} ,.,.,.,.L Z u u u u : - u u u ",
"  0 u u 0 - u u u S S ,.,.,.,.,.,.,.,.,.,.,.,.,.,.,.y.x.- H x.u p ,.,.,.,.,.,.,.,.,.,.,.,.,.,.,.,.,.,.,.,.,.-.S u u u : - u u u ",
"  0 u u 0 - u p Z S S ,.,.,.,.,.,.,.,.,.,.,.,.,.,.,.<.3.t.;.w u.0.j :.,.,.t.j.j.j.j.j.j.j.j.j.j.3.,.,.,.,.,.-.S Z Z u : - u u u ",
"  0 u u 0 - u p S S S ,.,.,.,.,.,.,.,.,.,.,.,.,.,.,.,.,.x.>.- x.i.u :.,.,.u.x.x.x.x.x.x.x.x.x.x.4.,.,.,.,.,.-.S S S u : - u u u ",
"  0 u u 0 - u p S S S ,.,.,.,.,.,.,.,.,.,.,.,.,.,.,.,.,.S >.x.- 0 x.j u ,.,.,.,.,.,.,.,.,.,.,.,.,.,.,.,.,.,.-.S S S u : - u u u ",
"  0 u u : + u p S S S ,.,.,.,.,.,.,.,.,.,.,.,.,.,.,.,.,.U -.>.;.R H 1.2.S -.,.,.,.,.,.,.,.,.,.,.,.,.,.,.,.,.-.S S S u $ + u u u ",
"  0 u u :   u p S S S ,.,.,.,.,.,.,.,.,.,.,.,.,.,.,.,.,.,.T S x.u.- i.x.u U ,.,.,.,.,.,.,.,.,.,.,.,.,.,.,.,.-.S S S u +   u u u ",
"  0 u u :   u p S S S ,.,.,.,.,.,.,.,.,.,.,.,.,.,.,.,.,.,.,.,.u V B.2 - B.R u ,.,.,.,.,.,.,.,.,.,.,.,.,.,.,.-.S S S u +   u u u ",
"+ 0 u u :   u p S S S ,.,.,.,.,.,.,.,.,.,.,.,.,.,.,.,.,.,.,.,.Z L k.Y P d.I j ,.,.,.,.,.,.,.,.,.,.,.,.,.,.,.-.S S S u +   u u u ",
"- r u u :   u p S S S ,.,.,.,.,.,.,.,.,.,.,.,.,.,.,.,.,.,.,.,.,.-.u m.B.- j S ,.,.,.,.,.,.,.,.,.,.,.,.,.,.,.-.S S S u +   u u u ",
"- r u u :   - 0 S S L ,.,.,.,.,.,.,.,.,.,.,.,.,.,.,.,.,.x.y.,.,.>.S M.B.- j S ,.,.,.,.3.x.,.,.,.,.,.,.,.,.,.-.S S S - X   u u u ",
"# r u u :   - 2 S S L ,.,.,.,.,.,.,.,.,.,.,.,.,.,.,.<.3.x.y.,.,.>.S M.B.- j S ,.,.,.,.3.x.3.3.,.,.,.,.,.,.,.-.S S S - X   u u u ",
"  0 u u :   - 2 S S L ,.,.,.,.,.,.,.,.,.,.,.,.,.,.,.y.x.x.y.,.,.>.S M.B.- j S ,.,.,.,.3.x.x.x.,.,.,.,.,.,.,.-.S S S - X   u u u ",
"  0 u u :   - 0 S S L ,.,.,.,.,.,.,.,.,.,.,.,.,.,.l.z.x.x.y.,.,.>.S M.B.- j S ,.,.,.,.3.x.x.x.l.4.,.,.,.,.,.-.S S S - X   u u u ",
"  0 u u :   - 0 S S L ,.,.,.,.,.,.,.,.,.,.,.,.,.,.x.x.x.x.y.,.,.>.S M.B.- j S ,.,.,.,.3.x.x.x.x.4.,.,.,.,.,.-.S S S - X   u u u ",
"  0 u u :   - 0 S S L ,.,.,.,.,.,.,.,.,.,.,.,.,.,.,.y.x.x.y.,.,.>.S j.x.- j S ,.,.,.,.3.x.x.x.,.,.,.,.,.,.,.-.S S S - X   u u u ",
"  0 u u :   - > p S L ,.,.,.,.,.,.,.,.,.,.,.,.,.,.,.3.5.x.y.,.,.>.S j.x.- j S ,.,.,.,.3.x.5.5.,.,.,.,.,.,.,.-.S p p - X   u u u ",
"  0 u u :   - : u S L ,.,.,.,.,.,.,.,.,.,.,.,.,.,.,.,.,.x.y.,.,.>.S j.x.- j S ,.,.,.,.3.x.,.,.,.,.,.,.,.,.,.-.S u u - X   u u u ",
"  # - - +   - : u u u S -.,.,.,.,.,.,.,.,.,.,.,.,.,.,.,.,.,.,.,.>.S >.,.- j S ,.,.,.,.,.,.,.,.,.,.,.,.,.,.S C u u u - X   - - - ",
"  # - - +   - 0 L T T U >.,.7.7.7.7.7.7.7.7.7.7.7.7.7.7.7.7.7.,.>.S >.,.- j S ,.3.7.7.7.7.7.7.7.7.7.7.3.,.U U -.L L - X   - - - ",
"  # - - +   - r ,.z.z.,.,.,.x.x.x.x.x.x.x.x.x.x.x.x.x.x.x.x.x.,.>.S >.,.- j S ,.6.x.x.x.x.x.x.x.x.x.x.r.,.,.3.x.,.,.- X   - - - ",
"  # - - +   - r ,.z.z.,.,.,.,.,.,.,.,.,.,.,.,.,.,.,.,.,.,.,.,.,.>.S >.,.- j S ,.,.,.,.,.,.,.,.,.,.,.,.,.,.,.3.x.,.,.- X   - - - ",
"  # - - +   - q U 0.0.-.>.,.,.2.2.2.2.,.,.,.2.2.2.,.,.,.2.2.2.,.>.S >.,.- j S ,.<.2.2.2.,.,.,.2.2.2.,.,.,.-.,.t.U U - X   - - - ",
"  # - - +   - - - y u S -.,.,.9.g.g.s.,.,.,.g.g.g.,.,.,.g.g.g.,.>.S >.,.- j S ,.8.g.g.d.,.,.,.g.g.g.,.,.,.S C u - - - X   - - - ",
"  # - - +   - 2 S S S ,.,.,.f.g.g.,.,.,.f.g.g.2.,.,.9.f.g.9.,.,.-.u :.,.- e u ,.,.,.g.g.f.,.,.,.s.g.f.8.,.,.-.S S S - X   - - - ",
"  # - - +   - 0 S S L ,.,.,.f.f.f.,.,.,.f.f.f.2.,.,.9.f.f.9.,.,.-.u :.,.- e u ,.,.,.f.f.f.,.,.,.a.f.f.8.,.,.-.S S S % X   - - - ",
"  # - - +   - 0 S S L ,.,.,.,.,.,.,.,.,.,.,.,.,.,.,.,.,.,.,.,.,.-.u :.,.- e u ,.,.,.,.,.,.,.,.,.,.,.,.,.,.,.-.S S S       - - - ",
"  # - - +   X & s | | ........................................f g u :.,.X 0 u f c ............................| s s       - - - ",
"  # - - +     O 4  . . . . . . . . . . . . . . . . . . . . . .4 5 u :.,.  0 u 4 9  . . . . . . . . . . . . . . .4 4       - - - ",
"  # - - +   S h   % - u u u u u u u u u u u u u u u u u - - - - - - - -   # - - - - - - - y u u u u u u u u u u     S #   - - - ",
"  # - - # @ S k 6 + @ e.e.e.e.e.e.e.e.e.e.e.e.e.e.e.e.e.@.@.@.x 8 , 0 0   : 0 , 5 x x c @.w.e.e.e.e.e.e.e.- - - 6 6 S : @ - - - ",
"  # - - - - S A n . o p.p.p.p.p.p.p.p.p.p.p.p.p.p.p.p.p.p.p.p. . .4 y u   0 u 4 9  . .X.p.p.p.p.p.p.p.p.p.      n n S 2 - - - - ",
"  # - - - - - < n 7 7   e u 4 4 4 4 4 4 4 4 4 4 4 4 4 4 4 4 4 4 4 4 = -   # - 4 4 4 4 4 4 4 4 4 4 4 4 a u   o 7 n n - - - - - - ",
"  @ # - - - - ; d 7 7   : 0 * , 3 3 3 3 3 3 3 3 3 3 3 3 3 3 3 3 3 3 = - + # - 3 3 3 3 3 3 3 3 3 3 3 * < 0   o 7 d d - - - - # # ",
"      - - - - - - 7 7         @ - - - - - - - - - - - - - - - - - - - - - - - - - - - - - - - - - -         o 7 - - - - - - +   ",
"        + - - - - - %   e u n n n n n n n n n n n n n n n n n n n n n n n n n n n n n n n n n n n n n z u   X - - - - - -       ",
"        + $ - - - $ # X e u n v m m v n n n m m m n n n m m m n n n v m m v n n v m m v n n n m m m n z u X + $ - - - % $       ",
"            - - -   X u b n n N +.+.o.n n v +.+.+.n n n +.+.+.n n n O.+.+.M n n M +.+.O.n n n +.+.+.n n n u 0   - - - X         ",
"  # $   - r r u C C C S S S ) _ _ K A S ) ) _ F K S ~ ) _ ^ K S S S K K _ _ ) S A K _ _ ) A S K ( _ ) G S S Z C C C r r r   + $ ",
"  # -   : u u p S S S S S S ! ! ! S S S ! ! ! J S S ^ ! ! ^ S S S S S S ! ! ! S S S ! ! ! L S S / ! ! ` S S S S S S u u u   + - "
};
