/* XPM */
static char *test1695800683[] = {
/* columns rows colors chars-per-pixel */
"181 14 2 1 ",
"  c None",
". c white",
/* pixels */
" ...   ............  ...          ............    ........           ...........  ..       ...   ...........   ............  ...........       .....          ......     ............",
" ...   ...........   ...          ............  ............          .........   ...      ...   ...........   ............  ............      .....        ..........   ........... ",
" ...   ...           ...              ...       ....     ...             ...      ....     ...       ...       ...           ....     ...    ....  ...      ...    ...       ...     ",
" ...   ...           ...              ...       ....     ...             ...      .....    ...       ...       ...           ....     ...   ...     ....  ....               ...     ",
" ...   ...           ...              ...       ....     ...             ...      .....    ...       ...       ...           ....     ...   ...     ....  ....               ...     ",
"       ........                       ...       ....     ...             ...      .......  ...       ...       ........      ...........    ...     ....  ....               ...     ",
"       ........                       ...       ....     ...             ...      .......  ...       ...       ........      ...........    ...     ....  ....               ...     ",
"       ...                            ...       ....     ...             ...      .... .......       ...       ...           ....     ...   ............  ....               ...     ",
"       ...                            ...       ....     ...             ...      ....  ......       ...       ...           ....     ...   ............  ....               ...     ",
"       ...                            ...       ....     ...             ...      ....   .....       ...       ...           ....     ...   ...     ....  ....               ...     ",
"       ...                            ...       ....     ...             ...      ....   .....       ...       ...           ....     ...   ...     ....    ...    ...       ...     ",
"       ...                            ...       ....     ...             ...      ....     ...       ...       ...           ....     ...   ...     ....    ...    ...       ...     ",
"       ...........                    ...         ........            .........   ....     ...       ...       ............  ....     ...   ...     ....      ......         ...     ",
"       ............                   ...         ........           ...........  ....      ..       ...       ............  ....     ...   ...     ....      ......         ...     "
};
