/* XPM */
static char *exit1696483535[] = {
/* columns rows colors chars-per-pixel */
"128 128 12 1 ",
"  c #0F0F18",
". c #192032",
"X c #054F39",
"o c #2D3853",
"O c #3F536C",
"+ c #BF5F1F",
"@ c #5B758B",
"# c #919A9D",
"$ c #88A3B5",
"% c #BED2DC",
"& c #E0ECF0",
"* c white",
/* pixels */
"    ......oooooooooOOOOOOOOOOOOOOOOOOOOOOOOOOOOOOOOOOOOOOOOOOOOOOOOOOOOOOOOOOOOOOOOOOOOOOOOOOOOOOOOOOOOOOOOOOooooooooo......    ",
"    ...   ooooooOOOOOOOOOOOO++++++OOOOOO++++++OOOOOO++++++OOOOOOOOOOOO++++++OOOOOO++++++OOOOOO++++++OOOOOOOOOOOOoooooo   ...    ",
"    ...   ooooooOOOOOOOOOOOO++++++OOOOOO++++++OOOOOO++++++OOOOOOOOOOOO++++++OOOOOO++++++OOOOOO++++++OOOOOOOOOOOOoooooo   ...    ",
"    ...   ooooooOOOOOOOOOOOO++++++OOOOOO++++++OOOOOO++++++OOOOOOOOOOOO++++++OOOOOO++++++OOOOOO++++++OOOOOOOOOOOOoooooo   ...    ",
"             ......   oooOOOOOO++++++OOOOOO++++++OOOOOO++++++OOOOOO++++++OOOOOO++++++OOOOOO++++++OOOOOOooo   ......             ",
"             ......   oooOOOOOO++++++OOOOOO++++++OOOOOO++++++OOOOOO++++++OOOOOO++++++OOOOOO++++++OOOOOOooo   ......             ",
"             ......   oooOOOOOO++++++OOOOOO++++++OOOOOO++++++OOOOOO++++++OOOOOO++++++OOOOOO++++++OOOOOOooo   ......             ",
"          ............   oooOOOOOOOOOOOOOOOOOOOOOOOOOOOOOOOOOOOOOOOOOOOOOOOOOOOOOOOOOOOOOOOOOOOOOOOOooo   ............          ",
"          ............   oooOOOOOOOOOOOOOOOOOOOOOOOOOOOOOOOOOOOOOOOOOOOOOOOOOOOOOOOOOOOOOOOOOOOOOOOOooo   ............          ",
"          ............   oooOOOOOOOOOOOOOOOOOOOOOOOOOOOOOOOOOOOOOOOOOOOOOOOOOOOOOOOOOOOOOOOOOOOOOOOOooo   ............          ",
"       ............ooo         ..................................................................         ooo............       ",
"       ............ooo         ..................................................................         ooo............       ",
"       ............ooo         ..................................................................         ooo............       ",
"    ............OOOooo   ***************************************************************************...   oooOOO............    ",
"    ............OOOooo   ***************************************************************************...   oooOOO............    ",
"    ............OOOooo   ***************************************************************************...   oooOOO............    ",
"    .........OOOOOO   ******************************************************************************...$$$   OOOOOO.........    ",
"    .........OOOOOO   ******************************************************************************...$$$   OOOOOO.........    ",
"    .........OOOOOO   ******************************************************************************...$$$   OOOOOO.........    ",
"    ......   OOO   *********************************************************************************...$$$@@@   OOO   ......    ",
"    ......   OOO   *********************************************************************************...$$$@@@   OOO   ......    ",
"    ......   OOO   *********************************************************************************...$$$@@@   OOO   ......    ",
"    ......      ************************************************************************************...$$$&&&&&&      ......    ",
"    ......      ************************************************************************************...$$$&&&&&&      ......    ",
"    ......      ************************************************************************************...$$$&&&&&&      ......    ",
"    ......   ***************************************************************************************...@@@$$$$$$$$$   ......    ",
"    ......   ***************************************************************************************...@@@$$$$$$$$$   ......    ",
"    ......   ***************************************************************************************...@@@$$$$$$$$$   ......    ",
"    ......   ***************************************************************************************.........oooooo   oooooo    ",
"    ......   ***************************************************************************************.........oooooo   oooooo    ",
"    ......   ***************************************************************************************.........oooooo   oooooo    ",
"    oooooo   ***************************************************************************************...OOO@@@@@@@@@   oooooo    ",
"    oooooo   ***************************************************************************************...OOO@@@@@@@@@   oooooo    ",
"    oooooo   ***************************************************************************************...OOO@@@@@@@@@   oooooo    ",
"    oooooo   ***************************************************************************************...OOO@@@@@@@@@   oooooo    ",
"    oooooo   ***************************************************************************************...OOO@@@@@@@@@   oooooo    ",
"    oooooo   ***************************************************************************************...OOO@@@@@@@@@   oooooo    ",
"    oooooo   ***************************************************************************************...OOO@@@@@@@@@   oooooo    ",
"    oooooo   ***************************************************************************************...OOO@@@@@@@@@   oooooo    ",
"    oooooo   ***************************************************************************************...OOO@@@@@@@@@   oooooo    ",
"    oooooo...***************************************************************************************...OOO@@@@@@@@@...oooooo    ",
"    oooooo...***************************************************************************************...OOO@@@@@@@@@...oooooo    ",
"    oooooo...***************************************************************************************...OOO@@@@@@@@@...oooooo    ",
"    oooooo......************************************************************************************...OOO@@@@@@@@@...oooooo    ",
"    oooooo......************************************************************************************...OOO@@@@@@@@@...oooooo    ",
"    oooooo......************************************************************************************...OOO@@@@@@@@@...oooooo    ",
"    oooooo...OOO...*********************************************************************************...ooo@@@@@@@@@...oooooo    ",
"    oooooo...OOO...*********************************************************************************...ooo@@@@@@@@@...oooooo    ",
"    oooooo...OOO...*********************************************************************************...ooo@@@@@@@@@...oooooo    ",
"    oooooo...OOO$$$...******************************************************************************...ooo@@@@@@@@@...oooooo    ",
"    oooooo...OOO$$$...******************************************************************************...ooo@@@@@@@@@...oooooo    ",
"    oooooo...OOO$$$...******************************************************************************...ooo@@@@@@@@@...oooooo    ",
"    oooooo...OOO@@@%%%...***************************************************************************...$$$ooo@@@@@@...oooooo    ",
"    oooooo...OOO@@@%%%...***************************************************************************...$$$ooo@@@@@@...oooooo    ",
"    oooooo...OOO@@@%%%...***************************************************************************...$$$ooo@@@@@@...oooooo    ",
"    oooooo...OOO@@@$$$%%%...***************************************************************************...$$$ooo@@@...oooooo    ",
"    oooooo...OOO@@@$$$%%%...***************************************************************************...$$$ooo@@@...oooooo    ",
"    oooooo...OOO@@@$$$%%%...***************************************************************************...$$$ooo@@@...oooooo    ",
"    oooooo...$$$@@@$$$$$$...******************************************************************************...$$$ooo...oooooo    ",
"    oooooo...$$$@@@$$$$$$...******************************************************************************...$$$ooo...oooooo    ",
"    oooooo...$$$@@@$$$$$$...******************************************************************************...$$$ooo...oooooo    ",
"    oooooo   OOO$$$$$$$$$...*********************************************************************************...$$$   oooooo    ",
"    oooooo   OOO$$$$$$$$$...*********************************************************************************...$$$   oooooo    ",
"    oooooo   OOO$$$$$$$$$...*********************************************************************************...$$$   oooooo    ",
"    oooooo   @@@ooo%%%$$$...************************************************************************************...   oooooo    ",
"    oooooo   @@@ooo%%%$$$...************************************************************************************...   oooooo    ",
"    oooooo   @@@ooo%%%$$$...************************************************************************************...   oooooo    ",
"....oooooo   @@@@@@ooo%%%...***************************************************************************************   oooooo....",
"....oooooo   @@@@@@ooo%%%...***************************************************************************************   oooooo....",
"....oooooo   @@@@@@ooo%%%...***************************************************************************************   oooooo....",
"....oooooo   @@@@@@OOO%%%...***************************************************************************************   oooooo....",
"....oooooo   @@@@@@OOO%%%...***************************************************************************************   oooooo....",
"....oooooo   @@@@@@OOO%%%...***************************************************************************************   oooooo....",
"    oooooo   @@@@@@OOO%%%...***************************************************************************************   oooooo    ",
"    oooooo   @@@@@@OOO%%%...***************************************************************************************   oooooo    ",
"    oooooo   @@@@@@OOO%%%...***************************************************************************************   oooooo    ",
"    oooooo   @@@@@@OOO%%%...***************************************************************************************   oooooo    ",
"    oooooo   @@@@@@OOO%%%...***************************************************************************************   oooooo    ",
"    oooooo   @@@@@@OOO%%%...***************************************************************************************   oooooo    ",
"    oooooo   @@@@@@OOO$$$...***************************************************************************************   oooooo    ",
"    oooooo   @@@@@@OOO$$$...***************************************************************************************   oooooo    ",
"    oooooo   @@@@@@OOO$$$...***************************************************************************************   oooooo    ",
"    oooooo   @@@@@@OOO$$$...***************************************************************************************   oooooo    ",
"    oooooo   @@@@@@OOO$$$...***************************************************************************************   oooooo    ",
"    oooooo   @@@@@@OOO$$$...***************************************************************************************   oooooo    ",
"    ......   @@@@@@OOO@@@...***************************************************************************************   ......    ",
"    ......   @@@@@@OOO@@@...***************************************************************************************   ......    ",
"    ......   @@@@@@OOO@@@...***************************************************************************************   ......    ",
"    ......   $$$@@@OOO@@@...***************************************************************************************   ......    ",
"    ......   $$$@@@OOO@@@...***************************************************************************************   ......    ",
"    ......   $$$@@@OOO@@@...***************************************************************************************   ......    ",
"    ......   @@@@@@OOO@@@...***************************************************************************************   ......    ",
"    ......   @@@@@@OOO@@@...***************************************************************************************   ......    ",
"    ......   @@@@@@OOO@@@...***************************************************************************************   ......    ",
"    ......   ###@@@OOO@@@...***************************************************************************************   ......    ",
"    ......   ###@@@OOO@@@...***************************************************************************************   ......    ",
"    ......   ###@@@OOO@@@...***************************************************************************************   ......    ",
"    ......   @@@@@@ooo@@@...***************************************************************************************   ......    ",
"    ......   @@@@@@ooo@@@...***************************************************************************************   ......    ",
"    ......   @@@@@@ooo@@@...***************************************************************************************   ......    ",
"    ......   @@@@@@ooo@@@...***************************************************************************************   ......    ",
"    ......   @@@@@@ooo@@@...***************************************************************************************   ......    ",
"    ......   @@@@@@ooo@@@...***************************************************************************************   ......    ",
"    ......      XXXooo@@@...************************************************************************************      ......    ",
"    ......      XXXooo@@@...************************************************************************************      ......    ",
"    ......      XXXooo@@@...************************************************************************************      ......    ",
"    ......   OOO   .........*********************************************************************************   OOO   ......    ",
"    ......   OOO   .........*********************************************************************************   OOO   ......    ",
"    ......   OOO   .........*********************************************************************************   OOO   ......    ",
"    .........OOOOOO   ooo...******************************************************************************   OOOOOO.........    ",
"    .........OOOOOO   ooo...******************************************************************************   OOOOOO.........    ",
"    .........OOOOOO   ooo...******************************************************************************   OOOOOO.........    ",
"    ............OOOooo   ooo***************************************************************************   oooOOO............    ",
"    ............OOOooo   ooo***************************************************************************   oooOOO............    ",
"    ............OOOooo   ooo***************************************************************************   oooOOO............    ",
"       ............ooo         ..................................................................         ooo............       ",
"       ............ooo         ..................................................................         ooo............       ",
"       ............ooo         ..................................................................         ooo............       ",
"          ............   oooOOOOOOOOOOOOOOOOOOOOOOOOOOOOOOOOOOOOOOOOOOOOOOOOOOOOOOOOOOOOOOOOOOOOOOOOooo   ............          ",
"          ............   oooOOOOOOOOOOOOOOOOOOOOOOOOOOOOOOOOOOOOOOOOOOOOOOOOOOOOOOOOOOOOOOOOOOOOOOOOooo   ............          ",
"          ............   oooOOOOOOOOOOOOOOOOOOOOOOOOOOOOOOOOOOOOOOOOOOOOOOOOOOOOOOOOOOOOOOOOOOOOOOOOooo   ............          ",
"             ......   oooOOOOOO++++++OOOOOO++++++OOOOOO++++++OOOOOO++++++OOOOOO++++++OOOOOO++++++OOOOOOooo   ......             ",
"             ......   oooOOOOOO++++++OOOOOO++++++OOOOOO++++++OOOOOO++++++OOOOOO++++++OOOOOO++++++OOOOOOooo   ......             ",
"             ......   oooOOOOOO++++++OOOOOO++++++OOOOOO++++++OOOOOO++++++OOOOOO++++++OOOOOO++++++OOOOOOooo   ......             ",
"    ...   ooooooOOOOOOOOOOOO++++++OOOOOO++++++OOOOOO++++++OOOOOOOOOOOO++++++OOOOOO++++++OOOOOO++++++OOOOOOOOOOOOoooooo   ...    ",
"    ...   ooooooOOOOOOOOOOOO++++++OOOOOO++++++OOOOOO++++++OOOOOOOOOOOO++++++OOOOOO++++++OOOOOO++++++OOOOOOOOOOOOoooooo   ...    ",
"    ...   ooooooOOOOOOOOOOOO++++++OOOOOO++++++OOOOOO++++++OOOOOOOOOOOO++++++OOOOOO++++++OOOOOO++++++OOOOOOOOOOOOoooooo   ...    ",
"    ......oooooooooOOOOOOOOOOOOOOOOOOOOOOOOOOOOOOOOOOOOOOOOOOOOOOOOOOOOOOOOOOOOOOOOOOOOOOOOOOOOOOOOOOOOOOOOOOooooooooo......    "
};
