/* XPM */
static char *_a2469751ea140c5b99517f52f140fb7e0P4ot7b0g51MkyP[] = {
/* columns rows colors chars-per-pixel */
"64 64 4 1 ",
"  c #C0FF00",
". c #00FEFF",
"X c #48CDE2",
"o c white",
/* pixels */
"  XXXXXXXXXXXXXXXXXXXXXXXXXXXXXXXXXXXXXXXXXXXXXXXXXXXXXXXXXXXX  ",
"  XXXXXXXXXXXXXXXXXXXXXXXXXXXXXXXXXXXXXXXXXXXXXXXXXXXXXXXXXXXX  ",
"XX..XXXXXXXXXXXXXXXXXXXXooXXXXXXXXXXXXXXXXXXXXXXXXooXXXXXXXX..XX",
"XX..XXXXXXXXXXXXXXXXXXXXooXXXXXXXXXXXXXXXXXXXXXXXXooXXXXXXXX..XX",
"XXXXXXXXXXXXXXXXXXXXXXXXooooXXXXXXXXXXXXXXXXXXXXooooXXXXXXXXXXXX",
"XXXXXXXXXXXXXXXXXXXXXXXXooooXXXXXXXXXXXXXXXXXXXXooooXXXXXXXXXXXX",
"XXXXXXXXXXXXXXXXXXXXXXooooooooXXXXXXXXXXXXXXXXooooooooXXXXXXXXXX",
"XXXXXXXXXXXXXXXXXXXXXXooooooooXXXXXXXXXXXXXXXXooooooooXXXXXXXXXX",
"XXXXXXXXXXXXXXXXXXXXooooooooooXXXXXXXXXXXXXXXXooooooooXXXXXXXXXX",
"XXXXXXXXXXXXXXXXXXXXooooooooooXXXXXXXXXXXXXXXXooooooooXXXXXXXXXX",
"XXXXXXXXXXXXXXXXXXooooooooooooooooXXXXXXXXXXooooooooXXooXXXXXXXX",
"XXXXXXXXXXXXXXXXXXooooooooooooooooXXXXXXXXXXooooooooXXooXXXXXXXX",
"XXXXXXXXXXXXXXooooXXXXXXooooXXXXooooooXXXXooooXXXXooXXooXXXXXXXX",
"XXXXXXXXXXXXXXooooXXXXXXooooXXXXooooooXXXXooooXXXXooXXooXXXXXXXX",
"ooooooooXXooooooXXXXXXXXooXXXXooooXXooooooXXXXXXXXooXXXXooooXXXX",
"ooooooooXXooooooXXXXXXXXooXXXXooooXXooooooXXXXXXXXooXXXXooooXXXX",
"XXXXXXooooooXXXXXXXXXXooooXXXXXXXXXXXXooooXXXXXXXXXXXXXXXXooooXX",
"XXXXXXooooooXXXXXXXXXXooooXXXXXXXXXXXXooooXXXXXXXXXXXXXXXXooooXX",
"XXXXXXooXXXXXXXXXXooooooXXXXXXXXXXXXXXXXooooooooXXXXXXXXXXXXoooo",
"XXXXXXooXXXXXXXXXXooooooXXXXXXXXXXXXXXXXooooooooXXXXXXXXXXXXoooo",
"XXXXooooXXXXXXXXooooXXXXXXXXXXXXXXooooooooooooooXXXXXXXXXXXXXXXX",
"XXXXooooXXXXXXXXooooXXXXXXXXXXXXXXooooooooooooooXXXXXXXXXXXXXXXX",
"XXXXXXooooXXooooooXXXXXXXXXXXXooXXXXooooooooooooXXXXXXXXXXXXXXXX",
"XXXXXXooooXXooooooXXXXXXXXXXXXooXXXXooooooooooooXXXXXXXXXXXXXXXX",
"XXXXXXXXooooooXXXXXXXXXXXXXXXXooooooooooooooooXXooXXXXXXXXXXXXXX",
"XXXXXXXXooooooXXXXXXXXXXXXXXXXooooooooooooooooXXooXXXXXXXXXXXXXX",
"XXXXXXooooooooooXXXXXXXXXXXXooooXXXXooooXXooXXXXooooXXXXXXXXXXXX",
"XXXXXXooooooooooXXXXXXXXXXXXooooXXXXooooXXooXXXXooooXXXXXXXXXXXX",
"XXXXooooXXXXXXooXXXXXXXXooooooXXXXXXooXXXXXXXXXXXXooXXXXXXXXXXXX",
"XXXXooooXXXXXXooXXXXXXXXooooooXXXXXXooXXXXXXXXXXXXooXXXXXXXXXXXX",
"XXooXXXXXXXXXXXXooooooooXXXXXXXXXXXXXXXXXXXXXXXXXXooooXXXXXXXXXX",
"XXooXXXXXXXXXXXXooooooooXXXXXXXXXXXXXXXXXXXXXXXXXXooooXXXXXXXXXX",
"ooooXXXXXXXXXXXXXXooooXXXXXXXXXXXXXXXXXXXXXXXXXXXXXXooooXXXXXXXX",
"ooooXXXXXXXXXXXXXXooooXXXXXXXXXXXXXXXXXXXXXXXXXXXXXXooooXXXXXXXX",
"XXXXXXXXXXXXXXXXooooXXXXXXXXXXXXXXXXXXXXXXXXXXXXXXXXXXooXXXXXXXX",
"XXXXXXXXXXXXXXXXooooXXXXXXXXXXXXXXXXXXXXXXXXXXXXXXXXXXooXXXXXXXX",
"XXXXXXXXXXXXXXXXXXXXXXXXXXXXXXXXXXXXXXXXXXXXXXXXXXXXXXXXXXXXXXXX",
"XXXXXXXXXXXXXXXXXXXXXXXXXXXXXXXXXXXXXXXXXXXXXXXXXXXXXXXXXXXXXXXX",
"XXXXXXXXXXXXXXXXXXXXXXXXXXXXXXXXXXXXXXXXXXXXXXXXXXXXXXXXXXXXXXXX",
"XXXXXXXXXXXXXXXXXXXXXXXXXXXXXXXXXXXXXXXXXXXXXXXXXXXXXXXXXXXXXXXX",
"XXXXXXXXXXXXXXXXXXXXXXXXXXXXXXXXXXXXXXXXXXXXXXXXXXXXXXXXXXXXXXXX",
"XXXXXXXXXXXXXXXXXXXXXXXXXXXXXXXXXXXXXXXXXXXXXXXXXXXXXXXXXXXXXXXX",
"XXXXXXXXXXXXXXXXXXXXXXXXXXXXXXXXXXXXXXXXXXXXXXXXXXXXXXXXXXXXXXXX",
"XXXXXXXXXXXXXXXXXXXXXXXXXXXXXXXXXXXXXXXXXXXXXXXXXXXXXXXXXXXXXXXX",
"XXXXXXXXXXXXXXXXXXXXXXXXXXXXXXXXXXXXXXXXXXXXXXXXXXXXXXXXXXXXXXXX",
"XXXXXXXXXXXXXXXXXXXXXXXXXXXXXXXXXXXXXXXXXXXXXXXXXXXXXXXXXXXXXXXX",
"XXXXXXXXXXXXooXXXXooXXXXooooXXXXooooooXXooooooXXooXXooXXXXXXXXXX",
"XXXXXXXXXXXXooXXXXooXXXXooooXXXXooooooXXooooooXXooXXooXXXXXXXXXX",
"XXXXXXXXXXXXooooXXooXXooXXXXooXXooXXooXXXXooXXXXooXXooXXXXXXXXXX",
"XXXXXXXXXXXXooooXXooXXooXXXXooXXooXXooXXXXooXXXXooXXooXXXXXXXXXX",
"XXXXXXXXXXXXooXXooooXXooXXXXooXXooooXXXXXXooXXXXooXXooXXXXXXXXXX",
"XXXXXXXXXXXXooXXooooXXooXXXXooXXooooXXXXXXooXXXXooXXooXXXXXXXXXX",
"XXXXXXXXXXXXooXXXXooXXooXXXXooXXooXXooXXXXooXXXXooooooXXXXXXXXXX",
"XXXXXXXXXXXXooXXXXooXXooXXXXooXXooXXooXXXXooXXXXooooooXXXXXXXXXX",
"XXXXXXXXXXXXooXXXXooXXooXXXXooXXooXXooXXXXooXXXXooXXooXXXXXXXXXX",
"XXXXXXXXXXXXooXXXXooXXooXXXXooXXooXXooXXXXooXXXXooXXooXXXXXXXXXX",
"XXXXXXXXXXXXooXXXXooXXXXooooXXXXooXXooXXXXooXXXXooXXooXXXXXXXXXX",
"XXXXXXXXXXXXooXXXXooXXXXooooXXXXooXXooXXXXooXXXXooXXooXXXXXXXXXX",
"XXXXXXXXXXXXXXXXXXXXXXXXXXXXXXXXXXXXXXXXXXXXXXXXXXXXXXXXXXXXXXXX",
"XXXXXXXXXXXXXXXXXXXXXXXXXXXXXXXXXXXXXXXXXXXXXXXXXXXXXXXXXXXXXXXX",
"XX..XXXXXXXXXXXXXXXXXXXXXXXXXXXXXXXXXXXXXXXXXXXXXXXXXXXXXXXX..XX",
"XX..XXXXXXXXXXXXXXXXXXXXXXXXXXXXXXXXXXXXXXXXXXXXXXXXXXXXXXXX..XX",
"  XXXXXXXXXXXXXXXXXXXXXXXXXXXXXXXXXXXXXXXXXXXXXXXXXXXXXXXXXXXX  ",
"  XXXXXXXXXXXXXXXXXXXXXXXXXXXXXXXXXXXXXXXXXXXXXXXXXXXXXXXXXXXX  "
};
