/* XPM */
static char *result[] = {
/* columns rows colors chars-per-pixel */
"32 64 79 1 ",
"  c #0F0F18",
". c #171218",
"X c #181318",
"o c #192032",
"O c #1B2337",
"+ c #1F283D",
"@ c #2A262F",
"# c #282D39",
"$ c #46352C",
"% c #4A372C",
"& c #573C2A",
"* c #654428",
"= c #764D26",
"- c #212A40",
"; c #29364B",
": c #2A364C",
"> c #313E4D",
", c #313E4E",
"< c #2D3853",
"1 c #2D3954",
"2 c #2F3D57",
"3 c #3B4F68",
"4 c #3D516A",
"5 c #3E516A",
"6 c #3E516B",
"7 c #3E526B",
"8 c #3F536C",
"9 c #404D5B",
"0 c #44505D",
"q c #475461",
"w c #40546D",
"e c #42566F",
"r c #435770",
"t c #445971",
"y c #475A73",
"u c #485E76",
"i c #51677E",
"p c #52687F",
"a c #AE5A1F",
"s c #AD5D1F",
"d c #B45F1F",
"f c #BE5E1F",
"g c #BF5E1F",
"h c #845424",
"j c #985023",
"k c #995023",
"l c #9A5022",
"z c #A45422",
"x c #A95820",
"c c #B15C20",
"v c #C9671D",
"b c #DE7E19",
"n c #ED8617",
"m c #526980",
"M c #526A81",
"N c #536C83",
"B c #556D84",
"V c #587187",
"C c #597288",
"Z c #597389",
"A c #5A748A",
"S c #5B758B",
"D c #60778D",
"F c #647F94",
"G c #6C8599",
"H c #728BA0",
"J c #738DA2",
"K c #7892A6",
"L c #7F99AC",
"P c #85A0B2",
"I c #88A3B5",
"U c #93ABBD",
"Y c #97AEBF",
"T c #A0B7C5",
"R c #B2C6D3",
"E c #B2C6D4",
"W c #B7CBD7",
"Q c #BCCEDA",
"! c #BFD1DC",
/* pixels */
"!!!!!!!!!!!!!!!!!!!!!!!!!!!!!!!!",
"!!!!!!!!!!!!!!!!!!!!!!!!!!!!!!!!",
"!!!!!!!!!!!!!!!!!!!!!!!!!!!!!!!!",
"!!!!!!!!!!!!!!!!!!!!!!!!!!!!!!!!",
"!!!!!!!!!!!!!!!!!!!!!!!!!!!!!!!!",
"!!!!!!!!!!!!!!!!!!!!!!!!!!!!!!!!",
"!!!!!!!!!!!!!!!!!!!!!!!!!!!!!!!!",
"QQQQQQQQQQQQQQQQQQQQQQQQQQQQQQQQ",
"!!!!!!!!!!!!!!!WE!!!!!!!!!!!!!!!",
"!!!!!!!!!!!!!!!TI!!!!!!!!!!!!!!!",
"!!!!!!!!!!!!!!IIISIIIIR!!!!!!!!!",
"YYYYYYYYYYYYYYIIISpDIIUYYYYYYYYY",
"IIIIIIIIIIIIIIIIIS8iIIIIIIIIIIII",
"SSSSSSSSSSSSSSSJISSN8IFSSSSSSSSS",
"SSSSSSSSSSSSSSSSSSSSS8BSSSSSSPLS",
"SSSSSSSSSSSSSSSSSSSSS8BSSSSSyHGy",
"SSSSSSSSSSSSSSSSSSSSS8BSSSSS<Vm<",
"SSSSSSSSSSSSSSSSSSSSS8BSSSSS8128",
"SSSSSSSSSSSSSSSSSSSSSZASSSSS85rZ",
"SSSSSSSSSSSSSSSSSSSSSSSSSSSSe8tS",
"SSSSSSSSSSSSSSSSSSSSSSSSSSSSSwtS",
"SSSSSSSSSSSSSSSSSSSSSSSSSSSSSwtS",
"SSSSSSSSSSSSSSSSSSSSSSSSSSSSSwtS",
"SSSSSSSSSSSSSSSSSSSSSSSSSSSSSwtS",
"SSSSSSSSSSSSSSSSSSSSSSSSSSSSSSSS",
"CSSSSSSSSSSSSSSSSSSSSSSSSSSSSSSS",
"CAMMMMMMBSSSSSMMMMMMMMMMMMMMMMMM",
"CV888888uSSSSS888888888888888888",
"888888<<<<886<<<<888888888888888",
"888888O33388833:O888888888888888",
"777754o77777777;o577777777777777",
"<<<<+oo<<<<<<<<-oo<<<<<<<<<<<<<<",
"SSSSSA IKSSSSSI0 SSSSSSSSSSSSSSS",
",,,,,> q9,,,,,q# ,,,,,,,,,,,,,,,",
"                                ",
"   gggg     Xggggg     .gggggX  ",
"o@gggfooooozgggggooooolgggggoooo",
"$&vvxjoooo%dvvvakoooo%svvvckoooo",
"bnnn*ooooonnnnn=ooooonnnnnhooooo",
"                                ",
"SSSSSSSSSSSSSSSJISSN8IFSSSSSSSSS",
"SSSSSSSSSSSSSSSSSSSSS8BSSSSSSSSS",
"SSSSSSSPLSSSSSSSSSSSS8BSSSSSSSSS",
"SSSSSSyHGySSSSSSSSSSS8BSSSSSSSSS",
"SSSSSS<Vm<SSSSSSSSSSS8BSSSSSSSSS",
"SSSSSS8128SSSSSSSSSSSZASSSSSSSSS",
"SSSSSS85rZSSSSSSSSSSSSSSSSSSSSSS",
"SSSSSSe8tSSSSSSSSSSSSSSSSSSSSSSS",
"SSSSSSSwtSSSSSSSSSSSSSSSSSSSSSSS",
"SSSSSSSwtSSSSSSSSSSSSSSSSSSSSSSS",
"SSSSSSSwtSSSSSSSSSSSSSSSSSSSSSSS",
"SSSSSSSwtSSSSSSSSSSSSSSSSSSSSSSS",
"SSSSSSSSSSSSSSSSSSSSSSSSSSSSSSSS",
"SSSSSSSSSSSSSSSSSSSSSSSSSSSSSSSS",
"SSSSSSSSSSSSSSSSSSSSSSSSSSSSSSSS",
"SSSSSSSSSSSSSSSSSSSSSSSSSSSSSSSS",
"MMMMMMMMMMMMMMMMMMMMMMMMMMMMMMMM",
"88888888888888888888888888888888",
"88888888888888888<<<<886<<<<8888",
"88888888888888888O33388833:O8888",
"77544775477547754o77777777;o5777",
"<<+oo<<+o<<+o<<+oo<<<<<<<<-oo<<<",
"SSSAASSSASSSASSSA IKSSSSSI0 SSSS",
",,,>>,,,>,,,>,,,> q9,,,,,q# ,,,,"
};
