/* XPM */
static char *_adb1bb308744389ab5b9b6bdd2fc3be0USYOemq9gpAevlN[] = {
/* columns rows colors chars-per-pixel */
"64 64 3 1 ",
"  c #36832E",
". c #C0FF00",
"X c #00FEFF",
/* pixels */
"..                                                            ..",
"..                                                            ..",
"  XX                    ..                                  XX  ",
"  XX                    ..                                  XX  ",
"                        ....      ..                            ",
"                        ....      ..                            ",
"                        ............                            ",
"                        ............                            ",
"                      ....  ....  ..                            ",
"                      ....  ....  ..                            ",
"                      ..    ........                            ",
"                      ..    ........                            ",
"                      ....  ........                            ",
"                      ....  ........                            ",
"                        ......  ....                            ",
"                        ......  ....                            ",
"                        ........                                ",
"                        ........                                ",
"                                                                ",
"                                                                ",
"                        ........    ....                        ",
"                        ........    ....                        ",
"                        ..      ......                          ",
"                        ..      ......                          ",
"                        ..          ..                          ",
"                        ..          ..                          ",
"                        ..          ..                          ",
"                        ..          ..                          ",
"                        ..      ......                          ",
"                        ..      ......                          ",
"                        ..........  ..                          ",
"                        ..........  ..                          ",
"                      ....          ..                          ",
"                      ....          ..                          ",
"                      ..              ..                        ",
"                      ..              ..                        ",
"                      ..        ........                        ",
"                      ..        ........                        ",
"                      ..........      ..                        ",
"                      ..........      ..                        ",
"                    ....              ..                        ",
"                    ....              ..                        ",
"                      ..              ..                        ",
"                      ..              ..                        ",
"                      ..              ....                      ",
"                      ..              ....                      ",
"                    ..                  ..                      ",
"                    ..                  ..                      ",
"                    ......................                      ",
"                    ......................                      ",
"                                                                ",
"                                                                ",
"                                                                ",
"                                                                ",
"              ....  ......  ..  ..  ......  ..  ..              ",
"              ....  ......  ..  ..  ......  ..  ..              ",
"              ..    ..  ..  ..  ..    ..    ..  ..              ",
"              ..    ..  ..  ..  ..    ..    ..  ..              ",
"              ....  ..  ..  ..  ..    ..    ......              ",
"              ....  ..  ..  ..  ..    ..    ......              ",
"  XX            ..  ..  ..  ..  ..    ..    ..  ..          XX  ",
"  XX            ..  ..  ..  ..  ..    ..    ..  ..          XX  ",
"..            ....  ......  ......    ..    ..  ..            ..",
"..            ....  ......  ......    ..    ..  ..            .."
};
