/* XPM */
static char *_d1d1fc0c1564d54df46e3743c88f57fT7VmxrqDKfN63ksb[] = {
/* columns rows colors chars-per-pixel */
"64 64 158 2 ",
"   c #0F0F18",
".  c #0F101A",
"X  c #1B1517",
"o  c #11111B",
"O  c #171318",
"+  c #11121D",
"@  c #12141F",
"#  c #181318",
"$  c #1E1718",
"%  c #271B17",
"&  c #231918",
"*  c #211C1E",
"=  c #332218",
"-  c #0F1927",
";  c #111420",
":  c #131723",
">  c #141521",
",  c #131725",
"<  c #151724",
"1  c #141826",
"2  c #161B2B",
"3  c #171C2B",
"4  c #161C2C",
"5  c #191E2A",
"6  c #181E2F",
"7  c #191F31",
"8  c #192032",
"9  c #1D2233",
"0  c #1A2134",
"q  c #1E2336",
"w  c #1D2436",
"e  c #10273D",
"r  c #1C2338",
"t  c #1F2639",
"y  c #1F283D",
"u  c #2A262F",
"i  c #352B2E",
"p  c #21273B",
"a  c #21293D",
"s  c #252E3F",
"d  c #282D39",
"f  c #563517",
"g  c #5D3918",
"h  c #60341B",
"j  c #6B391C",
"k  c #773E1D",
"l  c #402E2D",
"z  c #46352C",
"x  c #4A372C",
"c  c #573C2A",
"v  c #603F29",
"b  c #654428",
"n  c #684328",
"m  c #764D26",
"M  c #0F304C",
"N  c #0F3C5E",
"B  c #222B41",
"V  c #242B41",
"C  c #232C43",
"Z  c #262F40",
"A  c #262E45",
"S  c #273043",
"D  c #283245",
"F  c #2D3646",
"G  c #2A344A",
"H  c #2B354F",
"J  c #323F4E",
"K  c #2B3650",
"L  c #2C3751",
"P  c #2D3853",
"I  c #2E3B55",
"U  c #2F3D57",
"Y  c #123960",
"T  c #334257",
"R  c #32415B",
"E  c #35455E",
"W  c #104B76",
"Q  c #3C4C61",
"!  c #3B4C66",
"~  c #3B4F68",
"^  c #3E4F69",
"/  c #3E526B",
"(  c #3F536C",
")  c #404D5B",
"_  c #42505D",
"`  c #44505D",
"'  c #475461",
"]  c #41516A",
"[  c #42556D",
"{  c #4C5A68",
"}  c #435770",
"|  c #455A73",
" . c #485E76",
".. c #4D5C74",
"X. c #4A6178",
"o. c #4D657C",
"O. c #50667E",
"+. c #53697E",
"@. c #8B5116",
"#. c #9B5A17",
"$. c #A1511D",
"%. c #AE5A1F",
"&. c #AD5D1F",
"*. c #B45F1F",
"=. c #BF5E1F",
"-. c #845424",
";. c #995023",
":. c #A45422",
">. c #A95820",
",. c #B15C20",
"<. c #C6651D",
"1. c #C9671D",
"2. c #DD7E19",
"3. c #E98416",
"4. c #ED8617",
"5. c #E78318",
"6. c #105B90",
"7. c #1074B8",
"8. c #1571BC",
"9. c #526A81",
"0. c #536C82",
"q. c #556D84",
"w. c #587187",
"e. c #597288",
"r. c #5B758B",
"t. c #5D758B",
"y. c #5D778D",
"u. c #60778D",
"i. c #657E94",
"p. c #668196",
"a. c #6E879B",
"s. c #6D879C",
"d. c #71899D",
"f. c #728BA0",
"g. c #738DA2",
"h. c #758EA1",
"j. c #7892A6",
"k. c #7D98AB",
"l. c #7F99AC",
"z. c #1398F0",
"x. c #8099AB",
"c. c #829BAE",
"v. c #829CB0",
"b. c #86A1B3",
"n. c #88A3B5",
"m. c #93ABBD",
"M. c #97AEBF",
"N. c #99AAB8",
"B. c #9BADBA",
"V. c #9FB3C1",
"C. c #A0B7C5",
"Z. c #A5BCC9",
"A. c #B2C6D3",
"S. c #B2C6D4",
"D. c #B7CBD7",
"F. c #BBCED9",
"G. c #BCCEDA",
"H. c #BFD1DC",
/* pixels */
"H.H.H.H.H.H.H.H.H.H.H.H.H.H.H.H.H.H.H.H.H.H.H.H.H.H.H.H.H.H.H.H.H.H.H.H.H.H.H.H.H.H.H.H.H.H.H.H.H.H.H.H.H.H.H.H.H.H.H.H.H.H.H.H.",
"H.H.H.H.H.H.H.H.H.H.H.H.H.H.H.H.H.H.H.H.H.H.H.H.H.H.H.H.H.H.H.H.H.H.H.H.H.H.H.H.H.H.H.H.H.H.H.H.H.H.H.H.H.H.H.H.H.H.H.H.H.H.H.H.",
"H.H.H.H.H.H.H.H.H.H.H.H.H.H.H.H.H.H.H.H.H.H.H.H.H.H.H.H.H.H.H.H.H.H.H.H.H.H.H.H.H.H.H.H.H.H.H.H.H.H.H.H.H.H.H.H.H.H.H.H.H.H.H.H.",
"H.H.H.H.H.H.H.H.H.H.H.H.H.H.H.H.H.H.H.H.H.H.H.H.H.H.H.H.H.H.H.H.H.H.H.H.H.H.H.H.H.H.H.H.H.H.H.H.H.H.H.H.H.H.H.H.H.H.H.H.H.H.H.H.",
"H.H.H.H.H.H.H.H.H.H.H.H.H.H.H.H.H.H.H.H.H.H.H.H.H.H.H.H.H.H.H.H.H.H.H.H.H.H.H.H.H.H.H.H.H.H.H.H.H.H.H.H.H.H.H.H.H.H.H.H.H.H.H.H.",
"H.H.H.H.H.H.H.H.H.H.H.H.H.H.H.H.H.H.H.H.H.H.H.H.H.H.H.H.H.H.H.H.H.H.H.H.H.H.H.H.H.H.H.H.H.H.H.H.H.H.H.H.H.H.H.H.H.H.H.H.H.H.H.H.",
"H.H.H.H.H.H.H.H.H.H.H.H.H.H.H.H.H.H.H.H.H.H.H.H.H.H.H.H.H.H.H.H.H.H.H.H.H.H.H.H.H.H.H.H.H.H.H.H.H.H.H.H.H.H.H.H.H.H.H.H.H.H.H.H.",
"G.G.G.G.G.G.G.G.G.G.F.N.L F.G.G.G.G.G.G.G.G.G.G.G.G.G.G.G.G.G.G.G.G.G.G.G.G.G.G.G.G.G.G.G.G.G.G.G.G.G.G.G.G.G.G.G.G.G.G.G.G.G.G.",
"H.H.H.H.H.H.H.H.H.H.H.B.P H.H.H.H.H.H.H.H.H.H.H.H.H.H.H.H.H.H.H.H.H.H.H.H.H.H.H.H.H.H.H.H.H.H.D.S.H.H.H.H.H.H.H.H.H.H.H.H.H.H.H.",
"H.H.H.H.H.H.H.H.H.H.H.B.P H.H.H.H.H.H.H.H.H.H.H.H.H.H.H.H.H.H.H.H.H.H.H.H.H.H.H.H.H.H.H.H.H.H.C.n.H.H.H.H.H.H.H.H.H.H.H.H.H.H.H.",
"H.H.H.H.H.H.n.Z.H.H.H.V.( H.H.H.H.H.H.H.H.H.H.H.H.H.H.H.H.H.H.H.H.H.H.H.H.H.H.H.H.H.H.H.H.H.n.n.n.r.n.n.n.n.A.H.H.H.H.H.H.H.H.H.",
"M.M.M.M.M.M.p.a.h.M.M.x.( M.M.M.M.M.M.M.M.M.M.M.M.M.M.M.M.M.M.M.M.M.M.M.M.M.M.M.M.M.M.M.M.M.n.n.n.r.+.u.n.n.m.M.M.M.M.M.M.M.M.M.",
"n.n.n.n.n.n.r.r.r.n.n.h.( n.n.n.n.n.n.n.n.n.n.n.n.n.n.n.n.n.n.n.n.n.n.n.n.n.n.n.n.n.n.n.n.n.n.n.n.r.( O.n.n.n.n.n.n.n.n.n.n.n.n.",
"r.r.r.r.e.( ( o.r.r.r.o.P r.r.r.r.r.r.r.r.r.r.r.r.r.r.r.r.r.r.r.r.r.r.r.r.r.r.r.r.r.r.r.r.r.r.g.n.r.r.0.( n.i.r.r.r.r.r.r.r.r.r.",
"r.r.r.r.e.( ( o.r.r.r.o.P r.r.r.r.r.r.r.r.r.r.r.r.r.r.r.r.r.r.r.r.r.r.r.r.r.r.r.r.r.r.r.r.r.r.r.r.r.r.r.r.( q.r.r.r.r.r.r.b.l.r.",
"r.r.r.r.e.( X.0.r.r.s.t.P r.r.r.r.r.r.r.r.r.r.r.r.r.r.r.r.r.r.r.r.r.r.r.r.r.r.r.r.r.r.r.r.r.r.r.r.r.r.r.r.( q.r.r.r.r.r.| f.a.| ",
"r.r.r.r.e.( r.r.r.r.b.d.P r.r.r.r.r.r.r.r.r.r.r.r.r.r.r.r.r.r.r.r.r.r.r.r.r.r.r.r.r.r.r.r.r.r.r.r.r.r.r.r.( q.r.r.r.r.r.P w.9.P ",
"r.r.r.r.e.( r.r.r.r.r.i.n.P O.r.r.r.r.r.r.r.r.r.r.r.r.r.r.r.r.r.r.r.r.r.r.r.r.r.r.r.r.r.r.r.r.r.r.r.r.r.r.( q.r.r.r.r.r.( I U ( ",
"r.r.r.r.e.( r.r.r.r.r.r.y.c.] I r.r.r.r.r.r.r.r.r.r.r.r.r.r.r.r.r.r.r.r.r.r.r.r.r.r.r.r.r.r.r.r.r.r.r.r.r.e.r.r.r.r.r.r.( / } e.",
"r.r.r.r.e.( r.r.r.r.r.r.r.v.] I +.r.r.r.r.r.r.r.r.r.r.r.r.r.r.r.r.r.r.r.r.r.r.r.r.r.r.r.r.r.r.r.r.r.r.r.r.r.r.r.r.r.r.r.[ ( | r.",
"r.r.r.r.e.( r.r.r.r.r.r.r.r.| (   r.r.r.r.r.r.r.r.r.r.r.r.r.r.r.r.r.r.r.r.r.r.r.r.r.r.r.r.r.r.r.r.r.r.r.r.r.r.r.r.r.r.r.r.[ | r.",
"r.r.r.r.e.( r.r.r.r.r.r.r.r.| ( r.  J r.r.r.r.r.r.r.r.r.r.r.r.r.r.r.r.r.r.r.r.r.r.r.r.r.r.r.r.r.r.r.r.r.r.r.r.r.r.r.r.r.r.[ | r.",
"r.r.r.r.e.( r.r.r.r.r.r.r.r.| ( r.a Q r.r.r.r.r.r.r.r.r.r.r.r.r.r.r.r.r.r.r.r.r.r.r.r.r.r.r.r.r.r.r.r.r.r.r.r.r.r.r.r.r.r.[ | r.",
"r.r.r.r.e.( r.r.r.r.r.r.r.r.| ( r.P [ r.r.r.r.r.r.r.r.r.r.r.r.r.r.r.r.r.r.r.r.r.r.r.r.r.r.r.r.r.r.r.r.r.r.r.r.r.r.r.r.r.r.[ | r.",
"r.r.r.r.r.r.r.r.r.r.r.r.r.r.r.r.r.P [ r.r.r.r.r.r.r.r.r.r.r.r.r.r.r.r.r.r.r.r.r.r.r.r.r.r.r.r.r.r.r.r.r.r.r.r.r.r.r.r.r.r.r.r.r.",
"r.r.r.r.r.r.r.r.r.r.r.r.r.r.r.r.r.P [ r.r.r.r.r.r.r.r.r.r.r.r.( e.r.r.r.r.r.r.r.r.r.r.r.r.r.r.r.r.r.r.r.r.r.r.r.r.r.r.r.r.r.r.r.",
"9.9.9.9.9.9.9.9.9.9.9.9.9.9.9.9.9.P ^ 9.9.9.9.9.9.9.9.9.9.9.9.( e.r.9.9.9.9.9.9.q.r.r.r.r.r.9.9.9.9.9.9.9.9.9.9.9.9.9.9.9.9.9.9.",
"( ( ( ( ( ( ( ( ( ( ( ( ( ( ( ( ( P E ( ( ( ( ( ( ( ( ( ( ( ( ( e.w.( ( ( ( ( (  .r.r.r.r.r.( ( ( ( ( ( ( ( ( ( ( ( ( ( ( ( ( ( ",
"( ( ( ( ( ( ( ( ( ( ( ( ( ( ( ( ( P E ( ( ( ( ( ( ( ( ( ( ( ( ( ( ( ( ( ( ( P P P P ( ( / P P P P ( ( ( ( ( ( ( ( ( ( ( ( ( ( ( ",
"( ( ( ( ( ( ( ( ( ( ( ( ( ( ( ( ( > D ( ( ( ( ( ( ( ( ( ( ( ( ( ( ( ( ( ( ( 0 ~ ~ ~ ( ( ( ~ ~ H 0 ( ( ( ( ( ( ( ( ( ( ( ( ( ( ( ",
"/ / / / / / / / / / / / / / / / /   s / / / / / / / / / / / / / / / / / / / 8 / / / / / / / / G 8 / / / / / / / / / / / / / / / ",
"P P P P P P P P P P P P P P P P P   9 P P P P P P P P P P P P P P P P P y 8 8 P P P P P P P P B 8 8 P P P P P P P P P P P P P P ",
"r.r.r.r.r.r.r.r.r.r.r.r.r.r.k.n.(   Z ( n.r.r.r.r.r.r.r.r.r.r.r.r.r.r.r.r.r.  n.j.r.r.r.r.r.n.`   r.r.r.r.r.r.r.r.r.r.r.r.r.r.r.",
"J J J J J J J J J J J J J J _ ' s   5 s ' J J J J J J J J J J J J J J J J J   ' ) J J J J J ' d   J J J J J J J J J J J J J J J ",
"                                                                                                                                ",
"      $.=.=.=.h           =.=.=.=.=.j           =.=.=.=.=.k           =.=.=.=.          # =.=.=.=.=.          O =.=.=.=.=.#     ",
"; 8 =.=.=.=.8 8 8 8 8 l =.=.=.=.=.8 8 8 8 8 i =.=.=.=.=.8 8 8 8 8 u =.=.=.=.8 8 8 8 8 :.=.=.=.=.=.8 8 8 8 8 ;.=.=.=.=.=.8 8 8 8 ",
"* x 1.1.<.;.8 8 8 8 x n 1.1.1.1.;.8 8 8 8 x v 1.1.1.1.;.8 8 8 8 z c 1.1.>.;.8 8 8 8 x *.1.1.1.%.;.8 8 8 8 x &.1.1.1.,.;.8 8 8 8 ",
"f 4.4.4.2.8 8 8 8 8 5.4.4.4.4.4.8 8 8 8 8 3.4.4.4.4.4.8 8 8 8 8 2.4.4.4.b 8 8 8 8 8 4.4.4.4.4.m 8 8 8 8 8 4.4.4.4.4.-.8 8 8 8 8 ",
"                                                                                                                                ",
"                    2 1                                 3 ;                         3 o                                 3   o 3 ",
"                    8 4                                 8 2                         8 +                                 8   + 8 ",
"                    L A                                 P t                         P >                                 P o + 8 ",
"    4.= $ 4.        / T                                 ( G       % 4.  #.4.        ( 1                                 ( + + 8 ",
"    @.& O @.        / T   > .   W       Y   - W   @ >   ( G       X @.  g @.        ( 1   >   M W   W N     ; >   > +   ( + + 8 ",
"                    / T   8 +   z.      8.. e z.  2 8   ( G                         ( 1   8   6.z.  z.7.    4 7   8 ,   ( + + 8 ",
"    8 + . 8   1 8   L A                                 P t   8 . o 8   2 8   8 2   P >                                 P o + 8 ",
"    H ; o H   q H   L A     2 6 6 6 6 6 6 6 6 6 6 +     P t   H + + H   p H   H a   P >     6 6 6 6 6 6 6 6 6 6 6       P o > H ",
"  o P > + P o t P   L A   + 8 t t t t t t t t t t 1 +   P t   P @ ; P   a P o P a   P >   + t t t t t t t t t t S + o   P o > P ",
"; 8 P > + P 8 C P   L A   P ! ( ( ( ( ( ( ( ( ( ( R P   P t   P 0 0 P   a P 8 P a   P > o P ( ( ( ( ( ( ( ( ( [ n.P q   P o > P ",
"                    L A   ( B 8                 8 R (   P t                         P > + ( 8 ;                 8 n.{   P o     ",
"< a a 4 2 a a 8 2   L A   R 6 ; 2 2 2 2 2 2 2 2 ; G R   P t   2 a a a 2 w a a 2 ;   P > o R ; , 2 2 2 2 2 2 2 2 ; ..F   P o o 2 ",
"3 P P r 0 P P B 8   L A   P 1   7 7 7 7 7 7 7 7   V P   P t   8 K P P 8 A P P 8 2   P > o P   1 7 7 7 7 7 7 7 7   P q   P o + 8 ",
"3 P P r 0 P P B 8   L A   P 1                     V P   P t   8 K P P 8 A P P 8 2   P > o P                       P q   P o + 8 ",
"3 P P r 0 P P B 8   7 2   P 1   8 8 8 8 8 8 8 8   V P   8 1   8 K P P 8 A P P 8 2   8 + o P   1 8 8 8 8 8 8 8 7   P q   8   + 8 ",
"1 B B 6 2 B B 8 2   2 <   P 1   2 2 2 2 2 2 2 2   V P   2 ;   2 a B B 2 w B B 2 ;   2 . o P   ; 2 2 2 2 2 2 2 2   P q   2   o 2 ",
"                          P 1                     V P                                   o P                       P q           ",
"3 P P P P P P B 8         8 +   8 8 8 8 8 8 8 8   2 8         8 K P P P P P P 8 2         8   1 8 8 8 8 8 8 8 7   8 ,       + 8 ",
"o ; ; ; ; ; ; + +         +     + + + + + + + +   . +     .   + ; ; ; ; ; ; ; + .         +   . + + + + + + + +   + .     .   + ",
"          .               .               .               .                               .               .               .     ",
"                                                                                                                                ",
"; 8 8 8 8 8 8 8 8 8 8 8 8 8 8 8 8 8 8 8 8 8 8 8 8 8 8 8 8 8 8 8 8 8 8 8 8 8 8 8 8 8 8 8 8 8 8 8 8 8 8 8 8 8 8 8 8 8 8 8 8 8 8 8 ",
"o ; ; ; ; ; ; ; ; ; ; ; ; ; ; ; ; ; ; ; ; ; ; ; ; ; ; ; ; ; ; ; ; ; ; ; ; ; ; ; ; ; ; ; ; ; ; ; ; ; ; ; ; ; ; ; ; ; ; ; ; ; ; ; ",
"                                                                                                                                "
};
