/* XPM */
static char *beff6f9c9e5a4ad9f79a8eae25f14004MknAWBoLxXf7G6gD[] = {
/* columns rows colors chars-per-pixel */
"64 64 4 1 ",
"  c red",
". c #C0FF00",
"X c #FFFB00",
"o c #00FEFF",
/* pixels */
"..                                                            ..",
"..                                                            ..",
"  oo                XXXXXX                XX                oo  ",
"  oo                XXXXXX                XX                oo  ",
"                  XXXXXXXXXXXX        XX  XX                    ",
"                  XXXXXXXXXXXX        XX  XX                    ",
"              XXXXXXXXXXXXXXXXXX        XX  XX                  ",
"              XXXXXXXXXXXXXXXXXX        XX  XX                  ",
"        XX      XXXXXXXXXXXXXXXX        XXXXXX                  ",
"        XX      XXXXXXXXXXXXXXXX        XXXXXX                  ",
"        XXXX        XXXXXXXXXX        XX                        ",
"        XXXX        XXXXXXXXXX        XX                        ",
"      XXXXXXXXXX    XXXXXXXXXX        XX                        ",
"      XXXXXXXXXX    XXXXXXXXXX        XX                        ",
"        XX    XXXXXXXXXXXXXX          XX                        ",
"        XX    XXXXXXXXXXXXXX          XX                        ",
"                  XXXXXXXXXXXX        XX                        ",
"                  XXXXXXXXXXXX        XX                        ",
"      XX        XXXXXXXXXXXXXXXX      XXXX                      ",
"      XX        XXXXXXXXXXXXXXXX      XXXX                      ",
"      XXXX  XXXXXXXXXXXXXXXXXXXXXXXXXXXXXXXX                    ",
"      XXXX  XXXXXXXXXXXXXXXXXXXXXXXXXXXXXXXX                    ",
"        XXXXXXXX      XXXXXXXXXXXXXXXXXXXXXX                    ",
"        XXXXXXXX      XXXXXXXXXXXXXXXXXXXXXX                    ",
"      XXXX  XX      XXXXXXXX  XXXXXXXXXX                        ",
"      XXXX  XX      XXXXXXXX  XXXXXXXXXX                        ",
"                  XXXXXXXX      XXXX                            ",
"                  XXXXXXXX      XXXX                            ",
"                  XXXXXX        XXXX                            ",
"                  XXXXXX        XXXX                            ",
"                    XXXXXXXX    XXXX  XXXXXX                    ",
"                    XXXXXXXX    XXXX  XXXXXX                    ",
"                      XXXXXX    XXXXXXXXXX                      ",
"                      XXXXXX    XXXXXXXXXX                      ",
"                      XXXX            XXXX                      ",
"                      XXXX            XXXX                      ",
"                    XXXXXX            XXXX                      ",
"                    XXXXXX            XXXX                      ",
"                                    XXXXXX                      ",
"                                    XXXXXX                      ",
"                                                                ",
"                                                                ",
"          XX          XX                                        ",
"          XX          XX                                        ",
"          XX          XX                                        ",
"          XX          XX                                        ",
"          XX    XX  XX    XXXX  XXXXXX  XXXXXXXXXX              ",
"          XX    XX  XX    XXXX  XXXXXX  XXXXXXXXXX              ",
"          XX  XXXX  XX  XX        XX      XX                    ",
"          XX  XXXX  XX  XX        XX      XX                    ",
"          XX  XXXXXX    XXXX        XX    XX                    ",
"          XX  XXXXXX    XXXX        XX    XX                    ",
"          XXXX  XXXX  XX            XX    XX                    ",
"          XXXX  XXXX  XX            XX    XX                    ",
"          XX    XX    XXXXXXXX  XXXX      XX                    ",
"          XX    XX    XXXXXXXX  XXXX      XX                    ",
"                                                                ",
"                                                                ",
"                                                                ",
"                                                                ",
"  oo                                                        oo  ",
"  oo                                                        oo  ",
"..                                                            ..",
"..                                                            .."
};
