/* XPM */
static char *result[] = {
/* columns rows colors chars-per-pixel */
"128 128 19 1 ",
"  c #0F0F18",
". c #0F1019",
"X c #101019",
"o c #192032",
"O c #2D3853",
"+ c #3F536C",
"@ c #40536C",
"# c #BE5F1F",
"$ c #BF5F1F",
"% c #EB8617",
"& c #EC8617",
"* c #5B758B",
"= c #5C758B",
"- c #919A9D",
"; c #88A2B4",
": c #88A3B5",
"> c #BDD1DB",
", c #BED2DC",
"< c #E0ECF0",
/* pixels */
"    ***:::.                                                                                                           :::***    ",
"    ++++++                                                                                                            ++++++    ",
"    ++++++                                                                                                            ++++++    ",
"    ++++++                                                                                                            ++++++    ",
"    ++++++   oooooooooooooooooooooooooooooooooooooooooooooooooooooooooooooooooooooooooooooooooooooooooooooooooooooo   ++++++    ",
"    ++++++   oooooooooooooooooooooooooooooooooooooooooooooooooooooooooooooooooooooooooooooooooooooooooooooooooooooo   ++++++    ",
"    ++++++   oooooooooooooooooooooooooooooooooooooooooooooooooooooooooooooooooooooooooooooooooooooooooooooooooooooo   ++++++    ",
"    ++++++   OOO***::::::,,,,,,,,,,,,,,,,,,,,,,,,<<<<<<ooo:::<<<<<<<<<,,,,,,,,,,,,,,,,,,,,,,,,,,,,,,,,,::::::***OOO   ++++++    ",
"    ++++++   OOO***::::::,,,,,,,,,,,,,,,,,,,,,,,,<<<<<<ooo:::<<<<<<<<<,,,,,,,,,,,,,,,,,,,,,,,,,,,,,,,,,::::::***OOO   ++++++    ",
"    ++++++   OOO***::::::,,,,,,,,,,,,,,,,,,,,,,,,<<<<<<ooo:::<<<<<<<<<,,,,,,,,,,,,,,,,,,,,,,,,,,,,,,,,,::::::***OOO   ++++++    ",
"    ++++++   oooOOOOOOOOOOOOOOOOOOOOOOOOOOOOOOOOO***,,,ooo:::***OOOOOOOOOOOOOOOOOOOOOOOOOOOOOOOOOOOOOOOOOOOOOOOOooo   ++++++    ",
"    ++++++   oooOOOOOOOOOOOOOOOOOOOOOOOOOOOOOOOOO***,,,ooo:::***OOOOOOOOOOOOOOOOOOOOOOOOOOOOOOOOOOOOOOOOOOOOOOOOooo   ++++++    ",
"    ++++++   oooOOOOOOOOOOOOOOOOOOOOOOOOOOOOOOOOO***,,,ooo:::***OOOOOOOOOOOOOOOOOOOOOOOOOOOOOOOOOOOOOOOOOOOOOOOOooo   ++++++    ",
"    ++++++   ooooooooooooooooooooooooooooooooooooooo,,,ooo:::oooooooooooooooooooooooooooooooooooooooooooooooooooooo   ++++++    ",
"    ++++++   ooooooooooooooooooooooooooooooooooooooo,,,ooo:::oooooooooooooooooooooooooooooooooooooooooooooooooooooo   ++++++    ",
"    ++++++   ooooooooooooooooooooooooooooooooooooooo,,,ooo:::oooooooooooooooooooooooooooooooooooooooooooooooooooooo   ++++++    ",
"    ++++++   ooooooooooooooooooooooooooooooooooooooo,,,ooo:::oooooooooooooooooooooooooooooooooooooooooooooooooooooo   ,,,:::    ",
"    ++++++   ooooooooooooooooooooooooooooooooooooooo,,,ooo:::oooooooooooooooooooooooooooooooooooooooooooooooooooooo   ,,,:::    ",
"    ++++++   ooooooooooooooooooooooooooooooooooooooo,,,ooo:::oooooooooooooooooooooooooooooooooooooooooooooooooooooo   ,,,:::    ",
"    :::,,,X  oooOOOOOOOOOOOOOOOOOOOOOOOOOOOOOOOOO***,,,ooo:::***OOOOOOOOOOOOOOOOOOOOOOOOOOOOOOOOOOOOOOOOOOOOOOOOooo   ++++++    ",
"    :::,,,X  oooOOOOOOOOOOOOOOOOOOOOOOOOOOOOOOOOO***,,,ooo:::***OOOOOOOOOOOOOOOOOOOOOOOOOOOOOOOOOOOOOOOOOOOOOOOOooo   ++++++    ",
"    :::,,,X  oooOOOOOOOOOOOOOOOOOOOOOOOOOOOOOOOOO***,,,ooo:::***OOOOOOOOOOOOOOOOOOOOOOOOOOOOOOOOOOOOOOOOOOOOOOOOooo   ++++++    ",
"    ++++++   OOO***::::::,,,,,,,,,,,,,,,,,,,,,,,,<<<<<<ooo:::<<<<<<<<<,,,,,,,,,,,,,,,,,,,,,,,,,,,,,,,,,::::::***OOO   oooooo    ",
"    ++++++   OOO***::::::,,,,,,,,,,,,,,,,,,,,,,,,<<<<<<ooo:::<<<<<<<<<,,,,,,,,,,,,,,,,,,,,,,,,,,,,,,,,,::::::***OOO   oooooo    ",
"    ++++++   OOO***::::::,,,,,,,,,,,,,,,,,,,,,,,,<<<<<<ooo:::<<<<<<<<<,,,,,,,,,,,,,,,,,,,,,,,,,,,,,,,,,::::::***OOO   oooooo    ",
"    oooooo   OOO+++:::::::::::::::::::::::::::::::::***ooo***::::::::::::::::::::::::::::::::::::::::::::::::+++OOO   oooooo    ",
"    oooooo   OOO+++:::::::::::::::::::::::::::::::::***ooo***::::::::::::::::::::::::::::::::::::::::::::::::+++OOO   oooooo    ",
"    oooooo   OOO+++:::::::::::::::::::::::::::::::::***ooo***::::::::::::::::::::::::::::::::::::::::::::::::+++OOO   oooooo    ",
"    oooooo   ooooooooooooOOOOOOOOOOOOOOOOOOOOOooooooooooooooooooOOOOOOOOOOOOOOOOOOOOOOOOOOOOOOOOOOOOOOOoooooooooooo   OOOOOO    ",
"    oooooo   ooooooooooooOOOOOOOOOOOOOOOOOOOOOooooooooooooooooooOOOOOOOOOOOOOOOOOOOOOOOOOOOOOOOOOOOOOOOoooooooooooo   OOOOOO    ",
"    oooooo   ooooooooooooOOOOOOOOOOOOOOOOOOOOOooooooooooooooooooOOOOOOOOOOOOOOOOOOOOOOOOOOOOOOOOOOOOOOOoooooooooooo   OOOOOO    ",
"    OOOOOO   ooo++++++***************************OOO***ooo+++*********************************************++++++ooo   OOOOOO    ",
"    OOOOOO   ooo++++++***************************OOO***ooo+++*********************************************++++++ooo   OOOOOO    ",
"    OOOOOO   ooo++++++***************************OOO***ooo+++*********************************************++++++ooo   OOOOOO    ",
"    OOOOOO   ooo++++++***************************OOO***ooo+++*********************************************++++++ooo   OOOOOO    ",
"    OOOOOO   ooo++++++***************************OOO***ooo+++*********************************************++++++ooo   OOOOOO    ",
"    OOOOOO   ooo++++++***************************OOO***ooo+++*********************************************++++++ooo   OOOOOO    ",
"    OOOOOO   ooo++++++***************************+++***ooo+++*********************%&&*********************++++++ooo   OOOOOO    ",
"    OOOOOO   ooo++++++***************************+++***ooo+++*********************%&&*********************++++++ooo   OOOOOO    ",
"    OOOOOO   ooo++++++***************************+++***ooo+++*********************%&&*********************++++++ooo   OOOOOO    ",
"    OOOOOOooooooOOOOOOOOO************************+++***ooo+++******************%&&&&&&&&***************OOOOOOOOOooooooOOOOOO    ",
"    OOOOOOooooooOOOOOOOOO************************+++***ooo+++******************%&&&&&&&&***************OOOOOOOOOooooooOOOOOO    ",
"    OOOOOOooooooOOOOOOOOO************************+++***ooo+++******************%&&&&&&&&***************OOOOOOOOOooooooOOOOOO    ",
"    OOOOOOoooooo***:::*********************************ooo+++***************&&&&&&=**&&&&&&***************:::***ooooooOOOOOO    ",
"    OOOOOOoooooo***:::*********************************ooo+++***************&&&&&&=**&&&&&&***************:::***ooooooOOOOOO    ",
"    OOOOOOoooooo***:::*********************************ooo+++***************&&&&&&=**&&&&&&***************:::***ooooooOOOOOO    ",
"    OOOOOOoooOOO***:::*********************************oooOOO************&&&&&&=********&&&&&&************:::***OOOoooOOOOOO    ",
"    OOOOOOoooOOO***:::*********************************oooOOO************&&&&&&=********&&&&&&************:::***OOOoooOOOOOO    ",
"    OOOOOOoooOOO***:::*********************************oooOOO************&&&&&&=********&&&&&&************:::***OOOoooOOOOOO    ",
"    OOOOOOoooOOOOOOOOO+++***************************:::oooOOO************&&&&&&&&&&&&&&&&&&&&&*********+++OOOOOOOOOoooOOOOOO    ",
"    OOOOOOoooOOOOOOOOO+++***************************:::oooOOO************&&&&&&&&&&&&&&&&&&&&&*********+++OOOOOOOOOoooOOOOOO    ",
"    OOOOOOoooOOOOOOOOO+++***************************:::oooOOO************&&&&&&&&&&&&&&&&&&&&&*********+++OOOOOOOOOoooOOOOOO    ",
"    OOOOOOoooOOOOOO+++******************************:::ooo:::OOO******************************************+++OOOOOOoooOOOOOO    ",
"    OOOOOOoooOOOOOO+++******************************:::ooo:::OOO******************************************+++OOOOOOoooOOOOOO    ",
"    OOOOOOoooOOOOOO+++******************************:::ooo:::OOO******************************************+++OOOOOOoooOOOOOO    ",
"    OOOOOOoooOOO++++++*********************************:::ooo;::OOO******:::::::::::::::::::::************++++++OOOoooOOOOOO    ",
"    OOOOOOoooOOO++++++*********************************:::ooo;::OOO******:::::::::::::::::::::************++++++OOOoooOOOOOO    ",
"    OOOOOOoooOOO++++++*********************************:::ooo;::OOO******:::::::::::::::::::::************++++++OOOoooOOOOOO    ",
"    OOOOOOoooOOO++++++*********************************+++:::ooo;::OOO************************************++++++OOOoooOOOOOO    ",
"    OOOOOOoooOOO++++++*********************************+++:::ooo;::OOO************************************++++++OOOoooOOOOOO    ",
"    OOOOOOoooOOO++++++*********************************+++:::ooo;::OOO************************************++++++OOOoooOOOOOO    ",
"    OOOOOO   OOO++++++************************************+++:::ooo:::OOO*********************************++++++OOO   OOOOOO    ",
"    OOOOOO   OOO++++++************************************+++:::ooo:::OOO*********************************++++++OOO   OOOOOO    ",
"    OOOOOO   OOO++++++************************************+++:::ooo:::OOO*********************************++++++OOO   OOOOOO    ",
"    OOOOOO   OOO++++++***************************************OOO>,,ooo,,,OOO******************************++++++OOO   OOOOOO    ",
"    OOOOOO   OOO++++++***************************************OOO>,,ooo,,,OOO******************************++++++OOO   OOOOOO    ",
"    OOOOOO   OOO++++++***************************************OOO>,,ooo,,,OOO******************************++++++OOO   OOOOOO    ",
"ooooOOOOOO   OOO++++++******************************************OOO,,,ooo+++******************************++++++OOO   OOOOOOoooo",
"ooooOOOOOO   OOO++++++******************************************OOO,,,ooo+++******************************++++++OOO   OOOOOOoooo",
"ooooOOOOOO   OOO++++++******************************************OOO,,,ooo+++******************************++++++OOO   OOOOOOoooo",
"ooooOOOOOO   ooo++++++*********************************:::******+++,,,ooo+++*********:::******************++++++ooo   OOOOOOoooo",
"ooooOOOOOO   ooo++++++*********************************:::******+++,,,ooo+++*********:::******************++++++ooo   OOOOOOoooo",
"ooooOOOOOO   ooo++++++*********************************:::******+++,,,ooo+++*********:::******************++++++ooo   OOOOOOoooo",
"    OOOOOO   ooo++++++******************************::::::******+++,,,ooo+++*********::::::***************++++++ooo   OOOOOO    ",
"    OOOOOO   ooo++++++******************************::::::******+++,,,ooo+++*********::::::***************++++++ooo   OOOOOO    ",
"    OOOOOO   ooo++++++******************************::::::******+++,,,ooo+++*********::::::***************++++++ooo   OOOOOO    ",
"    OOOOOO   ooo++++++***************************:::::::::******+++,,,ooo+++*********:::::::::************++++++ooo   OOOOOO    ",
"    OOOOOO   ooo++++++***************************:::::::::******+++,,,ooo+++*********:::::::::************++++++ooo   OOOOOO    ",
"    OOOOOO   ooo++++++***************************:::::::::******+++,,,ooo+++*********:::::::::************++++++ooo   OOOOOO    ",
"    OOOOOO   ooo++++++******************************::::::******+++:::ooo+++*********::::::***************++++++ooo   OOOOOO    ",
"    OOOOOO   ooo++++++******************************::::::******+++:::ooo+++*********::::::***************++++++ooo   OOOOOO    ",
"    OOOOOO   ooo++++++******************************::::::******+++:::ooo+++*********::::::***************++++++ooo   OOOOOO    ",
"    OOOOOO   oooOOO+++*********************************:::******+++:::ooo+++*********:::******************+++OOOooo   OOOOOO    ",
"    OOOOOO   oooOOO+++*********************************:::******+++:::ooo+++*********:::******************+++OOOooo   OOOOOO    ",
"    OOOOOO   oooOOO+++*********************************:::******+++:::ooo+++*********:::******************+++OOOooo   OOOOOO    ",
"    oooooo   oooOOOOOO+++***************************************+++***ooo+++***************************+++OOOOOOooo   oooooo    ",
"    oooooo   oooOOOOOO+++***************************************+++***ooo+++***************************+++OOOOOOooo   oooooo    ",
"    oooooo   oooOOOOOO+++***************************************+++***ooo+++***************************+++OOOOOOooo   oooooo    ",
"    oooooo   ooo***:::******:::::::::::::::::::::::::::::::::***+++***ooo+++***:::::::::::::::::::::******:::***ooo   oooooo    ",
"    oooooo   ooo***:::******:::::::::::::::::::::::::::::::::***+++***ooo+++***:::::::::::::::::::::******:::***ooo   oooooo    ",
"    oooooo   ooo***:::******:::::::::::::::::::::::::::::::::***+++***ooo+++***:::::::::::::::::::::******:::***ooo   oooooo    ",
"    oooooo   ooo***:::******************************************+++***ooo+++******************************:::***ooo   oooooo    ",
"    oooooo   ooo***:::******************************************+++***ooo+++******************************:::***ooo   oooooo    ",
"    oooooo   ooo***:::******************************************+++***ooo+++******************************:::***ooo   oooooo    ",
"    oooooo   ooooooOOO+++******------******------******------***+++***ooo+++***------******------******+++OOOoooooo   oooooo    ",
"    oooooo   ooooooOOO+++******------******------******------***+++***ooo+++***------******------******+++OOOoooooo   oooooo    ",
"    oooooo   ooooooOOO+++******------******------******------***+++***ooo+++***------******------******+++OOOoooooo   oooooo    ",
"    oooooo   ooo++++++******------******------******------******OOO***oooOOO******------******------******++++++ooo   oooooo    ",
"    oooooo   ooo++++++******------******------******------******OOO***oooOOO******------******------******++++++ooo   oooooo    ",
"    oooooo   ooo++++++******------******------******------******OOO***oooOOO******------******------******++++++ooo   oooooo    ",
"    oooooo   ooo++++++******************************************OOO***oooOOO******************************++++++      oooooo    ",
"    oooooo   ooo++++++******************************************OOO***oooOOO******************************++++++      oooooo    ",
"    oooooo   ooo++++++******************************************OOO***oooOOO******************************++++++      oooooo    ",
"    oooooo      +++******************************************+++OOO***   OOO+++******************************+++      oooooo    ",
"    oooooo      +++******************************************+++OOO***   OOO+++******************************+++      oooooo    ",
"    oooooo      +++******************************************+++OOO***   OOO+++******************************+++      oooooo    ",
"    oooooo   +++   oooOOOOOOOOOOOOOOOOOOOOOOOOOOOOOOOOOooooooooooooooo   oooooooooooooooOOOOOOOOOOOOOOOOOOOOO   +++   oooooo    ",
"    oooooo   +++   oooOOOOOOOOOOOOOOOOOOOOOOOOOOOOOOOOOooooooooooooooo   oooooooooooooooOOOOOOOOOOOOOOOOOOOOO   +++   oooooo    ",
"    oooooo   +++   oooOOOOOOOOOOOOOOOOOOOOOOOOOOOOOOOOOooooooooooooooo   oooooooooooooooOOOOOOOOOOOOOOOOOOOOO   +++   oooooo    ",
"    ooooooooo++++++   +++++++++******************************+++OOOOOO   OOOOOO+++***************++++++      ++++++ooooooooo    ",
"    ooooooooo++++++   +++++++++******************************+++OOOOOO   OOOOOO+++***************++++++      ++++++ooooooooo    ",
"    ooooooooo++++++   +++++++++******************************+++OOOOOO   OOOOOO+++***************++++++      ++++++ooooooooo    ",
"    oooooooooooo+++OOO   OOO++++++++++++++++++++++++++++++++++++OOOooo   oooOOO+++++++++++++++++++++OOO   OOO+++oooooooooooo    ",
"    oooooooooooo+++OOO   OOO++++++++++++++++++++++++++++++++++++OOOooo   oooOOO+++++++++++++++++++++OOO   OOO+++oooooooooooo    ",
"    oooooooooooo+++OOO   OOO++++++++++++++++++++++++++++++++++++OOOooo   oooOOO+++++++++++++++++++++OOO   OOO+++oooooooooooo    ",
"       ooooooooooooOOO         oooooooooooooooooooooooooooooooooooooooooooooooooooooooooooooooooo         OOOoooooooooooo       ",
"       ooooooooooooOOO         oooooooooooooooooooooooooooooooooooooooooooooooooooooooooooooooooo         OOOoooooooooooo       ",
"       ooooooooooooOOO         oooooooooooooooooooooooooooooooooooooooooooooooooooooooooooooooooo         OOOoooooooooooo       ",
"          oooooooooooo   OOO++++++++++++++++++++++++++++++++++++++++++++++++++++++++++++++++++++++++OOO   oooooooooooo          ",
"          oooooooooooo   OOO++++++++++++++++++++++++++++++++++++++++++++++++++++++++++++++++++++++++OOO   oooooooooooo          ",
"          oooooooooooo   OOO++++++++++++++++++++++++++++++++++++++++++++++++++++++++++++++++++++++++OOO   oooooooooooo          ",
"             oooooo   OOO++++++$$$$$$++++++$$$$$$++++++$$$$$$@+++++$$$$$$++++++#$$$$$++++++$$$$$$@+++++OOO   oooooo             ",
"             oooooo   OOO++++++$$$$$$++++++$$$$$$++++++$$$$$$@+++++$$$$$$++++++#$$$$$++++++$$$$$$@+++++OOO   oooooo             ",
"             oooooo   OOO++++++$$$$$$++++++$$$$$$++++++$$$$$$@+++++$$$$$$++++++#$$$$$++++++$$$$$$@+++++OOO   oooooo             ",
"    ooo   OOOOOO++++++++++++#$$$$$++++++$$$$$$@+++++$$$$$$++++++++++++$$$$$$++++++#$$$$$++++++$$$$$$++++++++++++OOOOOO   ooo    ",
"    ooo   OOOOOO++++++++++++#$$$$$++++++$$$$$$@+++++$$$$$$++++++++++++$$$$$$++++++#$$$$$++++++$$$$$$++++++++++++OOOOOO   ooo    ",
"    ooo   OOOOOO++++++++++++#$$$$$++++++$$$$$$@+++++$$$$$$++++++++++++$$$$$$++++++#$$$$$++++++$$$$$$++++++++++++OOOOOO   ooo    ",
"    ooooooOOOOOOOOO++++++++++++++++++++++++++++++++++++++++++++++++++++++++++++++++++++++++++++++++++++++++++OOOOOOOOOoooooo    "
};
