/* XPM */
static char *result[] = {
/* columns rows colors chars-per-pixel */
"128 128 8 1 ",
"  c #0F0F18",
". c #192032",
"X c #2D3853",
"o c #3F536C",
"O c #BF5F1F",
"+ c #5B758B",
"@ c #88A3B5",
"# c #BED2DC",
/* pixels */
"    +++@@@   XXXXXXXXXXXXXXXXXXXXXXXXXXXXXXXXXXXXXXXXXXXXXXXXXXXXXXXXXXXXXXXXXXXXXXXXXXXXXXXXXXXXXXXXXXXXXXXXXXXXXX   @@@+++    ",
"    oooooo   XXXXXXXXXXXXXXXXXXXXXXXXXXXXXXXXXXXXXXXXXXXXXXXXXXXXXXXXXXXXXXXXXXXXXXXXXXXXXXXXXXXXXXXXXXXXXXXXXXXXXX   oooooo    ",
"    oooooo   XXXXXXXXXXXXXXXXXXXXXXXXXXXXXXXXXXXXXXXXXXXXXXXXXXXXXXXXXXXXXXXXXXXXXXXXXXXXXXXXXXXXXXXXXXXXXXXXXXXXXX   oooooo    ",
"    oooooo   XXXXXXXXXXXXXXXXXXXXXXXXXXXXXXXXXXXXXXXXXXXXXXXXXXXXXXXXXXXXXXXXXXXXXXXXXXXXXXXXXXXXXXXXXXXXXXXXXXXXXX   oooooo    ",
"    oooooo   XXXXXXXXXXXXXXXXXXXXXXXXXXXXXXXXXXXXXXXXXXXXXXXXXXXXXXXXXXXXXXXXXXXXXXXXXXXXXXXXXXXXXXXXXXXXXXXXXXXXXX   oooooo    ",
"    oooooo   XXXXXXXXXXXXXXXXXXXXXXXXXXXXXXXXXXXXXXXXXXXXXXXXXXXXXXXXXXXXXXXXXXXXXXXXXXXXXXXXXXXXXXXXXXXXXXXXXXXXXX   oooooo    ",
"    oooooo   XXXXXXXXXXXXXXXXXXXXXXXXXXXXXXXXXXXXXXXXXXXXXXXXXXXXXXXXXXXXXXXXXXXXXXXXXXXXXXXXXXXXXXXXXXXXXXXXXXXXXX   oooooo    ",
"    oooooo   XXXXXXXXXXXXXXXXXXXXXXXXXXXXXXXXXXXXXXXXXXXXXXXXXXXXXXXXXXXXXXXXXXXXXXXXXXXXXXXXXXXXXXXXXXXXXXXXXXXXXX   oooooo    ",
"    oooooo   XXXXXXXXXXXXXXXXXXXXXXXXXXXXXXXXXXXXXXXXXXXXXXXXXXXXXXXXXXXXXXXXXXXXXXXXXXXXXXXXXXXXXXXXXXXXXXXXXXXXXX   oooooo    ",
"    oooooo   XXXXXXXXXXXXXXXXXXXXXXXXXXXXXXXXXXXXXXXXXXXXXXXXXXXXXXXXXXXXXXXXXXXXXXXXXXXXXXXXXXXXXXXXXXXXXXXXXXXXXX   oooooo    ",
"    oooooo   XXXXXXXXXXXXXXXXXXXXXXXXXXXXXXXXXXXXXXXXXXXXXXXXXXXXXXXXXXXXXXXXXXXXXXXXXXXXXXXXXXXXXXXXXXXXXXXXXXXXXX   oooooo    ",
"    oooooo   XXXXXXXXXXXXXXXXXXXXXXXXXXXXXXXXXXXXXXXXXXXXXXXXXXXXXXXXXXXXXXXXXXXXXXXXXXXXXXXXXXXXXXXXXXXXXXXXXXXXXX   oooooo    ",
"    oooooo   XXXXXXXXXXXXXXXXXXXXXXXXXXXXXXXXXXXXXXXXXXXXXXXXXXXXXXXXXXXXXXXXXXXXXXXXXXXXXXXXXXXXXXXXXXXXXXXXXXXXXX   oooooo    ",
"    oooooo   XXXXXXXXXXXXXXXXXXXXXXXXXXXXXXXXXXXXXXXXXXXXXXXXXXXXXXXXXXXXXXXXXXXXXXXXXXXXXXXXXXXXXXXXXXXXXXXXXXXXXX   oooooo    ",
"    oooooo   XXXXXXXXXXXXXXXXXXXXXXXXXXXXXXXXXXXXXXXXXXXXXXXXXXXXXXXXXXXXXXXXXXXXXXXXXXXXXXXXXXXXXXXXXXXXXXXXXXXXXX   oooooo    ",
"    oooooo   XXXXXXXXXXXXXXXXXXXXXXXXXXXXXXXXXXXXXXXXXXXXXXXXXXXXXXXXXXXXXXXXXXXXXXXXXXXXXXXXXXXXXXXXXXXXXXXXXXXXXX   oooooo    ",
"    oooooo   XXXXXXXXXXXXXXXXXXXXXXXXXXXXXXXXXXXXXXXXXXXXXXXXXXXXXXXXXXXXXXXXXXXXXXXXXXXXXXXXXXXXXXXXXXXXXXXXXXXXXX   ###@@@    ",
"    oooooo   XXXXXXXXXXXXXXXXXXXXXXXXXXXXXXXXXXXXXXXXXXXXXXXXXXXXXXXXXXXXXXXXXXXXXXXXXXXXXXXXXXXXXXXXXXXXXXXXXXXXXX   ###@@@    ",
"    oooooo   XXXXXXXXXXXXXXXXXXXXXXXXXXXXXXXXXXXXXXXXXXXXXXXXXXXXXXXXXXXXXXXXXXXXXXXXXXXXXXXXXXXXXXXXXXXXXXXXXXXXXX   ###@@@    ",
"    @@@###   XXXXXXXXXXXXXXXXXXXXXXXXXXXXXXXXXXXXXXXXXXXXXXXXXXXXXXXXXXXXXXXXXXXXXXXXXXXXXXXXXXXXXXXXXXXXXXXXXXXXXX   oooooo    ",
"    @@@###   XXXXXXXXXXXXXXXXXXXXXXXXXXXXXXXXXXXXXXXXXXXXXXXXXXXXXXXXXXXXXXXXXXXXXXXXXXXXXXXXXXXXXXXXXXXXXXXXXXXXXX   oooooo    ",
"    @@@###   XXXXXXXXXXXXXXXXXXXXXXXXXXXXXXXXXXXXXXXXXXXXXXXXXXXXXXXXXXXXXXXXXXXXXXXXXXXXXXXXXXXXXXXXXXXXXXXXXXXXXX   oooooo    ",
"    oooooo   XXXXXXXXXXXXoooooooooooooooooooooXXXXXXXXXXXXXXXXXXXXXXXXXXXXXXXXXXXXXXXXXXXXXXXXXXXXXXXXXXXXXXXXXXXXX   ......    ",
"    oooooo   XXXXXXXXXXXXoooooooooooooooooooooXXXXXXXXXXXXXXXXXXXXXXXXXXXXXXXXXXXXXXXXXXXXXXXXXXXXXXXXXXXXXXXXXXXXX   ......    ",
"    oooooo   XXXXXXXXXXXXoooooooooooooooooooooXXXXXXXXXXXXXXXXXXXXXXXXXXXXXXXXXXXXXXXXXXXXXXXXXXXXXXXXXXXXXXXXXXXXX   ......    ",
"    ......            .................................XXXXXX........................XXX..................            ......    ",
"    ......            .................................XXXXXX........................XXX..................            ......    ",
"    ......            .................................XXXXXX........................XXX..................            ......    ",
"    ......   ooooooooooooooooooooooooooooooooooooooooooooooooooooooXXXooooooooooooXXXXXXooooooooooooooooooooooooooo   XXXXXX    ",
"    ......   ooooooooooooooooooooooooooooooooooooooooooooooooooooooXXXooooooooooooXXXXXXooooooooooooooooooooooooooo   XXXXXX    ",
"    ......   ooooooooooooooooooooooooooooooooooooooooooooooooooooooXXXooooooooooooXXXXXXooooooooooooooooooooooooooo   XXXXXX    ",
"    XXXXXX   ooooooooooooooooooooooooooooooooooooooooooooooooooooooXXXooooooooooooooooooooooooooooooooooooooooooooo   XXXXXX    ",
"    XXXXXX   ooooooooooooooooooooooooooooooooooooooooooooooooooooooXXXooooooooooooooooooooooooooooooooooooooooooooo   XXXXXX    ",
"    XXXXXX   ooooooooooooooooooooooooooooooooooooooooooooooooooooooXXXooooooooooooooooooooooooooooooooooooooooooooo   XXXXXX    ",
"    XXXXXX   ooooooooooooooooooooooooooooooooooooooooooooooooooooooXXXooooooooooooooooooooooooooooooooooooooooooooo   XXXXXX    ",
"    XXXXXX   ooooooooooooooooooooooooooooooooooooooooooooooooooooooXXXooooooooooooooooooooooooooooooooooooooooooooo   XXXXXX    ",
"    XXXXXX   ooooooooooooooooooooooooooooooooooooooooooooooooooooooXXXooooooooooooooooooooooooooooooooooooooooooooo   XXXXXX    ",
"    XXXXXX   oooooooooooooooooooooooooooooooooooooooooooooooooooooooooooooooooooooooooooooooooooooooooooooooooooooo   XXXXXX    ",
"    XXXXXX   oooooooooooooooooooooooooooooooooooooooooooooooooooooooooooooooooooooooooooooooooooooooooooooooooooooo   XXXXXX    ",
"    XXXXXX   oooooooooooooooooooooooooooooooooooooooooooooooooooooooooooooooooooooooooooooooooooooooooooooooooooooo   XXXXXX    ",
"    XXXXXX...oooooooooooooooooooooooooooooooooooooooooooooooooooooooooooooooooooooooooooooooooooooooooooooooooooooo...XXXXXX    ",
"    XXXXXX...oooooooooooooooooooooooooooooooooooooooooooooooooooooooooooooooooooooooooooooooooooooooooooooooooooooo...XXXXXX    ",
"    XXXXXX...oooooooooooooooooooooooooooooooooooooooooooooooooooooooooooooooooooooooooooooooooooooooooooooooooooooo...XXXXXX    ",
"    XXXXXX...oooooooooooooooooooooooooooooooooooooooooooooooooooooooooooooooooooooooooooooooooooooooooooooooooooooo...XXXXXX    ",
"    XXXXXX...oooooooooooooooooooooooooooooooooooooooooooooooooooooooooooooooooooooooooooooooooooooooooooooooooooooo...XXXXXX    ",
"    XXXXXX...oooooooooooooooooooooooooooooooooooooooooooooooooooooooooooooooooooooooooooooooooooooooooooooooooooooo...XXXXXX    ",
"    XXXXXX...oooooooooooooooooooooooooooooooooooooooooooooooooooooooooooooooooooooooooooooooooooooooooooooooooooooo...XXXXXX    ",
"    XXXXXX...oooooooooooooooooooooooooooooooooooooooooooooooooooooooooooooooooooooooooooooooooooooooooooooooooooooo...XXXXXX    ",
"    XXXXXX...oooooooooooooooooooooooooooooooooooooooooooooooooooooooooooooooooooooooooooooooooooooooooooooooooooooo...XXXXXX    ",
"    XXXXXX...oooooooooooooooooooooooooooooooooooooooooooooooooooooooooooooooooooooooooooooooooooooooooooooooooooooo...XXXXXX    ",
"    XXXXXX...oooooooooooooooooooooooooooooooooooooooooooooooooooooooooooooooooooooooooooooooooooooooooooooooooooooo...XXXXXX    ",
"    XXXXXX...oooooooooooooooooooooooooooooooooooooooooooooooooooooooooooooooooooooooooooooooooooooooooooooooooooooo...XXXXXX    ",
"    XXXXXX...oooooooooooooooooooooooooooooooooooooooooooooooooooooooooooooooooooooooooooooooooooooooooooooooooooooo...XXXXXX    ",
"    XXXXXX...oooooooooooooooooooooooooooooooooooooooooooooooooooooooooooooooooooooooooooooooooooooooooooooooooooooo...XXXXXX    ",
"    XXXXXX...oooooooooooooooooooooooooooooooooooooooooooooooooooooooooooooooooooooooooooooooooooooooooooooooooooooo...XXXXXX    ",
"    XXXXXX...oooooooooooooooooooooooooooooooooooo+++++++++++++++++++++ooooooooooooooooooooooooooooooooooooooooooooo...XXXXXX    ",
"    XXXXXX...oooooooooooooooooooooooooooooooooooo+++++++++++++++++++++ooooooooooooooooooooooooooooooooooooooooooooo...XXXXXX    ",
"    XXXXXX...oooooooooooooooooooooooooooooooooooo+++++++++++++++++++++ooooooooooooooooooooooooooooooooooooooooooooo...XXXXXX    ",
"    XXXXXX...               XXX........................XXXXXXXXX.......................................            ...XXXXXX    ",
"    XXXXXX...               XXX........................XXXXXXXXX.......................................            ...XXXXXX    ",
"    XXXXXX...               XXX........................XXXXXXXXX.......................................            ...XXXXXX    ",
"    XXXXXX   XXXoooooooooXXXXXXoooooooooooooooooooooooooooooooooooooooooooooooooooooooooooooooooooooooooooooooooooo   XXXXXX    ",
"    XXXXXX   XXXoooooooooXXXXXXoooooooooooooooooooooooooooooooooooooooooooooooooooooooooooooooooooooooooooooooooooo   XXXXXX    ",
"    XXXXXX   XXXoooooooooXXXXXXoooooooooooooooooooooooooooooooooooooooooooooooooooooooooooooooooooooooooooooooooooo   XXXXXX    ",
"    XXXXXX   oooooooooooooooooooooooooooooooooooooooooooooooooooooooooooooooooooooooooooooooooooooooooooooooooooooo   XXXXXX    ",
"    XXXXXX   oooooooooooooooooooooooooooooooooooooooooooooooooooooooooooooooooooooooooooooooooooooooooooooooooooooo   XXXXXX    ",
"    XXXXXX   oooooooooooooooooooooooooooooooooooooooooooooooooooooooooooooooooooooooooooooooooooooooooooooooooooooo   XXXXXX    ",
"....XXXXXX   oooooooooooooooooooooooooooooooooooooooooooooooooooooooooooooooooooooooooooooooooooooooooooooooooooooo   XXXXXX....",
"....XXXXXX   oooooooooooooooooooooooooooooooooooooooooooooooooooooooooooooooooooooooooooooooooooooooooooooooooooooo   XXXXXX....",
"....XXXXXX   oooooooooooooooooooooooooooooooooooooooooooooooooooooooooooooooooooooooooooooooooooooooooooooooooooooo   XXXXXX....",
"....XXXXXX   oooooooooooooooooooooooooooooooooooooooooooooooooooooooooooooooooooooooooooooooooooooooooooooooooooooo   XXXXXX....",
"....XXXXXX   oooooooooooooooooooooooooooooooooooooooooooooooooooooooooooooooooooooooooooooooooooooooooooooooooooooo   XXXXXX....",
"....XXXXXX   oooooooooooooooooooooooooooooooooooooooooooooooooooooooooooooooooooooooooooooooooooooooooooooooooooooo   XXXXXX....",
"    XXXXXX   oooooooooooooooooooooooooooooooooooooooooooooooooooooooooooooooooooooooooooooooooooooooooooooooooooooo   XXXXXX    ",
"    XXXXXX   oooooooooooooooooooooooooooooooooooooooooooooooooooooooooooooooooooooooooooooooooooooooooooooooooooooo   XXXXXX    ",
"    XXXXXX   oooooooooooooooooooooooooooooooooooooooooooooooooooooooooooooooooooooooooooooooooooooooooooooooooooooo   XXXXXX    ",
"    XXXXXX   oooooooooooooooooooooooooooooooooooooooooooooooooooooooooooooooooooooooooooooooooooooooooooooooooooooo   XXXXXX    ",
"    XXXXXX   oooooooooooooooooooooooooooooooooooooooooooooooooooooooooooooooooooooooooooooooooooooooooooooooooooooo   XXXXXX    ",
"    XXXXXX   oooooooooooooooooooooooooooooooooooooooooooooooooooooooooooooooooooooooooooooooooooooooooooooooooooooo   XXXXXX    ",
"    XXXXXX   oooooooooooooooooooooooooooooooooooooooooooooooooooooooooooooooooooooooooooooooooooooooooooooooooooooo   XXXXXX    ",
"    XXXXXX   oooooooooooooooooooooooooooooooooooooooooooooooooooooooooooooooooooooooooooooooooooooooooooooooooooooo   XXXXXX    ",
"    XXXXXX   oooooooooooooooooooooooooooooooooooooooooooooooooooooooooooooooooooooooooooooooooooooooooooooooooooooo   XXXXXX    ",
"    XXXXXX   oooooooooooooooooooooooooooooooooooooooooooooooooooooooooooooooooooooooooooooooooooooooooooooooooooooo   XXXXXX    ",
"    XXXXXX   oooooooooooooooooooooooooooooooooooooooooooooooooooooooooooooooooooooooooooooooooooooooooooooooooooooo   XXXXXX    ",
"    XXXXXX   oooooooooooooooooooooooooooooooooooooooooooooooooooooooooooooooooooooooooooooooooooooooooooooooooooooo   XXXXXX    ",
"    ......   XXXoooooooooooooooooooooooooooooooooooo+++++++++++++++++++++oooooooooooooooooooooooooooooooooooooooXXX   ......    ",
"    ......   XXXoooooooooooooooooooooooooooooooooooo+++++++++++++++++++++oooooooooooooooooooooooooooooooooooooooXXX   ......    ",
"    ......   XXXoooooooooooooooooooooooooooooooooooo+++++++++++++++++++++oooooooooooooooooooooooooooooooooooooooXXX   ......    ",
"    ......            .................................XXXXXXXXXXXX..........................................         ......    ",
"    ......            .................................XXXXXXXXXXXX..........................................         ......    ",
"    ......            .................................XXXXXXXXXXXX..........................................         ......    ",
"    ......   ...XXXooooooooooooooooooooooooooo++++++++++++++++++oooooooooooooooooooooooooooooooooooooooooooooXXX...   ......    ",
"    ......   ...XXXooooooooooooooooooooooooooo++++++++++++++++++oooooooooooooooooooooooooooooooooooooooooooooXXX...   ......    ",
"    ......   ...XXXooooooooooooooooooooooooooo++++++++++++++++++oooooooooooooooooooooooooooooooooooooooooooooXXX...   ......    ",
"    ......                                                                                                            ......    ",
"    ......                                                                                                            ......    ",
"    ......                                                                                                            ......    ",
"    ......      .........XXXXXXXXXXXXXXXXXXXXXXXXXXXXXXXXXXXXXXXXXXXXXoooooooooXXXXXXXXXXXXXXXXXXXXX............      ......    ",
"    ......      .........XXXXXXXXXXXXXXXXXXXXXXXXXXXXXXXXXXXXXXXXXXXXXoooooooooXXXXXXXXXXXXXXXXXXXXX............      ......    ",
"    ......      .........XXXXXXXXXXXXXXXXXXXXXXXXXXXXXXXXXXXXXXXXXXXXXoooooooooXXXXXXXXXXXXXXXXXXXXX............      ......    ",
"    ......                  .........XXX.........XXX.........XXX.........XXX.........XXX.........                     ......    ",
"    ......                  .........XXX.........XXX.........XXX.........XXX.........XXX.........                     ......    ",
"    ......                  .........XXX.........XXX.........XXX.........XXX.........XXX.........                     ......    ",
"    ......                  .........XXX.........XXX.........XXX.........XXX.........XXX.........                     ......    ",
"    ......                  .........XXX.........XXX.........XXX.........XXX.........XXX.........                     ......    ",
"    ......                  .........XXX.........XXX.........XXX.........XXX.........XXX.........                     ......    ",
"    ......   ooo   ......XXXXXXXXXXXXXXXXXXXXXooooooXXXXXXXXXXXXXXXXXXXXXXXXXXXXXXXXXXXXXXXXXXXXXXXX......      ooo   ......    ",
"    ......   ooo   ......XXXXXXXXXXXXXXXXXXXXXooooooXXXXXXXXXXXXXXXXXXXXXXXXXXXXXXXXXXXXXXXXXXXXXXXX......      ooo   ......    ",
"    ......   ooo   ......XXXXXXXXXXXXXXXXXXXXXooooooXXXXXXXXXXXXXXXXXXXXXXXXXXXXXXXXXXXXXXXXXXXXXXXX......      ooo   ......    ",
"    .........oooooo               ............................................................               oooooo.........    ",
"    .........oooooo               ............................................................               oooooo.........    ",
"    .........oooooo               ............................................................               oooooo.........    ",
"    ............oooXXX   XXXooooooooo+++++++++++++++++++++++++++++++++++++++++++++++++++ooooooooooooXXX   XXXooo............    ",
"    ............oooXXX   XXXooooooooo+++++++++++++++++++++++++++++++++++++++++++++++++++ooooooooooooXXX   XXXooo............    ",
"    ............oooXXX   XXXooooooooo+++++++++++++++++++++++++++++++++++++++++++++++++++ooooooooooooXXX   XXXooo............    ",
"       ............XXX         ..................................................................         XXX............       ",
"       ............XXX         ..................................................................         XXX............       ",
"       ............XXX         ..................................................................         XXX............       ",
"          ............   XXXooooooooooooooooooooooooooooooooooooooooooooooooooooooooooooooooooooooooXXX   ............          ",
"          ............   XXXooooooooooooooooooooooooooooooooooooooooooooooooooooooooooooooooooooooooXXX   ............          ",
"          ............   XXXooooooooooooooooooooooooooooooooooooooooooooooooooooooooooooooooooooooooXXX   ............          ",
"             ......   XXXooooooOOOOOOooooooOOOOOOooooooOOOOOOooooooOOOOOOooooooOOOOOOooooooOOOOOOooooooXXX   ......             ",
"             ......   XXXooooooOOOOOOooooooOOOOOOooooooOOOOOOooooooOOOOOOooooooOOOOOOooooooOOOOOOooooooXXX   ......             ",
"             ......   XXXooooooOOOOOOooooooOOOOOOooooooOOOOOOooooooOOOOOOooooooOOOOOOooooooOOOOOOooooooXXX   ......             ",
"    ...   XXXXXXooooooooooooOOOOOOooooooOOOOOOooooooOOOOOOooooooooooooOOOOOOooooooOOOOOOooooooOOOOOOooooooooooooXXXXXX   ...    ",
"    ...   XXXXXXooooooooooooOOOOOOooooooOOOOOOooooooOOOOOOooooooooooooOOOOOOooooooOOOOOOooooooOOOOOOooooooooooooXXXXXX   ...    ",
"    ...   XXXXXXooooooooooooOOOOOOooooooOOOOOOooooooOOOOOOooooooooooooOOOOOOooooooOOOOOOooooooOOOOOOooooooooooooXXXXXX   ...    ",
"    ......XXXXXXXXXooooooooooooooooooooooooooooooooooooooooooooooooooooooooooooooooooooooooooooooooooooooooooXXXXXXXXX......    "
};
