/* XPM */
static char *result[] = {
/* columns rows colors chars-per-pixel */
"128 128 8 1 ",
"  c #0F0F18",
". c #192032",
"X c #2D3853",
"o c #3F536C",
"O c #BF5F1F",
"+ c #5B758B",
"@ c #88A3B5",
"# c #BED2DC",
/* pixels */
"    +++@@@   XXXXXXXXXXXXXXXXXXXXXXXXXXXXXXXXXXXXXXXXXXXXXXXXXXXXXXXXXXXXXXXXXXXXXXXXXXXXXXXXXXXXXXXXXXXXXXXXXXXXXX   @@@+++    ",
"    oooooo   XXXXXXXXXXXXXXXXXXXXXXXXXXXXXXXXXXXXXXXXXXXXXXXXXXXXXXXXXXXXXXXXXXXXXXXXXXXXXXXXXXXXXXXXXXXXXXXXXXXXXX   oooooo    ",
"    oooooo   XXXXXXXXXXXXXXXXXXXXXXXXXXXXXXXXXXXXXXXXXXXXXXXXXXXXXXXXXXXXXXXXXXXXXXXXXXXXXXXXXXXXXXXXXXXXXXXXXXXXXX   oooooo    ",
"    oooooo   XXXXXXXXXXXXXXXXXXXXXXXXXXXXXXXXXXXXXXXXXXXXXXXXXXXXXXXXXXXXXXXXXXXXXXXXXXXXXXXXXXXXXXXXXXXXXXXXXXXXXX   oooooo    ",
"    oooooo   XXXXXXXXXXXXXXXXXXXXXXXXXXXXXXXXXXXXXXXXXXXXXXXXXXXXXXXXXXXXXXXXXXXXXXXXXXXXXXXXXXXXXXXXXXXXXXXXXXXXXX   oooooo    ",
"    oooooo   XXXXXXXXXXXXXXXXXXXXXXXXXXXXXXXXXXXXXXXXXXXXXXXXXXXXXXXXXXXXXXXXXXXXXXXXXXXXXXXXXXXXXXXXXXXXXXXXXXXXXX   oooooo    ",
"    oooooo   XXXXXXXXXXXXXXXXXXXXXXXXXXXXXXXXXXXXXXXXXXXXXXXXXXXXXXXXXXXXXXXXXXXXXXXXXXXXXXXXXXXXXXXXXXXXXXXXXXXXXX   oooooo    ",
"    oooooo   XXXXXXXXXXXXXXXXXXXXXXXXXXXXXXXXXXXXXXXXXXXXXXXXXXXXXXXXXXXXXXXXXXXXXXXXXXXXXXXXXXXXXXXXXXXXXXXXXXXXXX   oooooo    ",
"    oooooo   XXXXXXXXXXXXXXXXXXXXXXXXXXXXXXXXXXXXXXXXXXXXXXXXXXXXXXXXXXXXXXXXXXXXXXXXXXXXXXXXXXXXXXXXXXXXXXXXXXXXXX   oooooo    ",
"    oooooo   XXXXXXXXXXXXXXXXXXXXXXXXXXXXXXXXXXXXXXXXXXXXXXXXXXXXXXXXXXXXXXXXXXXXXXXXXXXXXXXXXXXXXXXXXXXXXXXXXXXXXX   oooooo    ",
"    oooooo   XXXXXXXXXXXXXXXXXXXXXXXXXXXXXXXXXXXXXXXXXXXXXXXXXXXXXXXXXXXXXXXXXXXXXXXXXXXXXXXXXXXXXXXXXXXXXXXXXXXXXX   oooooo    ",
"    oooooo   XXXXXXXXXXXXXXXXXXXXXXXXXXXXXXXXXXXXXXXXXXXXXXXXXXXXXXXXXXXXXXXXXXXXXXXXXXXXXXXXXXXXXXXXXXXXXXXXXXXXXX   oooooo    ",
"    oooooo   XXXXXXXXXXXXXXXXXXXXXXXXXXXXXXXXXXXXXXXXXXXXXXXXXXXXXXXXXXXXXXXXXXXXXXXXXXXXXXXXXXXXXXXXXXXXXXXXXXXXXX   oooooo    ",
"    oooooo   XXXXXXXXXXXXXXXXXXXXXXXXXXXXXXXXXXXXXXXXXXXXXXXXXXXXXXXXXXXXXXXXXXXXXXXXXXXXXXXXXXXXXXXXXXXXXXXXXXXXXX   oooooo    ",
"    oooooo   XXXXXXXXXXXXXXXXXXXXXXXXXXXXXXXXXXXXXXXXXXXXXXXXXXXXXXXXXXXXXXXXXXXXXXXXXXXXXXXXXXXXXXXXXXXXXXXXXXXXXX   oooooo    ",
"    oooooo   XXXXXXXXXXXXXXXXXXXXXXXXXXXXXXXXXXXXXXXXXXXXXXXXXXXXXXXXXXXXXXXXXXXXXXXXXXXXXXXXXXXXXXXXXXXXXXXXXXXXXX   oooooo    ",
"    oooooo   XXXXXXXXXXXXXXXXXXXXXXXXXXXXXXXXXXXXXXXXXXXXXXXXXXXXXXXXXXXXXXXXXXXXXXXXXXXXXXXXXXXXXXXXXXXXXXXXXXXXXX   ###@@@    ",
"    oooooo   XXXXXXXXXXXXXXXXXXXXXXXXXXXXXXXXXXXXXXXXXXXXXXXXXXXXXXXXXXXXXXXXXXXXXXXXXXXXXXXXXXXXXXXXXXXXXXXXXXXXXX   ###@@@    ",
"    oooooo   XXXXXXXXXXXXXXXXXXXXXXXXXXXXXXXXXXXXXXXXXXXXXXXXXXXXXXXXXXXXXXXXXXXXXXXXXXXXXXXXXXXXXXXXXXXXXXXXXXXXXX   ###@@@    ",
"    @@@###   XXXXXXXXXXXXoooooooooooooooooooooXXXXXXXXXXXXXXXXXXXXXXXXXXXXXXXXXXXXXXXXXXXXXXXXXXXXXXXXXXXXXXXXXXXXX   oooooo    ",
"    @@@###   XXXXXXXXXXXXoooooooooooooooooooooXXXXXXXXXXXXXXXXXXXXXXXXXXXXXXXXXXXXXXXXXXXXXXXXXXXXXXXXXXXXXXXXXXXXX   oooooo    ",
"    @@@###   XXXXXXXXXXXXoooooooooooooooooooooXXXXXXXXXXXXXXXXXXXXXXXXXXXXXXXXXXXXXXXXXXXXXXXXXXXXXXXXXXXXXXXXXXXXX   oooooo    ",
"    oooooo            .................................XXXXXX........................XXX..................            ......    ",
"    oooooo            .................................XXXXXX........................XXX..................            ......    ",
"    oooooo            .................................XXXXXX........................XXX..................            ......    ",
"    ......   ooooooooooooooooooooooooooooooooooooooooooooooooooooooXXXooooooooooooXXXXXXooooooooooooooooooooooooooo   ......    ",
"    ......   ooooooooooooooooooooooooooooooooooooooooooooooooooooooXXXooooooooooooXXXXXXooooooooooooooooooooooooooo   ......    ",
"    ......   ooooooooooooooooooooooooooooooooooooooooooooooooooooooXXXooooooooooooXXXXXXooooooooooooooooooooooooooo   ......    ",
"    ......   ooooooooooooooooooooooooooooooooooooooooooooooooooooooXXXooooooooooooooooooooooooooooooooooooooooooooo   XXXXXX    ",
"    ......   ooooooooooooooooooooooooooooooooooooooooooooooooooooooXXXooooooooooooooooooooooooooooooooooooooooooooo   XXXXXX    ",
"    ......   ooooooooooooooooooooooooooooooooooooooooooooooooooooooXXXooooooooooooooooooooooooooooooooooooooooooooo   XXXXXX    ",
"    XXXXXX   ooooooooooooooooooooooooooooooooooooooooooooooooooooooXXXooooooooooooooooooooooooooooooooooooooooooooo   XXXXXX    ",
"    XXXXXX   ooooooooooooooooooooooooooooooooooooooooooooooooooooooXXXooooooooooooooooooooooooooooooooooooooooooooo   XXXXXX    ",
"    XXXXXX   ooooooooooooooooooooooooooooooooooooooooooooooooooooooXXXooooooooooooooooooooooooooooooooooooooooooooo   XXXXXX    ",
"    XXXXXX   oooooooooooooooooooooooooooooooooooooooooooooooooooooooooooooooooooooooooooooooooooooooooooooooooooooo   XXXXXX    ",
"    XXXXXX   oooooooooooooooooooooooooooooooooooooooooooooooooooooooooooooooooooooooooooooooooooooooooooooooooooooo   XXXXXX    ",
"    XXXXXX   oooooooooooooooooooooooooooooooooooooooooooooooooooooooooooooooooooooooooooooooooooooooooooooooooooooo   XXXXXX    ",
"    XXXXXX   oooooooooooooooooooooooooooooooooooooooooooooooooooooooooooooooooooooooooooooooooooooooooooooooooooooo   XXXXXX    ",
"    XXXXXX   oooooooooooooooooooooooooooooooooooooooooooooooooooooooooooooooooooooooooooooooooooooooooooooooooooooo   XXXXXX    ",
"    XXXXXX   oooooooooooooooooooooooooooooooooooooooooooooooooooooooooooooooooooooooooooooooooooooooooooooooooooooo   XXXXXX    ",
"    XXXXXX...oooooooooooooooooooooooooooooooooooooooooooooooooooooooooooooooooooooooooooooooooooooooooooooooooooooo...XXXXXX    ",
"    XXXXXX...oooooooooooooooooooooooooooooooooooooooooooooooooooooooooooooooooooooooooooooooooooooooooooooooooooooo...XXXXXX    ",
"    XXXXXX...oooooooooooooooooooooooooooooooooooooooooooooooooooooooooooooooooooooooooooooooooooooooooooooooooooooo...XXXXXX    ",
"    XXXXXX...oooooooooooooooooooooooooooooooooooooooooooooooooooooooooooooooooooooooooooooooooooooooooooooooooooooo...XXXXXX    ",
"    XXXXXX...oooooooooooooooooooooooooooooooooooooooooooooooooooooooooooooooooooooooooooooooooooooooooooooooooooooo...XXXXXX    ",
"    XXXXXX...oooooooooooooooooooooooooooooooooooooooooooooooooooooooooooooooooooooooooooooooooooooooooooooooooooooo...XXXXXX    ",
"    XXXXXX...oooooooooooooooooooooooooooooooooooooooooooooooooooooooooooooooooooooooooooooooooooooooooooooooooooooo...XXXXXX    ",
"    XXXXXX...oooooooooooooooooooooooooooooooooooooooooooooooooooooooooooooooooooooooooooooooooooooooooooooooooooooo...XXXXXX    ",
"    XXXXXX...oooooooooooooooooooooooooooooooooooooooooooooooooooooooooooooooooooooooooooooooooooooooooooooooooooooo...XXXXXX    ",
"    XXXXXX...oooooooooooooooooooooooooooooooooooooooooooooooooooooooooooooooooooooooooooooooooooooooooooooooooooooo...XXXXXX    ",
"    XXXXXX...oooooooooooooooooooooooooooooooooooooooooooooooooooooooooooooooooooooooooooooooooooooooooooooooooooooo...XXXXXX    ",
"    XXXXXX...oooooooooooooooooooooooooooooooooooooooooooooooooooooooooooooooooooooooooooooooooooooooooooooooooooooo...XXXXXX    ",
"    XXXXXX...oooooooooooooooooooooooooooooooooooo+++++++++++++++++++++ooooooooooooooooooooooooooooooooooooooooooooo...XXXXXX    ",
"    XXXXXX...oooooooooooooooooooooooooooooooooooo+++++++++++++++++++++ooooooooooooooooooooooooooooooooooooooooooooo...XXXXXX    ",
"    XXXXXX...oooooooooooooooooooooooooooooooooooo+++++++++++++++++++++ooooooooooooooooooooooooooooooooooooooooooooo...XXXXXX    ",
"    XXXXXX...               XXX........................XXXXXXXXX.......................................            ...XXXXXX    ",
"    XXXXXX...               XXX........................XXXXXXXXX.......................................            ...XXXXXX    ",
"    XXXXXX...               XXX........................XXXXXXXXX.......................................            ...XXXXXX    ",
"    XXXXXX...XXXoooooooooXXXXXXoooooooooooooooooooooooooooooooooooooooooooooooooooooooooooooooooooooooooooooooooooo...XXXXXX    ",
"    XXXXXX...XXXoooooooooXXXXXXoooooooooooooooooooooooooooooooooooooooooooooooooooooooooooooooooooooooooooooooooooo...XXXXXX    ",
"    XXXXXX...XXXoooooooooXXXXXXoooooooooooooooooooooooooooooooooooooooooooooooooooooooooooooooooooooooooooooooooooo...XXXXXX    ",
"    XXXXXX   oooooooooooooooooooooooooooooooooooooooooooooooooooooooooooooooooooooooooooooooooooooooooooooooooooooo   XXXXXX    ",
"    XXXXXX   oooooooooooooooooooooooooooooooooooooooooooooooooooooooooooooooooooooooooooooooooooooooooooooooooooooo   XXXXXX    ",
"    XXXXXX   oooooooooooooooooooooooooooooooooooooooooooooooooooooooooooooooooooooooooooooooooooooooooooooooooooooo   XXXXXX    ",
"    XXXXXX   oooooooooooooooooooooooooooooooooooooooooooooooooooooooooooooooooooooooooooooooooooooooooooooooooooooo   XXXXXX    ",
"    XXXXXX   oooooooooooooooooooooooooooooooooooooooooooooooooooooooooooooooooooooooooooooooooooooooooooooooooooooo   XXXXXX    ",
"    XXXXXX   oooooooooooooooooooooooooooooooooooooooooooooooooooooooooooooooooooooooooooooooooooooooooooooooooooooo   XXXXXX    ",
"....XXXXXX   oooooooooooooooooooooooooooooooooooooooooooooooooooooooooooooooooooooooooooooooooooooooooooooooooooooo   XXXXXX....",
"....XXXXXX   oooooooooooooooooooooooooooooooooooooooooooooooooooooooooooooooooooooooooooooooooooooooooooooooooooooo   XXXXXX....",
"....XXXXXX   oooooooooooooooooooooooooooooooooooooooooooooooooooooooooooooooooooooooooooooooooooooooooooooooooooooo   XXXXXX....",
"....XXXXXX   oooooooooooooooooooooooooooooooooooooooooooooooooooooooooooooooooooooooooooooooooooooooooooooooooooooo   XXXXXX....",
"....XXXXXX   oooooooooooooooooooooooooooooooooooooooooooooooooooooooooooooooooooooooooooooooooooooooooooooooooooooo   XXXXXX....",
"....XXXXXX   oooooooooooooooooooooooooooooooooooooooooooooooooooooooooooooooooooooooooooooooooooooooooooooooooooooo   XXXXXX....",
"    XXXXXX   oooooooooooooooooooooooooooooooooooooooooooooooooooooooooooooooooooooooooooooooooooooooooooooooooooooo   XXXXXX    ",
"    XXXXXX   oooooooooooooooooooooooooooooooooooooooooooooooooooooooooooooooooooooooooooooooooooooooooooooooooooooo   XXXXXX    ",
"    XXXXXX   oooooooooooooooooooooooooooooooooooooooooooooooooooooooooooooooooooooooooooooooooooooooooooooooooooooo   XXXXXX    ",
"    XXXXXX   oooooooooooooooooooooooooooooooooooooooooooooooooooooooooooooooooooooooooooooooooooooooooooooooooooooo   XXXXXX    ",
"    XXXXXX   oooooooooooooooooooooooooooooooooooooooooooooooooooooooooooooooooooooooooooooooooooooooooooooooooooooo   XXXXXX    ",
"    XXXXXX   oooooooooooooooooooooooooooooooooooooooooooooooooooooooooooooooooooooooooooooooooooooooooooooooooooooo   XXXXXX    ",
"    XXXXXX   oooooooooooooooooooooooooooooooooooooooooooooooooooooooooooooooooooooooooooooooooooooooooooooooooooooo   XXXXXX    ",
"    XXXXXX   oooooooooooooooooooooooooooooooooooooooooooooooooooooooooooooooooooooooooooooooooooooooooooooooooooooo   XXXXXX    ",
"    XXXXXX   oooooooooooooooooooooooooooooooooooooooooooooooooooooooooooooooooooooooooooooooooooooooooooooooooooooo   XXXXXX    ",
"    XXXXXX   XXXoooooooooooooooooooooooooooooooooooo+++++++++++++++++++++oooooooooooooooooooooooooooooooooooooooXXX   XXXXXX    ",
"    XXXXXX   XXXoooooooooooooooooooooooooooooooooooo+++++++++++++++++++++oooooooooooooooooooooooooooooooooooooooXXX   XXXXXX    ",
"    XXXXXX   XXXoooooooooooooooooooooooooooooooooooo+++++++++++++++++++++oooooooooooooooooooooooooooooooooooooooXXX   XXXXXX    ",
"    ......            .................................XXXXXXXXXXXX..........................................         ......    ",
"    ......            .................................XXXXXXXXXXXX..........................................         ......    ",
"    ......            .................................XXXXXXXXXXXX..........................................         ......    ",
"    ......   ...XXXooooooooooooooooooooooooooo++++++++++++++++++oooooooooooooooooooooooooooooooooooooooooooooXXX...   ......    ",
"    ......   ...XXXooooooooooooooooooooooooooo++++++++++++++++++oooooooooooooooooooooooooooooooooooooooooooooXXX...   ......    ",
"    ......   ...XXXooooooooooooooooooooooooooo++++++++++++++++++oooooooooooooooooooooooooooooooooooooooooooooXXX...   ......    ",
"    ......                                                                                                            ......    ",
"    ......                                                                                                            ......    ",
"    ......                                                                                                            ......    ",
"    ......      .........XXXXXXXXXXXXXXXXXXXXXXXXXXXXXXXXXXXXXXXXXXXXXoooooooooXXXXXXXXXXXXXXXXXXXXX............      ......    ",
"    ......      .........XXXXXXXXXXXXXXXXXXXXXXXXXXXXXXXXXXXXXXXXXXXXXoooooooooXXXXXXXXXXXXXXXXXXXXX............      ......    ",
"    ......      .........XXXXXXXXXXXXXXXXXXXXXXXXXXXXXXXXXXXXXXXXXXXXXoooooooooXXXXXXXXXXXXXXXXXXXXX............      ......    ",
"    ......                  .........XXX.........XXX.........XXX.........XXX.........XXX.........                     ......    ",
"    ......                  .........XXX.........XXX.........XXX.........XXX.........XXX.........                     ......    ",
"    ......                  .........XXX.........XXX.........XXX.........XXX.........XXX.........                     ......    ",
"    ......                  .........XXX.........XXX.........XXX.........XXX.........XXX.........                     ......    ",
"    ......                  .........XXX.........XXX.........XXX.........XXX.........XXX.........                     ......    ",
"    ......                  .........XXX.........XXX.........XXX.........XXX.........XXX.........                     ......    ",
"    ......      .........XXXXXXXXXXXXXXXXXXXXXooooooXXXXXXXXXXXXXXXXXXXXXXXXXXXXXXXXXXXXXXXXXXXXXXXX............      ......    ",
"    ......      .........XXXXXXXXXXXXXXXXXXXXXooooooXXXXXXXXXXXXXXXXXXXXXXXXXXXXXXXXXXXXXXXXXXXXXXXX............      ......    ",
"    ......      .........XXXXXXXXXXXXXXXXXXXXXooooooXXXXXXXXXXXXXXXXXXXXXXXXXXXXXXXXXXXXXXXXXXXXXXXX............      ......    ",
"    ......   ooo                  ............................................................                  ooo   ......   .",
"    ......   ooo                  ............................................................                  ooo   ......   .",
"    ......   ooo                  ............................................................                  ooo   ......   .",
"    .........oooooo   ...XXXooooooooo+++++++++++++++++++++++++++++++++++++++++++++++++++ooooooooooooXXX...   oooooo.........   X",
"    .........oooooo   ...XXXooooooooo+++++++++++++++++++++++++++++++++++++++++++++++++++ooooooooooooXXX...   oooooo.........   X",
"    .........oooooo   ...XXXooooooooo+++++++++++++++++++++++++++++++++++++++++++++++++++ooooooooooooXXX...   oooooo.........   X",
"    ............oooXXX         ..................................................................         XXXooo............   X",
"    ............oooXXX         ..................................................................         XXXooo............   X",
"    ............oooXXX         ..................................................................         XXXooo............   X",
"       ............XXX         ..................................................................         XXX............       ",
"       ............XXX         ..................................................................         XXX............       ",
"       ............XXX         ..................................................................         XXX............       ",
"          ............   XXXooooooooooooooooooooooooooooooooooooooooooooooooooooooooooooooooooooooooXXX   ............         X",
"          ............   XXXooooooooooooooooooooooooooooooooooooooooooooooooooooooooooooooooooooooooXXX   ............         X",
"          ............   XXXooooooooooooooooooooooooooooooooooooooooooooooooooooooooooooooooooooooooXXX   ............         X",
"             ......   XXXooooooOOOOOOooooooOOOOOOooooooOOOOOOooooooOOOOOOooooooOOOOOOooooooOOOOOOooooooXXX   ......            X",
"             ......   XXXooooooOOOOOOooooooOOOOOOooooooOOOOOOooooooOOOOOOooooooOOOOOOooooooOOOOOOooooooXXX   ......            X",
"             ......   XXXooooooOOOOOOooooooOOOOOOooooooOOOOOOooooooOOOOOOooooooOOOOOOooooooOOOOOOooooooXXX   ......            X",
"    ...   XXXXXXooooooooooooOOOOOOooooooOOOOOOooooooOOOOOOooooooooooooOOOOOOooooooOOOOOOooooooOOOOOOooooooooooooXXXXXX   ...   X",
"    ...   XXXXXXooooooooooooOOOOOOooooooOOOOOOooooooOOOOOOooooooooooooOOOOOOooooooOOOOOOooooooOOOOOOooooooooooooXXXXXX   ...   X",
"    ...   XXXXXXooooooooooooOOOOOOooooooOOOOOOooooooOOOOOOooooooooooooOOOOOOooooooOOOOOOooooooOOOOOOooooooooooooXXXXXX   ...   X",
"    ......XXXXXXXXXooooooooooooooooooooooooooooooooooooooooooooooooooooooooooooooooooooooooooooooooooooooooooXXXXXXXXX......    "
};
