/* XPM */
static char *result[] = {
/* columns rows colors chars-per-pixel */
"128 128 8 1 ",
"  c #0F0F18",
". c #192032",
"X c #2D3853",
"o c #3F536C",
"O c #BF5F1F",
"+ c #5B758B",
"@ c #88A3B5",
"# c #BED2DC",
/* pixels */
"    +++@@@   XXXXXXXXXXXXXXXXXXXXXXXXXXXXXXXXXXXXXXXXXXXXXXXXXXXXXXXXXXXXXXXXXXXXXXXXXXXXXXXXXXXXXXXXXXXXXXXXXXXXXX   @@@+++    ",
"    oooooo   XXXXXXXXXXXXXXXXXXXXXXXXXXXXXXXXXXXXXXXXXXXXXXXXXXXXXXXXXXXXXXXXXXXXXXXXXXXXXXXXXXXXXXXXXXXXXXXXXXXXXX   oooooo    ",
"    oooooo   XXXXXXXXXXXXXXXXXXXXXXXXXXXXXXXXXXXXXXXXXXXXXXXXXXXXXXXXXXXXXXXXXXXXXXXXXXXXXXXXXXXXXXXXXXXXXXXXXXXXXX   oooooo    ",
"    oooooo   XXXXXXXXXXXXXXXXXXXXXXXXXXXXXXXXXXXXXXXXXXXXXXXXXXXXXXXXXXXXXXXXXXXXXXXXXXXXXXXXXXXXXXXXXXXXXXXXXXXXXX   oooooo    ",
"    oooooo   XXXXXXXXXXXXXXXXXXXXXXXXXXXXXXXXXXXXXXXXXXXXXXXXXXXXXXXXXXXXXXXXXXXXXXXXXXXXXXXXXXXXXXXXXXXXXXXXXXXXXX   oooooo    ",
"    oooooo   XXXXXXXXXXXXXXXXXXXXXXXXXXXXXXXXXXXXXXXXXXXXXXXXXXXXXXXXXXXXXXXXXXXXXXXXXXXXXXXXXXXXXXXXXXXXXXXXXXXXXX   oooooo    ",
"    oooooo   XXXXXXXXXXXXXXXXXXXXXXXXXXXXXXXXXXXXXXXXXXXXXXXXXXXXXXXXXXXXXXXXXXXXXXXXXXXXXXXXXXXXXXXXXXXXXXXXXXXXXX   oooooo    ",
"    oooooo   XXXXXXXXXXXXXXXXXXXXXXXXXXXXXXXXXXXXXXXXXXXXXXXXXXXXXXXXXXXXXXXXXXXXXXXXXXXXXXXXXXXXXXXXXXXXXXXXXXXXXX   oooooo    ",
"    oooooo   XXXXXXXXXXXXXXXXXXXXXXXXXXXXXXXXXXXXXXXXXXXXXXXXXXXXXXXXXXXXXXXXXXXXXXXXXXXXXXXXXXXXXXXXXXXXXXXXXXXXXX   oooooo    ",
"    oooooo   XXXXXXXXXXXXXXXXXXXXXXXXXXXXXXXXXXXXXXXXXXXXXXXXXXXXXXXXXXXXXXXXXXXXXXXXXXXXXXXXXXXXXXXXXXXXXXXXXXXXXX   oooooo    ",
"    oooooo   XXXXXXXXXXXXXXXXXXXXXXXXXXXXXXXXXXXXXXXXXXXXXXXXXXXXXXXXXXXXXXXXXXXXXXXXXXXXXXXXXXXXXXXXXXXXXXXXXXXXXX   oooooo    ",
"    oooooo   XXXXXXXXXXXXXXXXXXXXXXXXXXXXXXXXXXXXXXXXXXXXXXXXXXXXXXXXXXXXXXXXXXXXXXXXXXXXXXXXXXXXXXXXXXXXXXXXXXXXXX   oooooo    ",
"    oooooo   XXXXXXXXXXXXXXXXXXXXXXXXXXXXXXXXXXXXXXXXXXXXXXXXXXXXXXXXXXXXXXXXXXXXXXXXXXXXXXXXXXXXXXXXXXXXXXXXXXXXXX   oooooo    ",
"    oooooo   XXXXXXXXXXXXXXXXXXXXXXXXXXXXXXXXXXXXXXXXXXXXXXXXXXXXXXXXXXXXXXXXXXXXXXXXXXXXXXXXXXXXXXXXXXXXXXXXXXXXXX   oooooo    ",
"    oooooo   XXXXXXXXXXXXoooooooooooooooooooooXXXXXXXXXXXXXXXXXXXXXXXXXXXXXXXXXXXXXXXXXXXXXXXXXXXXXXXXXXXXXXXXXXXXX   oooooo    ",
"    oooooo   XXXXXXXXXXXXoooooooooooooooooooooXXXXXXXXXXXXXXXXXXXXXXXXXXXXXXXXXXXXXXXXXXXXXXXXXXXXXXXXXXXXXXXXXXXXX   oooooo    ",
"    oooooo   XXXXXXXXXXXXoooooooooooooooooooooXXXXXXXXXXXXXXXXXXXXXXXXXXXXXXXXXXXXXXXXXXXXXXXXXXXXXXXXXXXXXXXXXXXXX   ###@@@    ",
"    oooooo            .................................XXXXXX........................XXX..................            ###@@@    ",
"    oooooo            .................................XXXXXX........................XXX..................            ###@@@    ",
"    @@@###            .................................XXXXXX........................XXX..................            oooooo    ",
"    @@@###   ooooooooooooooooooooooooooooooooooooooooooooooooooooooXXXooooooooooooXXXXXXooooooooooooooooooooooooooo   oooooo    ",
"    @@@###   ooooooooooooooooooooooooooooooooooooooooooooooooooooooXXXooooooooooooXXXXXXooooooooooooooooooooooooooo   oooooo    ",
"    oooooo   ooooooooooooooooooooooooooooooooooooooooooooooooooooooXXXooooooooooooXXXXXXooooooooooooooooooooooooooo   ......    ",
"    oooooo   ooooooooooooooooooooooooooooooooooooooooooooooooooooooXXXooooooooooooooooooooooooooooooooooooooooooooo   ......    ",
"    oooooo   ooooooooooooooooooooooooooooooooooooooooooooooooooooooXXXooooooooooooooooooooooooooooooooooooooooooooo   ......    ",
"    ......   ooooooooooooooooooooooooooooooooooooooooooooooooooooooXXXooooooooooooooooooooooooooooooooooooooooooooo   ......    ",
"    ......   ooooooooooooooooooooooooooooooooooooooooooooooooooooooXXXooooooooooooooooooooooooooooooooooooooooooooo   ......    ",
"    ......   ooooooooooooooooooooooooooooooooooooooooooooooooooooooXXXooooooooooooooooooooooooooooooooooooooooooooo   ......    ",
"    ......   ooooooooooooooooooooooooooooooooooooooooooooooooooooooXXXooooooooooooooooooooooooooooooooooooooooooooo   XXXXXX    ",
"    ......   oooooooooooooooooooooooooooooooooooooooooooooooooooooooooooooooooooooooooooooooooooooooooooooooooooooo   XXXXXX    ",
"    ......   oooooooooooooooooooooooooooooooooooooooooooooooooooooooooooooooooooooooooooooooooooooooooooooooooooooo   XXXXXX    ",
"    XXXXXX   oooooooooooooooooooooooooooooooooooooooooooooooooooooooooooooooooooooooooooooooooooooooooooooooooooooo   XXXXXX    ",
"    XXXXXX   oooooooooooooooooooooooooooooooooooooooooooooooooooooooooooooooooooooooooooooooooooooooooooooooooooooo   XXXXXX    ",
"    XXXXXX   oooooooooooooooooooooooooooooooooooooooooooooooooooooooooooooooooooooooooooooooooooooooooooooooooooooo   XXXXXX    ",
"    XXXXXX   oooooooooooooooooooooooooooooooooooooooooooooooooooooooooooooooooooooooooooooooooooooooooooooooooooooo   XXXXXX    ",
"    XXXXXX   oooooooooooooooooooooooooooooooooooooooooooooooooooooooooooooooooooooooooooooooooooooooooooooooooooooo   XXXXXX    ",
"    XXXXXX   oooooooooooooooooooooooooooooooooooooooooooooooooooooooooooooooooooooooooooooooooooooooooooooooooooooo   XXXXXX    ",
"    XXXXXX   oooooooooooooooooooooooooooooooooooooooooooooooooooooooooooooooooooooooooooooooooooooooooooooooooooooo   XXXXXX    ",
"    XXXXXX   oooooooooooooooooooooooooooooooooooooooooooooooooooooooooooooooooooooooooooooooooooooooooooooooooooooo   XXXXXX    ",
"    XXXXXX   oooooooooooooooooooooooooooooooooooooooooooooooooooooooooooooooooooooooooooooooooooooooooooooooooooooo   XXXXXX    ",
"    XXXXXX...oooooooooooooooooooooooooooooooooooooooooooooooooooooooooooooooooooooooooooooooooooooooooooooooooooooo...XXXXXX    ",
"    XXXXXX...oooooooooooooooooooooooooooooooooooooooooooooooooooooooooooooooooooooooooooooooooooooooooooooooooooooo...XXXXXX    ",
"    XXXXXX...oooooooooooooooooooooooooooooooooooooooooooooooooooooooooooooooooooooooooooooooooooooooooooooooooooooo...XXXXXX    ",
"    XXXXXX...oooooooooooooooooooooooooooooooooooooooooooooooooooooooooooooooooooooooooooooooooooooooooooooooooooooo...XXXXXX    ",
"    XXXXXX...oooooooooooooooooooooooooooooooooooooooooooooooooooooooooooooooooooooooooooooooooooooooooooooooooooooo...XXXXXX    ",
"    XXXXXX...oooooooooooooooooooooooooooooooooooooooooooooooooooooooooooooooooooooooooooooooooooooooooooooooooooooo...XXXXXX    ",
"    XXXXXX...oooooooooooooooooooooooooooooooooooooooooooooooooooooooooooooooooooooooooooooooooooooooooooooooooooooo...XXXXXX    ",
"    XXXXXX...oooooooooooooooooooooooooooooooooooo+++++++++++++++++++++ooooooooooooooooooooooooooooooooooooooooooooo...XXXXXX    ",
"    XXXXXX...oooooooooooooooooooooooooooooooooooo+++++++++++++++++++++ooooooooooooooooooooooooooooooooooooooooooooo...XXXXXX    ",
"    XXXXXX...oooooooooooooooooooooooooooooooooooo+++++++++++++++++++++ooooooooooooooooooooooooooooooooooooooooooooo...XXXXXX    ",
"    XXXXXX...               XXX........................XXXXXXXXX.......................................            ...XXXXXX    ",
"    XXXXXX...               XXX........................XXXXXXXXX.......................................            ...XXXXXX    ",
"    XXXXXX...               XXX........................XXXXXXXXX.......................................            ...XXXXXX    ",
"    XXXXXX...XXXoooooooooXXXXXXoooooooooooooooooooooooooooooooooooooooooooooooooooooooooooooooooooooooooooooooooooo...XXXXXX    ",
"    XXXXXX...XXXoooooooooXXXXXXoooooooooooooooooooooooooooooooooooooooooooooooooooooooooooooooooooooooooooooooooooo...XXXXXX    ",
"    XXXXXX...XXXoooooooooXXXXXXoooooooooooooooooooooooooooooooooooooooooooooooooooooooooooooooooooooooooooooooooooo...XXXXXX    ",
"    XXXXXX...oooooooooooooooooooooooooooooooooooooooooooooooooooooooooooooooooooooooooooooooooooooooooooooooooooooo...XXXXXX    ",
"    XXXXXX...oooooooooooooooooooooooooooooooooooooooooooooooooooooooooooooooooooooooooooooooooooooooooooooooooooooo...XXXXXX    ",
"    XXXXXX...oooooooooooooooooooooooooooooooooooooooooooooooooooooooooooooooooooooooooooooooooooooooooooooooooooooo...XXXXXX    ",
"    XXXXXX...oooooooooooooooooooooooooooooooooooooooooooooooooooooooooooooooooooooooooooooooooooooooooooooooooooooo...XXXXXX    ",
"    XXXXXX...oooooooooooooooooooooooooooooooooooooooooooooooooooooooooooooooooooooooooooooooooooooooooooooooooooooo...XXXXXX    ",
"    XXXXXX   oooooooooooooooooooooooooooooooooooooooooooooooooooooooooooooooooooooooooooooooooooooooooooooooooooooo   XXXXXX    ",
"    XXXXXX   oooooooooooooooooooooooooooooooooooooooooooooooooooooooooooooooooooooooooooooooooooooooooooooooooooooo   XXXXXX    ",
"    XXXXXX   oooooooooooooooooooooooooooooooooooooooooooooooooooooooooooooooooooooooooooooooooooooooooooooooooooooo   XXXXXX    ",
"    XXXXXX   oooooooooooooooooooooooooooooooooooooooooooooooooooooooooooooooooooooooooooooooooooooooooooooooooooooo   XXXXXX    ",
"    XXXXXX   oooooooooooooooooooooooooooooooooooooooooooooooooooooooooooooooooooooooooooooooooooooooooooooooooooooo   XXXXXX    ",
"    XXXXXX   oooooooooooooooooooooooooooooooooooooooooooooooooooooooooooooooooooooooooooooooooooooooooooooooooooooo   XXXXXX    ",
"....XXXXXX   oooooooooooooooooooooooooooooooooooooooooooooooooooooooooooooooooooooooooooooooooooooooooooooooooooooo   XXXXXX....",
"....XXXXXX   oooooooooooooooooooooooooooooooooooooooooooooooooooooooooooooooooooooooooooooooooooooooooooooooooooooo   XXXXXX....",
"....XXXXXX   oooooooooooooooooooooooooooooooooooooooooooooooooooooooooooooooooooooooooooooooooooooooooooooooooooooo   XXXXXX....",
"....XXXXXX   oooooooooooooooooooooooooooooooooooooooooooooooooooooooooooooooooooooooooooooooooooooooooooooooooooooo   XXXXXX....",
"....XXXXXX   oooooooooooooooooooooooooooooooooooooooooooooooooooooooooooooooooooooooooooooooooooooooooooooooooooooo   XXXXXX....",
"....XXXXXX   oooooooooooooooooooooooooooooooooooooooooooooooooooooooooooooooooooooooooooooooooooooooooooooooooooooo   XXXXXX....",
"    XXXXXX   oooooooooooooooooooooooooooooooooooooooooooooooooooooooooooooooooooooooooooooooooooooooooooooooooooooo   XXXXXX    ",
"    XXXXXX   oooooooooooooooooooooooooooooooooooooooooooooooooooooooooooooooooooooooooooooooooooooooooooooooooooooo   XXXXXX    ",
"    XXXXXX   oooooooooooooooooooooooooooooooooooooooooooooooooooooooooooooooooooooooooooooooooooooooooooooooooooooo   XXXXXX    ",
"    XXXXXX   oooooooooooooooooooooooooooooooooooooooooooooooooooooooooooooooooooooooooooooooooooooooooooooooooooooo   XXXXXX    ",
"    XXXXXX   XXXoooooooooooooooooooooooooooooooooooo+++++++++++++++++++++oooooooooooooooooooooooooooooooooooooooXXX   XXXXXX    ",
"    XXXXXX   XXXoooooooooooooooooooooooooooooooooooo+++++++++++++++++++++oooooooooooooooooooooooooooooooooooooooXXX   XXXXXX    ",
"    XXXXXX   XXXoooooooooooooooooooooooooooooooooooo+++++++++++++++++++++oooooooooooooooooooooooooooooooooooooooXXX   XXXXXX    ",
"    XXXXXX            .................................XXXXXXXXXXXX..........................................         XXXXXX    ",
"    XXXXXX            .................................XXXXXXXXXXXX..........................................         XXXXXX    ",
"    XXXXXX            .................................XXXXXXXXXXXX..........................................         XXXXXX    ",
"    XXXXXX   ...XXXooooooooooooooooooooooooooo++++++++++++++++++oooooooooooooooooooooooooooooooooooooooooooooXXX...   XXXXXX    ",
"    XXXXXX   ...XXXooooooooooooooooooooooooooo++++++++++++++++++oooooooooooooooooooooooooooooooooooooooooooooXXX...   XXXXXX    ",
"    ......   ...XXXooooooooooooooooooooooooooo++++++++++++++++++oooooooooooooooooooooooooooooooooooooooooooooXXX...   ......    ",
"    ......                                                                                                            ......    ",
"    ......                                                                                                            ......    ",
"    ......                                                                                                            ......    ",
"    ......      .........XXXXXXXXXXXXXXXXXXXXXXXXXXXXXXXXXXXXXXXXXXXXXoooooooooXXXXXXXXXXXXXXXXXXXXX............      ......    ",
"    ......      .........XXXXXXXXXXXXXXXXXXXXXXXXXXXXXXXXXXXXXXXXXXXXXoooooooooXXXXXXXXXXXXXXXXXXXXX............      ......    ",
"    ......      .........XXXXXXXXXXXXXXXXXXXXXXXXXXXXXXXXXXXXXXXXXXXXXoooooooooXXXXXXXXXXXXXXXXXXXXX............      ......    ",
"    ......                  .........XXX.........XXX.........XXX.........XXX.........XXX.........                     ......    ",
"    ......                  .........XXX.........XXX.........XXX.........XXX.........XXX.........                     ......    ",
"    ......                  .........XXX.........XXX.........XXX.........XXX.........XXX.........                     ......    ",
"    ......                  .........XXX.........XXX.........XXX.........XXX.........XXX.........                     ......    ",
"    ......                  .........XXX.........XXX.........XXX.........XXX.........XXX.........                     ......    ",
"    ......                  .........XXX.........XXX.........XXX.........XXX.........XXX.........                     ......    ",
"    ......      .........XXXXXXXXXXXXXXXXXXXXXooooooXXXXXXXXXXXXXXXXXXXXXXXXXXXXXXXXXXXXXXXXXXXXXXXX............      ......    ",
"    ......      .........XXXXXXXXXXXXXXXXXXXXXooooooXXXXXXXXXXXXXXXXXXXXXXXXXXXXXXXXXXXXXXXXXXXXXXXX............      ......    ",
"    ......      .........XXXXXXXXXXXXXXXXXXXXXooooooXXXXXXXXXXXXXXXXXXXXXXXXXXXXXXXXXXXXXXXXXXXXXXXX............      ......    ",
"    ......                        ............................................................                        ......    ",
"    ......                        ............................................................                        ......    ",
"    ......                        ............................................................                        ......    ",
"    ......      .........XXXooooooooo+++++++++++++++++++++++++++++++++++++++++++++++++++ooooooooooooXXX.........      ......    ",
"    ......      .........XXXooooooooo+++++++++++++++++++++++++++++++++++++++++++++++++++ooooooooooooXXX.........      ......    ",
"    ......   ooo   ......XXXooooooooo+++++++++++++++++++++++++++++++++++++++++++++++++++ooooooooooooXXX......   ooo   ......   .",
"    ......   ooo               ..................................................................               ooo   ......   .",
"    ......   ooo               ..................................................................               ooo   ......   .",
"    .........oooooo            ..................................................................            oooooo.........   X",
"    .........oooooo   ooooooooo++++++++++++++++++++++++++++++oooXXXXXX   XXXXXXooo+++++++++++++++oooooo      oooooo.........   X",
"    .........oooooo   ooooooooo++++++++++++++++++++++++++++++oooXXXXXX   XXXXXXooo+++++++++++++++oooooo      oooooo.........   X",
"    ............oooXXX   XXXooooooooooooooooooooooooooooooooooooXXX...   ...XXXoooooooooooooooooooooXXX   XXXooo............   X",
"    ............oooXXX   XXXooooooooooooooooooooooooooooooooooooXXX...   ...XXXoooooooooooooooooooooXXX   XXXooo............   X",
"    ............oooXXX   XXXooooooooooooooooooooooooooooooooooooXXX...   ...XXXoooooooooooooooooooooXXX   XXXooo............   X",
"       ............XXX         ..................................................................         XXX............       ",
"       ............XXX         ..................................................................         XXX............       ",
"       ............XXX         ..................................................................         XXX............       ",
"          ............   XXXooooooooooooooooooooooooooooooooooooooooooooooooooooooooooooooooooooooooXXX   ............         X",
"          ............   XXXooooooooooooooooooooooooooooooooooooooooooooooooooooooooooooooooooooooooXXX   ............         X",
"          ............   XXXooooooooooooooooooooooooooooooooooooooooooooooooooooooooooooooooooooooooXXX   ............         X",
"             ......   XXXooooooOOOOOOooooooOOOOOOooooooOOOOOOooooooOOOOOOooooooOOOOOOooooooOOOOOOooooooXXX   ......            X",
"             ......   XXXooooooOOOOOOooooooOOOOOOooooooOOOOOOooooooOOOOOOooooooOOOOOOooooooOOOOOOooooooXXX   ......            X",
"             ......   XXXooooooOOOOOOooooooOOOOOOooooooOOOOOOooooooOOOOOOooooooOOOOOOooooooOOOOOOooooooXXX   ......            X",
"    ...   XXXXXXooooooooooooOOOOOOooooooOOOOOOooooooOOOOOOooooooooooooOOOOOOooooooOOOOOOooooooOOOOOOooooooooooooXXXXXX   ...   X",
"    ...   XXXXXXooooooooooooOOOOOOooooooOOOOOOooooooOOOOOOooooooooooooOOOOOOooooooOOOOOOooooooOOOOOOooooooooooooXXXXXX   ...   X",
"    ...   XXXXXXooooooooooooOOOOOOooooooOOOOOOooooooOOOOOOooooooooooooOOOOOOooooooOOOOOOooooooOOOOOOooooooooooooXXXXXX   ...   X",
"    ......XXXXXXXXXooooooooooooooooooooooooooooooooooooooooooooooooooooooooooooooooooooooooooooooooooooooooooXXXXXXXXX......    "
};
