/* XPM */
static char *result[] = {
/* columns rows colors chars-per-pixel */
"128 128 8 1 ",
"  c #0F0F18",
". c #192032",
"X c #2D3853",
"o c #3F536C",
"O c #BF5F1F",
"+ c #5B758B",
"@ c #88A3B5",
"# c #BED2DC",
/* pixels */
"    +++@@@   XXXXXXXXXXXXXXXXXXXXXXXXXXXXXXXXXXXXXXXXXXXXXXXXXXXXXXXXXXXXXXXXXXXXXXXXXXXXXXXXXXXXXXXXXXXXXXXXXXXXXX   @@@+++    ",
"    oooooo   XXXXXXXXXXXXXXXXXXXXXXXXXXXXXXXXXXXXXXXXXXXXXXXXXXXXXXXXXXXXXXXXXXXXXXXXXXXXXXXXXXXXXXXXXXXXXXXXXXXXXX   oooooo    ",
"    oooooo   XXXXXXXXXXXXXXXXXXXXXXXXXXXXXXXXXXXXXXXXXXXXXXXXXXXXXXXXXXXXXXXXXXXXXXXXXXXXXXXXXXXXXXXXXXXXXXXXXXXXXX   oooooo    ",
"    oooooo   XXXXXXXXXXXXXXXXXXXXXXXXXXXXXXXXXXXXXXXXXXXXXXXXXXXXXXXXXXXXXXXXXXXXXXXXXXXXXXXXXXXXXXXXXXXXXXXXXXXXXX   oooooo    ",
"    oooooo   XXXXXXXXXXXXXXXXXXXXXXXXXXXXXXXXXXXXXXXXXXXXXXXXXXXXXXXXXXXXXXXXXXXXXXXXXXXXXXXXXXXXXXXXXXXXXXXXXXXXXX   oooooo    ",
"    oooooo   XXXXXXXXXXXXoooooooooooooooooooooXXXXXXXXXXXXXXXXXXXXXXXXXXXXXXXXXXXXXXXXXXXXXXXXXXXXXXXXXXXXXXXXXXXXX   oooooo    ",
"    oooooo   XXXXXXXXXXXXoooooooooooooooooooooXXXXXXXXXXXXXXXXXXXXXXXXXXXXXXXXXXXXXXXXXXXXXXXXXXXXXXXXXXXXXXXXXXXXX   oooooo    ",
"    oooooo   XXXXXXXXXXXXoooooooooooooooooooooXXXXXXXXXXXXXXXXXXXXXXXXXXXXXXXXXXXXXXXXXXXXXXXXXXXXXXXXXXXXXXXXXXXXX   oooooo    ",
"    oooooo            .................................XXXXXX........................XXX..................            oooooo    ",
"    oooooo            .................................XXXXXX........................XXX..................            oooooo    ",
"    oooooo            .................................XXXXXX........................XXX..................            oooooo    ",
"    oooooo   ooooooooooooooooooooooooooooooooooooooooooooooooooooooXXXooooooooooooXXXXXXooooooooooooooooooooooooooo   oooooo    ",
"    oooooo   ooooooooooooooooooooooooooooooooooooooooooooooooooooooXXXooooooooooooXXXXXXooooooooooooooooooooooooooo   oooooo    ",
"    oooooo   ooooooooooooooooooooooooooooooooooooooooooooooooooooooXXXooooooooooooXXXXXXooooooooooooooooooooooooooo   oooooo    ",
"    oooooo   ooooooooooooooooooooooooooooooooooooooooooooooooooooooXXXooooooooooooooooooooooooooooooooooooooooooooo   oooooo    ",
"    oooooo   ooooooooooooooooooooooooooooooooooooooooooooooooooooooXXXooooooooooooooooooooooooooooooooooooooooooooo   oooooo    ",
"    oooooo   ooooooooooooooooooooooooooooooooooooooooooooooooooooooXXXooooooooooooooooooooooooooooooooooooooooooooo   ###@@@    ",
"    oooooo   ooooooooooooooooooooooooooooooooooooooooooooooooooooooXXXooooooooooooooooooooooooooooooooooooooooooooo   ###@@@    ",
"    oooooo   ooooooooooooooooooooooooooooooooooooooooooooooooooooooXXXooooooooooooooooooooooooooooooooooooooooooooo   ###@@@    ",
"    @@@###   ooooooooooooooooooooooooooooooooooooooooooooooooooooooXXXooooooooooooooooooooooooooooooooooooooooooooo   oooooo    ",
"    @@@###   oooooooooooooooooooooooooooooooooooooooooooooooooooooooooooooooooooooooooooooooooooooooooooooooooooooo   oooooo    ",
"    @@@###   oooooooooooooooooooooooooooooooooooooooooooooooooooooooooooooooooooooooooooooooooooooooooooooooooooooo   oooooo    ",
"    oooooo   oooooooooooooooooooooooooooooooooooooooooooooooooooooooooooooooooooooooooooooooooooooooooooooooooooooo   ......    ",
"    oooooo   oooooooooooooooooooooooooooooooooooooooooooooooooooooooooooooooooooooooooooooooooooooooooooooooooooooo   ......    ",
"    oooooo   oooooooooooooooooooooooooooooooooooooooooooooooooooooooooooooooooooooooooooooooooooooooooooooooooooooo   ......    ",
"    ......   oooooooooooooooooooooooooooooooooooooooooooooooooooooooooooooooooooooooooooooooooooooooooooooooooooooo   ......    ",
"    ......   oooooooooooooooooooooooooooooooooooooooooooooooooooooooooooooooooooooooooooooooooooooooooooooooooooooo   ......    ",
"    ......   oooooooooooooooooooooooooooooooooooooooooooooooooooooooooooooooooooooooooooooooooooooooooooooooooooooo   ......    ",
"    ......   oooooooooooooooooooooooooooooooooooooooooooooooooooooooooooooooooooooooooooooooooooooooooooooooooooooo   XXXXXX    ",
"    ......   oooooooooooooooooooooooooooooooooooooooooooooooooooooooooooooooooooooooooooooooooooooooooooooooooooooo   XXXXXX    ",
"    ......   oooooooooooooooooooooooooooooooooooooooooooooooooooooooooooooooooooooooooooooooooooooooooooooooooooooo   XXXXXX    ",
"    XXXXXX   oooooooooooooooooooooooooooooooooooooooooooooooooooooooooooooooooooooooooooooooooooooooooooooooooooooo   XXXXXX    ",
"    XXXXXX   oooooooooooooooooooooooooooooooooooooooooooooooooooooooooooooooooooooooooooooooooooooooooooooooooooooo   XXXXXX    ",
"    XXXXXX   oooooooooooooooooooooooooooooooooooooooooooooooooooooooooooooooooooooooooooooooooooooooooooooooooooooo   XXXXXX    ",
"    XXXXXX   oooooooooooooooooooooooooooooooooooooooooooooooooooooooooooooooooooooooooooooooooooooooooooooooooooooo   XXXXXX    ",
"    XXXXXX   oooooooooooooooooooooooooooooooooooooooooooooooooooooooooooooooooooooooooooooooooooooooooooooooooooooo   XXXXXX    ",
"    XXXXXX   oooooooooooooooooooooooooooooooooooooooooooooooooooooooooooooooooooooooooooooooooooooooooooooooooooooo   XXXXXX    ",
"    XXXXXX   oooooooooooooooooooooooooooooooooooooooooooooooooooooooooooooooooooooooooooooooooooooooooooooooooooooo   XXXXXX    ",
"    XXXXXX   oooooooooooooooooooooooooooooooooooo+++++++++++++++++++++ooooooooooooooooooooooooooooooooooooooooooooo   XXXXXX    ",
"    XXXXXX   oooooooooooooooooooooooooooooooooooo+++++++++++++++++++++ooooooooooooooooooooooooooooooooooooooooooooo   XXXXXX    ",
"    XXXXXX...oooooooooooooooooooooooooooooooooooo+++++++++++++++++++++ooooooooooooooooooooooooooooooooooooooooooooo...XXXXXX    ",
"    XXXXXX...               XXX........................XXXXXXXXX.......................................            ...XXXXXX    ",
"    XXXXXX...               XXX........................XXXXXXXXX.......................................            ...XXXXXX    ",
"    XXXXXX...               XXX........................XXXXXXXXX.......................................            ...XXXXXX    ",
"    XXXXXX...XXXoooooooooXXXXXXoooooooooooooooooooooooooooooooooooooooooooooooooooooooooooooooooooooooooooooooooooo...XXXXXX    ",
"    XXXXXX...XXXoooooooooXXXXXXoooooooooooooooooooooooooooooooooooooooooooooooooooooooooooooooooooooooooooooooooooo...XXXXXX    ",
"    XXXXXX...XXXoooooooooXXXXXXoooooooooooooooooooooooooooooooooooooooooooooooooooooooooooooooooooooooooooooooooooo...XXXXXX    ",
"    XXXXXX...oooooooooooooooooooooooooooooooooooooooooooooooooooooooooooooooooooooooooooooooooooooooooooooooooooooo...XXXXXX    ",
"    XXXXXX...oooooooooooooooooooooooooooooooooooooooooooooooooooooooooooooooooooooooooooooooooooooooooooooooooooooo...XXXXXX    ",
"    XXXXXX...oooooooooooooooooooooooooooooooooooooooooooooooooooooooooooooooooooooooooooooooooooooooooooooooooooooo...XXXXXX    ",
"    XXXXXX...oooooooooooooooooooooooooooooooooooooooooooooooooooooooooooooooooooooooooooooooooooooooooooooooooooooo...XXXXXX    ",
"    XXXXXX...oooooooooooooooooooooooooooooooooooooooooooooooooooooooooooooooooooooooooooooooooooooooooooooooooooooo...XXXXXX    ",
"    XXXXXX...oooooooooooooooooooooooooooooooooooooooooooooooooooooooooooooooooooooooooooooooooooooooooooooooooooooo...XXXXXX    ",
"    XXXXXX...oooooooooooooooooooooooooooooooooooooooooooooooooooooooooooooooooooooooooooooooooooooooooooooooooooooo...XXXXXX    ",
"    XXXXXX...oooooooooooooooooooooooooooooooooooooooooooooooooooooooooooooooooooooooooooooooooooooooooooooooooooooo...XXXXXX    ",
"    XXXXXX...oooooooooooooooooooooooooooooooooooooooooooooooooooooooooooooooooooooooooooooooooooooooooooooooooooooo...XXXXXX    ",
"    XXXXXX...oooooooooooooooooooooooooooooooooooooooooooooooooooooooooooooooooooooooooooooooooooooooooooooooooooooo...XXXXXX    ",
"    XXXXXX...oooooooooooooooooooooooooooooooooooooooooooooooooooooooooooooooooooooooooooooooooooooooooooooooooooooo...XXXXXX    ",
"    XXXXXX...oooooooooooooooooooooooooooooooooooooooooooooooooooooooooooooooooooooooooooooooooooooooooooooooooooooo...XXXXXX    ",
"    XXXXXX...oooooooooooooooooooooooooooooooooooooooooooooooooooooooooooooooooooooooooooooooooooooooooooooooooooooo...XXXXXX    ",
"    XXXXXX...oooooooooooooooooooooooooooooooooooooooooooooooooooooooooooooooooooooooooooooooooooooooooooooooooooooo...XXXXXX    ",
"    XXXXXX   oooooooooooooooooooooooooooooooooooooooooooooooooooooooooooooooooooooooooooooooooooooooooooooooooooooo   XXXXXX    ",
"    XXXXXX   oooooooooooooooooooooooooooooooooooooooooooooooooooooooooooooooooooooooooooooooooooooooooooooooooooooo   XXXXXX    ",
"    XXXXXX   oooooooooooooooooooooooooooooooooooooooooooooooooooooooooooooooooooooooooooooooooooooooooooooooooooooo   XXXXXX    ",
"    XXXXXX   oooooooooooooooooooooooooooooooooooooooooooooooooooooooooooooooooooooooooooooooooooooooooooooooooooooo   XXXXXX    ",
"    XXXXXX   oooooooooooooooooooooooooooooooooooooooooooooooooooooooooooooooooooooooooooooooooooooooooooooooooooooo   XXXXXX    ",
"    XXXXXX   oooooooooooooooooooooooooooooooooooooooooooooooooooooooooooooooooooooooooooooooooooooooooooooooooooooo   XXXXXX    ",
"....XXXXXX   oooooooooooooooooooooooooooooooooooooooooooooooooooooooooooooooooooooooooooooooooooooooooooooooooooooo   XXXXXX....",
"....XXXXXX   XXXoooooooooooooooooooooooooooooooooooo+++++++++++++++++++++oooooooooooooooooooooooooooooooooooooooXXX   XXXXXX....",
"....XXXXXX   XXXoooooooooooooooooooooooooooooooooooo+++++++++++++++++++++oooooooooooooooooooooooooooooooooooooooXXX   XXXXXX....",
"....XXXXXX   XXXoooooooooooooooooooooooooooooooooooo+++++++++++++++++++++oooooooooooooooooooooooooooooooooooooooXXX   XXXXXX....",
"....XXXXXX            .................................XXXXXXXXXXXX..........................................         XXXXXX....",
"....XXXXXX            .................................XXXXXXXXXXXX..........................................         XXXXXX....",
"    XXXXXX            .................................XXXXXXXXXXXX..........................................         XXXXXX    ",
"    XXXXXX   ...XXXooooooooooooooooooooooooooo++++++++++++++++++oooooooooooooooooooooooooooooooooooooooooooooXXX...   XXXXXX    ",
"    XXXXXX   ...XXXooooooooooooooooooooooooooo++++++++++++++++++oooooooooooooooooooooooooooooooooooooooooooooXXX...   XXXXXX    ",
"    XXXXXX   ...XXXooooooooooooooooooooooooooo++++++++++++++++++oooooooooooooooooooooooooooooooooooooooooooooXXX...   XXXXXX    ",
"    XXXXXX                                                                                                            XXXXXX    ",
"    XXXXXX                                                                                                            XXXXXX    ",
"    XXXXXX                                                                                                            XXXXXX    ",
"    XXXXXX      .........XXXXXXXXXXXXXXXXXXXXXXXXXXXXXXXXXXXXXXXXXXXXXoooooooooXXXXXXXXXXXXXXXXXXXXX............      XXXXXX    ",
"    XXXXXX      .........XXXXXXXXXXXXXXXXXXXXXXXXXXXXXXXXXXXXXXXXXXXXXoooooooooXXXXXXXXXXXXXXXXXXXXX............      XXXXXX    ",
"    XXXXXX      .........XXXXXXXXXXXXXXXXXXXXXXXXXXXXXXXXXXXXXXXXXXXXXoooooooooXXXXXXXXXXXXXXXXXXXXX............      XXXXXX    ",
"    XXXXXX                  .........XXX.........XXX.........XXX.........XXX.........XXX.........                     XXXXXX    ",
"    XXXXXX                  .........XXX.........XXX.........XXX.........XXX.........XXX.........                     XXXXXX    ",
"    ......                  .........XXX.........XXX.........XXX.........XXX.........XXX.........                     ......    ",
"    ......                  .........XXX.........XXX.........XXX.........XXX.........XXX.........                     ......    ",
"    ......                  .........XXX.........XXX.........XXX.........XXX.........XXX.........                     ......    ",
"    ......                  .........XXX.........XXX.........XXX.........XXX.........XXX.........                     ......    ",
"    ......      .........XXXXXXXXXXXXXXXXXXXXXooooooXXXXXXXXXXXXXXXXXXXXXXXXXXXXXXXXXXXXXXXXXXXXXXXX............      ......    ",
"    ......      .........XXXXXXXXXXXXXXXXXXXXXooooooXXXXXXXXXXXXXXXXXXXXXXXXXXXXXXXXXXXXXXXXXXXXXXXX............      ......    ",
"    ......      .........XXXXXXXXXXXXXXXXXXXXXooooooXXXXXXXXXXXXXXXXXXXXXXXXXXXXXXXXXXXXXXXXXXXXXXXX............      ......    ",
"    ......                        ............................................................                        ......    ",
"    ......                        ............................................................                        ......    ",
"    ......                        ............................................................                        ......    ",
"    ......      .........XXXooooooooo+++++++++++++++++++++++++++++++++++++++++++++++++++ooooooooooooXXX.........      ......    ",
"    ......      .........XXXooooooooo+++++++++++++++++++++++++++++++++++++++++++++++++++ooooooooooooXXX.........      ......    ",
"    ......      .........XXXooooooooo+++++++++++++++++++++++++++++++++++++++++++++++++++ooooooooooooXXX.........      ......    ",
"    ......                     ..................................................................                     ......    ",
"    ......                     ..................................................................                     ......    ",
"    ......                     ..................................................................                     ......    ",
"    ......   ...oooooo++++++++++++++++++++++++++++++++++++++++++XXX+++...XXX++++++++++++++++++++++++++++++oooooo      ......    ",
"    ......   ...oooooo++++++++++++++++++++++++++++++++++++++++++XXX+++...XXX++++++++++++++++++++++++++++++oooooo      ......    ",
"    ......      ooo++++++++++++++++++++++++++++++++++++++++++oooXXX+++   XXXooo++++++++++++++++++++++++++++++ooo      ......    ",
"    ......      ooo++++++++++++++++++++++++++++++++++++++++++oooXXX+++   XXXooo++++++++++++++++++++++++++++++ooo      ......    ",
"    ......      ooo++++++++++++++++++++++++++++++++++++++++++oooXXX+++   XXXooo++++++++++++++++++++++++++++++ooo      ......    ",
"    ......   ooo   ...XXXXXXXXXXXXXXXXXXXXXXXXXXXXXXXXX...............   ...............XXXXXXXXXXXXXXXXXXXXX   ooo   ......   .",
"    ......   ooo   ...XXXXXXXXXXXXXXXXXXXXXXXXXXXXXXXXX...............   ...............XXXXXXXXXXXXXXXXXXXXX   ooo   ......   .",
"    ......   ooo   ...XXXXXXXXXXXXXXXXXXXXXXXXXXXXXXXXX...............   ...............XXXXXXXXXXXXXXXXXXXXX   ooo   ......   .",
"    .........oooooo   ooooooooo++++++++++++++++++++++++++++++oooXXXXXX   XXXXXXooo+++++++++++++++oooooo      oooooo.........   X",
"    .........oooooo   ooooooooo++++++++++++++++++++++++++++++oooXXXXXX   XXXXXXooo+++++++++++++++oooooo      oooooo.........   X",
"    .........oooooo   ooooooooo++++++++++++++++++++++++++++++oooXXXXXX   XXXXXXooo+++++++++++++++oooooo      oooooo.........   X",
"    ............oooXXX   XXXooooooooooooooooooooooooooooooooooooXXX...   ...XXXoooooooooooooooooooooXXX   XXXooo............   X",
"    ............oooXXX   XXXooooooooooooooooooooooooooooooooooooXXX...   ...XXXoooooooooooooooooooooXXX   XXXooo............   X",
"    ............oooXXX   XXXooooooooooooooooooooooooooooooooooooXXX...   ...XXXoooooooooooooooooooooXXX   XXXooo............   X",
"       ............XXX         ..................................................................         XXX............       ",
"       ............XXX         ..................................................................         XXX............       ",
"       ............XXX         ..................................................................         XXX............       ",
"          ............   XXXooooooooooooooooooooooooooooooooooooooooooooooooooooooooooooooooooooooooXXX   ............         X",
"          ............   XXXooooooooooooooooooooooooooooooooooooooooooooooooooooooooooooooooooooooooXXX   ............         X",
"          ............   XXXooooooooooooooooooooooooooooooooooooooooooooooooooooooooooooooooooooooooXXX   ............         X",
"             ......   XXXooooooOOOOOOooooooOOOOOOooooooOOOOOOooooooOOOOOOooooooOOOOOOooooooOOOOOOooooooXXX   ......            X",
"             ......   XXXooooooOOOOOOooooooOOOOOOooooooOOOOOOooooooOOOOOOooooooOOOOOOooooooOOOOOOooooooXXX   ......            X",
"             ......   XXXooooooOOOOOOooooooOOOOOOooooooOOOOOOooooooOOOOOOooooooOOOOOOooooooOOOOOOooooooXXX   ......            X",
"    ...   XXXXXXooooooooooooOOOOOOooooooOOOOOOooooooOOOOOOooooooooooooOOOOOOooooooOOOOOOooooooOOOOOOooooooooooooXXXXXX   ...   X",
"    ...   XXXXXXooooooooooooOOOOOOooooooOOOOOOooooooOOOOOOooooooooooooOOOOOOooooooOOOOOOooooooOOOOOOooooooooooooXXXXXX   ...   X",
"    ...   XXXXXXooooooooooooOOOOOOooooooOOOOOOooooooOOOOOOooooooooooooOOOOOOooooooOOOOOOooooooOOOOOOooooooooooooXXXXXX   ...   X",
"    ......XXXXXXXXXooooooooooooooooooooooooooooooooooooooooooooooooooooooooooooooooooooooooooooooooooooooooooXXXXXXXXX......    "
};
