/* XPM */
static char *result[] = {
/* columns rows colors chars-per-pixel */
"128 128 10 1 ",
"  c #0F0F18",
". c #192032",
"X c #2D3853",
"o c #3F536C",
"O c #BF5F1F",
"+ c #5B758B",
"@ c #919A9D",
"# c #88A3B5",
"$ c #BDD1DB",
"% c #BED2DC",
/* pixels */
"    +++###   oooooooooooooooooooooooooooooooooooo+++++++++++++++++++++ooooooooooooooooooooooooooooooooooooooooooooo   ###+++    ",
"    oooooo   oooooooooooooooooooooooooooooooooooo+++++++++++++++++++++ooooooooooooooooooooooooooooooooooooooooooooo   oooooo    ",
"    oooooo                  XXX........................XXXXXXXXX.......................................               oooooo    ",
"    oooooo                  XXX........................XXXXXXXXX.......................................               oooooo    ",
"    oooooo                  XXX........................XXXXXXXXX.......................................               oooooo    ",
"    oooooo   XXXoooooooooXXXXXXoooooooooooooooooooooooooooooooooooooooooooooooooooooooooooooooooooooooooooooooooooo   oooooo    ",
"    oooooo   XXXoooooooooXXXXXXoooooooooooooooooooooooooooooooooooooooooooooooooooooooooooooooooooooooooooooooooooo   oooooo    ",
"    oooooo   XXXoooooooooXXXXXXoooooooooooooooooooooooooooooooooooooooooooooooooooooooooooooooooooooooooooooooooooo   oooooo    ",
"    oooooo   oooooooooooooooooooooooooooooooooooooooooooooooooooooooooooooooooooooooooooooooooooooooooooooooooooooo   oooooo    ",
"    oooooo   oooooooooooooooooooooooooooooooooooooooooooooooooooooooooooooooooooooooooooooooooooooooooooooooooooooo   oooooo    ",
"    oooooo   oooooooooooooooooooooooooooooooooooooooooooooooooooooooooooooooooooooooooooooooooooooooooooooooooooooo   oooooo    ",
"    oooooo   oooooooooooooooooooooooooooooooooooooooooooooooooooooooooooooooooooooooooooooooooooooooooooooooooooooo   oooooo    ",
"    oooooo   oooooooooooooooooooooooooooooooooooooooooooooooooooooooooooooooooooooooooooooooooooooooooooooooooooooo   oooooo    ",
"    oooooo   oooooooooooooooooooooooooooooooooooooooooooooooooooooooooooooooooooooooooooooooooooooooooooooooooooooo   oooooo    ",
"    oooooo   oooooooooooooooooooooooooooooooooooooooooooooooooooooooooooooooooooooooooooooooooooooooooooooooooooooo   oooooo    ",
"    oooooo   oooooooooooooooooooooooooooooooooooooooooooooooooooooooooooooooooooooooooooooooooooooooooooooooooooooo   oooooo    ",
"    oooooo   oooooooooooooooooooooooooooooooooooooooooooooooooooooooooooooooooooooooooooooooooooooooooooooooooooooo   %%%###    ",
"    oooooo   oooooooooooooooooooooooooooooooooooooooooooooooooooooooooooooooooooooooooooooooooooooooooooooooooooooo   %%%###    ",
"    oooooo   oooooooooooooooooooooooooooooooooooooooooooooooooooooooooooooooooooooooooooooooooooooooooooooooooooooo   %%%###    ",
"    ###%%%   oooooooooooooooooooooooooooooooooooooooooooooooooooooooooooooooooooooooooooooooooooooooooooooooooooooo   oooooo    ",
"    ###%%%   oooooooooooooooooooooooooooooooooooooooooooooooooooooooooooooooooooooooooooooooooooooooooooooooooooooo   oooooo    ",
"    ###%%%   oooooooooooooooooooooooooooooooooooooooooooooooooooooooooooooooooooooooooooooooooooooooooooooooooooooo   oooooo    ",
"    oooooo   oooooooooooooooooooooooooooooooooooooooooooooooooooooooooooooooooooooooooooooooooooooooooooooooooooooo   ......    ",
"    oooooo   oooooooooooooooooooooooooooooooooooooooooooooooooooooooooooooooooooooooooooooooooooooooooooooooooooooo   ......    ",
"    oooooo   oooooooooooooooooooooooooooooooooooooooooooooooooooooooooooooooooooooooooooooooooooooooooooooooooooooo   ......    ",
"    ......   oooooooooooooooooooooooooooooooooooooooooooooooooooooooooooooooooooooooooooooooooooooooooooooooooooooo   ......    ",
"    ......   oooooooooooooooooooooooooooooooooooooooooooooooooooooooooooooooooooooooooooooooooooooooooooooooooooooo   ......    ",
"    ......   oooooooooooooooooooooooooooooooooooooooooooooooooooooooooooooooooooooooooooooooooooooooooooooooooooooo   ......    ",
"    ......   oooooooooooooooooooooooooooooooooooooooooooooooooooooooooooooooooooooooooooooooooooooooooooooooooooooo   XXXXXX    ",
"    ......   XXXoooooooooooooooooooooooooooooooooooo+++++++++++++++++++++oooooooooooooooooooooooooooooooooooooooXXX   XXXXXX    ",
"    ......   XXXoooooooooooooooooooooooooooooooooooo+++++++++++++++++++++oooooooooooooooooooooooooooooooooooooooXXX   XXXXXX    ",
"    XXXXXX   XXXoooooooooooooooooooooooooooooooooooo+++++++++++++++++++++oooooooooooooooooooooooooooooooooooooooXXX   XXXXXX    ",
"    XXXXXX            .................................XXXXXXXXXXXX..........................................         XXXXXX    ",
"    XXXXXX            .................................XXXXXXXXXXXX..........................................         XXXXXX    ",
"    XXXXXX            .................................XXXXXXXXXXXX..........................................         XXXXXX    ",
"    XXXXXX   ...XXXooooooooooooooooooooooooooo++++++++++++++++++oooooooooooooooooooooooooooooooooooooooooooooXXX...   XXXXXX    ",
"    XXXXXX   ...XXXooooooooooooooooooooooooooo++++++++++++++++++oooooooooooooooooooooooooooooooooooooooooooooXXX...   XXXXXX    ",
"    XXXXXX   ...XXXooooooooooooooooooooooooooo++++++++++++++++++oooooooooooooooooooooooooooooooooooooooooooooXXX...   XXXXXX    ",
"    XXXXXX                                                                                                            XXXXXX    ",
"    XXXXXX                                                                                                            XXXXXX    ",
"    XXXXXX...                                                                                                      ...XXXXXX    ",
"    XXXXXX...   .........XXXXXXXXXXXXXXXXXXXXXXXXXXXXXXXXXXXXXXXXXXXXXoooooooooXXXXXXXXXXXXXXXXXXXXX............   ...XXXXXX    ",
"    XXXXXX...   .........XXXXXXXXXXXXXXXXXXXXXXXXXXXXXXXXXXXXXXXXXXXXXoooooooooXXXXXXXXXXXXXXXXXXXXX............   ...XXXXXX    ",
"    XXXXXX...   .........XXXXXXXXXXXXXXXXXXXXXXXXXXXXXXXXXXXXXXXXXXXXXoooooooooXXXXXXXXXXXXXXXXXXXXX............   ...XXXXXX    ",
"    XXXXXX...               .........XXX.........XXX.........XXX.........XXX.........XXX.........                  ...XXXXXX    ",
"    XXXXXX...               .........XXX.........XXX.........XXX.........XXX.........XXX.........                  ...XXXXXX    ",
"    XXXXXX...               .........XXX.........XXX.........XXX.........XXX.........XXX.........                  ...XXXXXX    ",
"    XXXXXX...               .........XXX.........XXX.........XXX.........XXX.........XXX.........                  ...XXXXXX    ",
"    XXXXXX...               .........XXX.........XXX.........XXX.........XXX.........XXX.........                  ...XXXXXX    ",
"    XXXXXX...               .........XXX.........XXX.........XXX.........XXX.........XXX.........                  ...XXXXXX    ",
"    XXXXXX...   .........XXXXXXXXXXXXXXXXXXXXXooooooXXXXXXXXXXXXXXXXXXXXXXXXXXXXXXXXXXXXXXXXXXXXXXXX............   ...XXXXXX    ",
"    XXXXXX...   .........XXXXXXXXXXXXXXXXXXXXXooooooXXXXXXXXXXXXXXXXXXXXXXXXXXXXXXXXXXXXXXXXXXXXXXXX............   ...XXXXXX    ",
"    XXXXXX...   .........XXXXXXXXXXXXXXXXXXXXXooooooXXXXXXXXXXXXXXXXXXXXXXXXXXXXXXXXXXXXXXXXXXXXXXXX............   ...XXXXXX    ",
"    XXXXXX...                     ............................................................                     ...XXXXXX    ",
"    XXXXXX...                     ............................................................                     ...XXXXXX    ",
"    XXXXXX...                     ............................................................                     ...XXXXXX    ",
"    XXXXXX...   .........XXXooooooooo+++++++++++++++++++++++++++++++++++++++++++++++++++ooooooooooooXXX.........   ...XXXXXX    ",
"    XXXXXX...   .........XXXooooooooo+++++++++++++++++++++++++++++++++++++++++++++++++++ooooooooooooXXX.........   ...XXXXXX    ",
"    XXXXXX...   .........XXXooooooooo+++++++++++++++++++++++++++++++++++++++++++++++++++ooooooooooooXXX.........   ...XXXXXX    ",
"    XXXXXX...                  ..................................................................                  ...XXXXXX    ",
"    XXXXXX...                  ..................................................................                  ...XXXXXX    ",
"    XXXXXX                     ..................................................................                     XXXXXX    ",
"    XXXXXX   XXXoooooo++++++++++++++++++++++++++++++++++++ooo###...###XXX+++++++++++++++++++++++++++++++++ooooooXXX   XXXXXX    ",
"    XXXXXX   XXXoooooo++++++++++++++++++++++++++++++++++++ooo###...###XXX+++++++++++++++++++++++++++++++++ooooooXXX   XXXXXX    ",
"    XXXXXX   XXXoooooo+++++++++++++++++++++++++++++++++++++++XXX$%%...%%%XXX++++++++++++++++++++++++++++++ooooooXXX   XXXXXX    ",
"    XXXXXX   XXXoooooo+++++++++++++++++++++++++++++++++++++++XXX$%%...%%%XXX++++++++++++++++++++++++++++++ooooooXXX   XXXXXX    ",
"    XXXXXX   XXXoooooo+++++++++++++++++++++++++++++++++++++++XXX$%%...%%%XXX++++++++++++++++++++++++++++++ooooooXXX   XXXXXX    ",
"....XXXXXX   XXXoooooo++++++++++++++++++++++++++++++++++++++++++XXX%%%...ooo++++++++++++++++++++++++++++++ooooooXXX   XXXXXX....",
"....XXXXXX   XXXoooooo++++++++++++++++++++++++++++++++++++++++++XXX%%%...ooo++++++++++++++++++++++++++++++ooooooXXX   XXXXXX....",
"....XXXXXX   XXXoooooo++++++++++++++++++++++++++++++++++++++++++XXX%%%...ooo++++++++++++++++++++++++++++++ooooooXXX   XXXXXX....",
"....XXXXXX   ...oooooo+++++++++++++++++++++++++++++++++###++++++ooo%%%...ooo+++++++++###++++++++++++++++++oooooo...   XXXXXX....",
"....XXXXXX   ...oooooo+++++++++++++++++++++++++++++++++###++++++ooo%%%...ooo+++++++++###++++++++++++++++++oooooo...   XXXXXX....",
"....XXXXXX   ...oooooo+++++++++++++++++++++++++++++++++###++++++ooo%%%...ooo+++++++++###++++++++++++++++++oooooo...   XXXXXX....",
"    XXXXXX   ...oooooo++++++++++++++++++++++++++++++######++++++ooo%%%...ooo+++++++++######+++++++++++++++oooooo...   XXXXXX    ",
"    XXXXXX   ...oooooo++++++++++++++++++++++++++++++######++++++ooo%%%...ooo+++++++++######+++++++++++++++oooooo...   XXXXXX    ",
"    XXXXXX   ...oooooo++++++++++++++++++++++++++++++######++++++ooo%%%...ooo+++++++++######+++++++++++++++oooooo...   XXXXXX    ",
"    XXXXXX   ...oooooo+++++++++++++++++++++++++++#########++++++ooo%%%...ooo+++++++++#########++++++++++++oooooo...   XXXXXX    ",
"    XXXXXX   ...oooooo+++++++++++++++++++++++++++#########++++++ooo%%%...ooo+++++++++#########++++++++++++oooooo...   XXXXXX    ",
"    XXXXXX   ...oooooo+++++++++++++++++++++++++++#########++++++ooo%%%...ooo+++++++++#########++++++++++++oooooo...   XXXXXX    ",
"    XXXXXX   ...oooooo++++++++++++++++++++++++++++++######++++++ooo###...ooo+++++++++######+++++++++++++++oooooo...   XXXXXX    ",
"    XXXXXX   ...oooooo++++++++++++++++++++++++++++++######++++++ooo###...ooo+++++++++######+++++++++++++++oooooo...   XXXXXX    ",
"    XXXXXX   ...oooooo++++++++++++++++++++++++++++++######++++++ooo###...ooo+++++++++######+++++++++++++++oooooo...   XXXXXX    ",
"    XXXXXX   ...XXXooo+++++++++++++++++++++++++++++++++###++++++ooo###...ooo+++++++++###++++++++++++++++++oooXXX...   XXXXXX    ",
"    XXXXXX   ...XXXooo+++++++++++++++++++++++++++++++++###++++++ooo###...ooo+++++++++###++++++++++++++++++oooXXX...   XXXXXX    ",
"    XXXXXX   ...XXXooo+++++++++++++++++++++++++++++++++###++++++ooo###...ooo+++++++++###++++++++++++++++++oooXXX...   XXXXXX    ",
"    ......   ...XXXXXXooo+++++++++++++++++++++++++++++++++++++++ooo+++...ooo+++++++++++++++++++++++++++oooXXXXXX...   ......    ",
"    ......   ...XXXXXXooo+++++++++++++++++++++++++++++++++++++++ooo+++...ooo+++++++++++++++++++++++++++oooXXXXXX...   ......    ",
"    ......   ...XXXXXXooo+++++++++++++++++++++++++++++++++++++++ooo+++...ooo+++++++++++++++++++++++++++oooXXXXXX...   ......    ",
"    ......   ...+++###++++++#################################+++ooo+++...ooo+++#####################++++++###+++...   ......    ",
"    ......   ...+++###++++++#################################+++ooo+++...ooo+++#####################++++++###+++...   ......    ",
"    ......   ...+++###++++++#################################+++ooo+++...ooo+++#####################++++++###+++...   ......    ",
"    ......   ...+++###++++++++++++++++++++++++++++++++++++++++++ooo+++...ooo++++++++++++++++++++++++++++++###+++...   ......    ",
"    ......   ...+++###++++++++++++++++++++++++++++++++++++++++++ooo+++...ooo++++++++++++++++++++++++++++++###+++...   ......    ",
"    ......   ...+++###++++++++++++++++++++++++++++++++++++++++++ooo+++...ooo++++++++++++++++++++++++++++++###+++...   ......    ",
"    ......   ......XXXooo++++++@@@@@@++++++@@@@@@++++++@@@@@@+++ooo+++...ooo+++@@@@@@++++++@@@@@@++++++oooXXX......   ......    ",
"    ......   ......XXXooo++++++@@@@@@++++++@@@@@@++++++@@@@@@+++ooo+++...ooo+++@@@@@@++++++@@@@@@++++++oooXXX......   ......    ",
"    ......   ......XXXooo++++++@@@@@@++++++@@@@@@++++++@@@@@@+++ooo+++...ooo+++@@@@@@++++++@@@@@@++++++oooXXX......   ......    ",
"    ......   ...oooooo++++++@@@@@@++++++@@@@@@++++++@@@@@@++++++XXX+++...XXX++++++@@@@@@++++++@@@@@@++++++oooooo...   ......    ",
"    ......   ...oooooo++++++@@@@@@++++++@@@@@@++++++@@@@@@++++++XXX+++...XXX++++++@@@@@@++++++@@@@@@++++++oooooo...   ......    ",
"    ......   ...oooooo++++++@@@@@@++++++@@@@@@++++++@@@@@@++++++XXX+++...XXX++++++@@@@@@++++++@@@@@@++++++oooooo...   ......    ",
"    ......   ...oooooo++++++++++++++++++++++++++++++++++++++++++XXX+++...XXX++++++++++++++++++++++++++++++oooooo      ......    ",
"    ......   ...oooooo++++++++++++++++++++++++++++++++++++++++++XXX+++...XXX++++++++++++++++++++++++++++++oooooo      ......    ",
"    ......   ...oooooo++++++++++++++++++++++++++++++++++++++++++XXX+++...XXX++++++++++++++++++++++++++++++oooooo      ......    ",
"    ......      ooo++++++++++++++++++++++++++++++++++++++++++oooXXX+++   XXXooo++++++++++++++++++++++++++++++ooo      ......    ",
"    ......      ooo++++++++++++++++++++++++++++++++++++++++++oooXXX+++   XXXooo++++++++++++++++++++++++++++++ooo      ......    ",
"    ......      ooo++++++++++++++++++++++++++++++++++++++++++oooXXX+++   XXXooo++++++++++++++++++++++++++++++ooo      ......    ",
"    ......   ooo   ...XXXXXXXXXXXXXXXXXXXXXXXXXXXXXXXXX...............   ...............XXXXXXXXXXXXXXXXXXXXX   ooo   ......   .",
"    ......   ooo   ...XXXXXXXXXXXXXXXXXXXXXXXXXXXXXXXXX...............   ...............XXXXXXXXXXXXXXXXXXXXX   ooo   ......   .",
"    ......   ooo   ...XXXXXXXXXXXXXXXXXXXXXXXXXXXXXXXXX...............   ...............XXXXXXXXXXXXXXXXXXXXX   ooo   ......   .",
"    .........oooooo   ooooooooo++++++++++++++++++++++++++++++oooXXXXXX   XXXXXXooo+++++++++++++++oooooo      oooooo.........   X",
"    .........oooooo   ooooooooo++++++++++++++++++++++++++++++oooXXXXXX   XXXXXXooo+++++++++++++++oooooo      oooooo.........   X",
"    .........oooooo   ooooooooo++++++++++++++++++++++++++++++oooXXXXXX   XXXXXXooo+++++++++++++++oooooo      oooooo.........   X",
"    ............oooXXX   XXXooooooooooooooooooooooooooooooooooooXXX...   ...XXXoooooooooooooooooooooXXX   XXXooo............   X",
"    ............oooXXX   XXXooooooooooooooooooooooooooooooooooooXXX...   ...XXXoooooooooooooooooooooXXX   XXXooo............   X",
"    ............oooXXX   XXXooooooooooooooooooooooooooooooooooooXXX...   ...XXXoooooooooooooooooooooXXX   XXXooo............   X",
"       ............XXX         ..................................................................         XXX............       ",
"       ............XXX         ..................................................................         XXX............       ",
"       ............XXX         ..................................................................         XXX............       ",
"          ............   XXXooooooooooooooooooooooooooooooooooooooooooooooooooooooooooooooooooooooooXXX   ............         X",
"          ............   XXXooooooooooooooooooooooooooooooooooooooooooooooooooooooooooooooooooooooooXXX   ............         X",
"          ............   XXXooooooooooooooooooooooooooooooooooooooooooooooooooooooooooooooooooooooooXXX   ............         X",
"             ......   XXXooooooOOOOOOooooooOOOOOOooooooOOOOOOooooooOOOOOOooooooOOOOOOooooooOOOOOOooooooXXX   ......            X",
"             ......   XXXooooooOOOOOOooooooOOOOOOooooooOOOOOOooooooOOOOOOooooooOOOOOOooooooOOOOOOooooooXXX   ......            X",
"             ......   XXXooooooOOOOOOooooooOOOOOOooooooOOOOOOooooooOOOOOOooooooOOOOOOooooooOOOOOOooooooXXX   ......            X",
"    ...   XXXXXXooooooooooooOOOOOOooooooOOOOOOooooooOOOOOOooooooooooooOOOOOOooooooOOOOOOooooooOOOOOOooooooooooooXXXXXX   ...   X",
"    ...   XXXXXXooooooooooooOOOOOOooooooOOOOOOooooooOOOOOOooooooooooooOOOOOOooooooOOOOOOooooooOOOOOOooooooooooooXXXXXX   ...   X",
"    ...   XXXXXXooooooooooooOOOOOOooooooOOOOOOooooooOOOOOOooooooooooooOOOOOOooooooOOOOOOooooooOOOOOOooooooooooooXXXXXX   ...   X",
"    ......XXXXXXXXXooooooooooooooooooooooooooooooooooooooooooooooooooooooooooooooooooooooooooooooooooooooooooXXXXXXXXX......    "
};
