/* XPM */
static char *result[] = {
/* columns rows colors chars-per-pixel */
"128 128 14 1 ",
"  c #0F0F18",
". c #192032",
"X c #2D3853",
"o c #3F536C",
"O c #BF5F1F",
"+ c #EB8617",
"@ c #EC8617",
"# c #5B758B",
"$ c #5C758B",
"% c #919A9D",
"& c #88A2B4",
"* c #88A3B5",
"= c #BDD1DB",
"- c #BED2DC",
/* pixels */
"    ###***   ...XXXooooooooooooooooooooooooooo##################oooooooooooooooooooooooooooooooooooooooooooooXXX...   ***###    ",
"    oooooo                                                                                                            oooooo    ",
"    oooooo                                                                                                            oooooo    ",
"    oooooo                                                                                                            oooooo    ",
"    oooooo      .........XXXXXXXXXXXXXXXXXXXXXXXXXXXXXXXXXXXXXXXXXXXXXoooooooooXXXXXXXXXXXXXXXXXXXXX............      oooooo    ",
"    oooooo      .........XXXXXXXXXXXXXXXXXXXXXXXXXXXXXXXXXXXXXXXXXXXXXoooooooooXXXXXXXXXXXXXXXXXXXXX............      oooooo    ",
"    oooooo      .........XXXXXXXXXXXXXXXXXXXXXXXXXXXXXXXXXXXXXXXXXXXXXoooooooooXXXXXXXXXXXXXXXXXXXXX............      oooooo    ",
"    oooooo                  .........XXX.........XXX.........XXX.........XXX.........XXX.........                     oooooo    ",
"    oooooo                  .........XXX.........XXX.........XXX.........XXX.........XXX.........                     oooooo    ",
"    oooooo                  .........XXX.........XXX.........XXX.........XXX.........XXX.........                     oooooo    ",
"    oooooo                  .........XXX.........XXX.........XXX.........XXX.........XXX.........                     oooooo    ",
"    oooooo                  .........XXX.........XXX.........XXX.........XXX.........XXX.........                     oooooo    ",
"    oooooo                  .........XXX.........XXX.........XXX.........XXX.........XXX.........                     oooooo    ",
"    oooooo      .........XXXXXXXXXXXXXXXXXXXXXooooooXXXXXXXXXXXXXXXXXXXXXXXXXXXXXXXXXXXXXXXXXXXXXXXX............      oooooo    ",
"    oooooo      .........XXXXXXXXXXXXXXXXXXXXXooooooXXXXXXXXXXXXXXXXXXXXXXXXXXXXXXXXXXXXXXXXXXXXXXXX............      oooooo    ",
"    oooooo      .........XXXXXXXXXXXXXXXXXXXXXooooooXXXXXXXXXXXXXXXXXXXXXXXXXXXXXXXXXXXXXXXXXXXXXXXX............      oooooo    ",
"    oooooo                        ............................................................                        ---***    ",
"    oooooo                        ............................................................                        ---***    ",
"    oooooo                        ............................................................                        ---***    ",
"    ***---      .........XXXooooooooo###################################################ooooooooooooXXX.........      oooooo    ",
"    ***---      .........XXXooooooooo###################################################ooooooooooooXXX.........      oooooo    ",
"    ***---      .........XXXooooooooo###################################################ooooooooooooXXX.........      oooooo    ",
"    oooooo                     ..................................................................                     ......    ",
"    oooooo                     ..................................................................                     ......    ",
"    oooooo                     ..................................................................                     ......    ",
"    ......   XXXooo*********************************###...###************************************************oooXXX   ......    ",
"    ......   XXXooo*********************************###...###************************************************oooXXX   ......    ",
"    ......   XXXooo*********************************###...###************************************************oooXXX   ......    ",
"    ......   ............XXXXXXXXXXXXXXXXXXXXX..................XXXXXXXXXXXXXXXXXXXXXXXXXXXXXXXXXXXXXXX............   XXXXXX    ",
"    ......   ............XXXXXXXXXXXXXXXXXXXXX..................XXXXXXXXXXXXXXXXXXXXXXXXXXXXXXXXXXXXXXX............   XXXXXX    ",
"    ......   ............XXXXXXXXXXXXXXXXXXXXX..................XXXXXXXXXXXXXXXXXXXXXXXXXXXXXXXXXXXXXXX............   XXXXXX    ",
"    XXXXXX   ...oooooo###########################XXX###...ooo#############################################oooooo...   XXXXXX    ",
"    XXXXXX   ...oooooo###########################XXX###...ooo#############################################oooooo...   XXXXXX    ",
"    XXXXXX   ...oooooo###########################XXX###...ooo#############################################oooooo...   XXXXXX    ",
"    XXXXXX   ...oooooo###########################XXX###...ooo#############################################oooooo...   XXXXXX    ",
"    XXXXXX   ...oooooo###########################XXX###...ooo#############################################oooooo...   XXXXXX    ",
"    XXXXXX   ...oooooo###########################XXX###...ooo#############################################oooooo...   XXXXXX    ",
"    XXXXXX   ...oooooo###########################ooo###...ooo#####################+@@#####################oooooo...   XXXXXX    ",
"    XXXXXX   ...oooooo###########################ooo###...ooo#####################+@@#####################oooooo...   XXXXXX    ",
"    XXXXXX   ...oooooo###########################ooo###...ooo#####################+@@#####################oooooo...   XXXXXX    ",
"    XXXXXX......XXXXXXXXX########################ooo###...ooo##################+@@@@@@@@###############XXXXXXXXX......XXXXXX    ",
"    XXXXXX......XXXXXXXXX########################ooo###...ooo##################+@@@@@@@@###############XXXXXXXXX......XXXXXX    ",
"    XXXXXX......XXXXXXXXX########################ooo###...ooo##################+@@@@@@@@###############XXXXXXXXX......XXXXXX    ",
"    XXXXXX......###***#################################...ooo###############@@@@@@$##@@@@@@###############***###......XXXXXX    ",
"    XXXXXX......###***#################################...ooo###############@@@@@@$##@@@@@@###############***###......XXXXXX    ",
"    XXXXXX......###***#################################...ooo###############@@@@@@$##@@@@@@###############***###......XXXXXX    ",
"    XXXXXX...XXX###***#################################...XXX############@@@@@@$########@@@@@@############***###XXX...XXXXXX    ",
"    XXXXXX...XXX###***#################################...XXX############@@@@@@$########@@@@@@############***###XXX...XXXXXX    ",
"    XXXXXX...XXX###***#################################...XXX############@@@@@@$########@@@@@@############***###XXX...XXXXXX    ",
"    XXXXXX...XXXXXXXXXooo###########################***...XXX############@@@@@@@@@@@@@@@@@@@@@#########oooXXXXXXXXX...XXXXXX    ",
"    XXXXXX...XXXXXXXXXooo###########################***...XXX############@@@@@@@@@@@@@@@@@@@@@#########oooXXXXXXXXX...XXXXXX    ",
"    XXXXXX...XXXXXXXXXooo###########################***...XXX############@@@@@@@@@@@@@@@@@@@@@#########oooXXXXXXXXX...XXXXXX    ",
"    XXXXXX...XXXXXXooo##############################***...***XXX##########################################oooXXXXXX...XXXXXX    ",
"    XXXXXX...XXXXXXooo##############################***...***XXX##########################################oooXXXXXX...XXXXXX    ",
"    XXXXXX...XXXXXXooo##############################***...***XXX##########################################oooXXXXXX...XXXXXX    ",
"    XXXXXX...XXXoooooo#################################***...&**XXX######*********************############ooooooXXX...XXXXXX    ",
"    XXXXXX...XXXoooooo#################################***...&**XXX######*********************############ooooooXXX...XXXXXX    ",
"    XXXXXX...XXXoooooo#################################***...&**XXX######*********************############ooooooXXX...XXXXXX    ",
"    XXXXXX...XXXoooooo#################################ooo***...&**XXX####################################ooooooXXX...XXXXXX    ",
"    XXXXXX...XXXoooooo#################################ooo***...&**XXX####################################ooooooXXX...XXXXXX    ",
"    XXXXXX...XXXoooooo#################################ooo***...&**XXX####################################ooooooXXX...XXXXXX    ",
"    XXXXXX   XXXoooooo####################################ooo***...***XXX#################################ooooooXXX   XXXXXX    ",
"    XXXXXX   XXXoooooo####################################ooo***...***XXX#################################ooooooXXX   XXXXXX    ",
"    XXXXXX   XXXoooooo####################################ooo***...***XXX#################################ooooooXXX   XXXXXX    ",
"    XXXXXX   XXXoooooo#######################################XXX=--...---XXX##############################ooooooXXX   XXXXXX    ",
"    XXXXXX   XXXoooooo#######################################XXX=--...---XXX##############################ooooooXXX   XXXXXX    ",
"    XXXXXX   XXXoooooo#######################################XXX=--...---XXX##############################ooooooXXX   XXXXXX    ",
"....XXXXXX   XXXoooooo##########################################XXX---...ooo##############################ooooooXXX   XXXXXX....",
"....XXXXXX   XXXoooooo##########################################XXX---...ooo##############################ooooooXXX   XXXXXX....",
"....XXXXXX   XXXoooooo##########################################XXX---...ooo##############################ooooooXXX   XXXXXX....",
"....XXXXXX   ...oooooo#################################***######ooo---...ooo#########***##################oooooo...   XXXXXX....",
"....XXXXXX   ...oooooo#################################***######ooo---...ooo#########***##################oooooo...   XXXXXX....",
"....XXXXXX   ...oooooo#################################***######ooo---...ooo#########***##################oooooo...   XXXXXX....",
"    XXXXXX   ...oooooo##############################******######ooo---...ooo#########******###############oooooo...   XXXXXX    ",
"    XXXXXX   ...oooooo##############################******######ooo---...ooo#########******###############oooooo...   XXXXXX    ",
"    XXXXXX   ...oooooo##############################******######ooo---...ooo#########******###############oooooo...   XXXXXX    ",
"    XXXXXX   ...oooooo###########################*********######ooo---...ooo#########*********############oooooo...   XXXXXX    ",
"    XXXXXX   ...oooooo###########################*********######ooo---...ooo#########*********############oooooo...   XXXXXX    ",
"    XXXXXX   ...oooooo###########################*********######ooo---...ooo#########*********############oooooo...   XXXXXX    ",
"    XXXXXX   ...oooooo##############################******######ooo***...ooo#########******###############oooooo...   XXXXXX    ",
"    XXXXXX   ...oooooo##############################******######ooo***...ooo#########******###############oooooo...   XXXXXX    ",
"    XXXXXX   ...oooooo##############################******######ooo***...ooo#########******###############oooooo...   XXXXXX    ",
"    XXXXXX   ...XXXooo#################################***######ooo***...ooo#########***##################oooXXX...   XXXXXX    ",
"    XXXXXX   ...XXXooo#################################***######ooo***...ooo#########***##################oooXXX...   XXXXXX    ",
"    XXXXXX   ...XXXooo#################################***######ooo***...ooo#########***##################oooXXX...   XXXXXX    ",
"    ......   ...XXXXXXooo#######################################ooo###...ooo###########################oooXXXXXX...   ......    ",
"    ......   ...XXXXXXooo#######################################ooo###...ooo###########################oooXXXXXX...   ......    ",
"    ......   ...XXXXXXooo#######################################ooo###...ooo###########################oooXXXXXX...   ......    ",
"    ......   ...###***######*********************************###ooo###...ooo###*********************######***###...   ......    ",
"    ......   ...###***######*********************************###ooo###...ooo###*********************######***###...   ......    ",
"    ......   ...###***######*********************************###ooo###...ooo###*********************######***###...   ......    ",
"    ......   ...###***##########################################ooo###...ooo##############################***###...   ......    ",
"    ......   ...###***##########################################ooo###...ooo##############################***###...   ......    ",
"    ......   ...###***##########################################ooo###...ooo##############################***###...   ......    ",
"    ......   ......XXXooo######%%%%%%######%%%%%%######%%%%%%###ooo###...ooo###%%%%%%######%%%%%%######oooXXX......   ......    ",
"    ......   ......XXXooo######%%%%%%######%%%%%%######%%%%%%###ooo###...ooo###%%%%%%######%%%%%%######oooXXX......   ......    ",
"    ......   ......XXXooo######%%%%%%######%%%%%%######%%%%%%###ooo###...ooo###%%%%%%######%%%%%%######oooXXX......   ......    ",
"    ......   ...oooooo######%%%%%%######%%%%%%######%%%%%%######XXX###...XXX######%%%%%%######%%%%%%######oooooo...   ......    ",
"    ......   ...oooooo######%%%%%%######%%%%%%######%%%%%%######XXX###...XXX######%%%%%%######%%%%%%######oooooo...   ......    ",
"    ......   ...oooooo######%%%%%%######%%%%%%######%%%%%%######XXX###...XXX######%%%%%%######%%%%%%######oooooo...   ......    ",
"    ......   ...oooooo##########################################XXX###...XXX##############################oooooo      ......    ",
"    ......   ...oooooo##########################################XXX###...XXX##############################oooooo      ......    ",
"    ......   ...oooooo##########################################XXX###...XXX##############################oooooo      ......    ",
"    ......      ooo##########################################oooXXX###   XXXooo##############################ooo      ......    ",
"    ......      ooo##########################################oooXXX###   XXXooo##############################ooo      ......    ",
"    ......      ooo##########################################oooXXX###   XXXooo##############################ooo      ......    ",
"    ......   ooo   ...XXXXXXXXXXXXXXXXXXXXXXXXXXXXXXXXX...............   ...............XXXXXXXXXXXXXXXXXXXXX   ooo   ......   .",
"    ......   ooo   ...XXXXXXXXXXXXXXXXXXXXXXXXXXXXXXXXX...............   ...............XXXXXXXXXXXXXXXXXXXXX   ooo   ......   .",
"    ......   ooo   ...XXXXXXXXXXXXXXXXXXXXXXXXXXXXXXXXX...............   ...............XXXXXXXXXXXXXXXXXXXXX   ooo   ......   .",
"    .........oooooo   ooooooooo##############################oooXXXXXX   XXXXXXooo###############oooooo      oooooo.........   X",
"    .........oooooo   ooooooooo##############################oooXXXXXX   XXXXXXooo###############oooooo      oooooo.........   X",
"    .........oooooo   ooooooooo##############################oooXXXXXX   XXXXXXooo###############oooooo      oooooo.........   X",
"    ............oooXXX   XXXooooooooooooooooooooooooooooooooooooXXX...   ...XXXoooooooooooooooooooooXXX   XXXooo............   X",
"    ............oooXXX   XXXooooooooooooooooooooooooooooooooooooXXX...   ...XXXoooooooooooooooooooooXXX   XXXooo............   X",
"    ............oooXXX   XXXooooooooooooooooooooooooooooooooooooXXX...   ...XXXoooooooooooooooooooooXXX   XXXooo............   X",
"       ............XXX         ..................................................................         XXX............       ",
"       ............XXX         ..................................................................         XXX............       ",
"       ............XXX         ..................................................................         XXX............       ",
"          ............   XXXooooooooooooooooooooooooooooooooooooooooooooooooooooooooooooooooooooooooXXX   ............         X",
"          ............   XXXooooooooooooooooooooooooooooooooooooooooooooooooooooooooooooooooooooooooXXX   ............         X",
"          ............   XXXooooooooooooooooooooooooooooooooooooooooooooooooooooooooooooooooooooooooXXX   ............         X",
"             ......   XXXooooooOOOOOOooooooOOOOOOooooooOOOOOOooooooOOOOOOooooooOOOOOOooooooOOOOOOooooooXXX   ......            X",
"             ......   XXXooooooOOOOOOooooooOOOOOOooooooOOOOOOooooooOOOOOOooooooOOOOOOooooooOOOOOOooooooXXX   ......            X",
"             ......   XXXooooooOOOOOOooooooOOOOOOooooooOOOOOOooooooOOOOOOooooooOOOOOOooooooOOOOOOooooooXXX   ......            X",
"    ...   XXXXXXooooooooooooOOOOOOooooooOOOOOOooooooOOOOOOooooooooooooOOOOOOooooooOOOOOOooooooOOOOOOooooooooooooXXXXXX   ...   X",
"    ...   XXXXXXooooooooooooOOOOOOooooooOOOOOOooooooOOOOOOooooooooooooOOOOOOooooooOOOOOOooooooOOOOOOooooooooooooXXXXXX   ...   X",
"    ...   XXXXXXooooooooooooOOOOOOooooooOOOOOOooooooOOOOOOooooooooooooOOOOOOooooooOOOOOOooooooOOOOOOooooooooooooXXXXXX   ...   X",
"    ......XXXXXXXXXooooooooooooooooooooooooooooooooooooooooooooooooooooooooooooooooooooooooooooooooooooooooooXXXXXXXXX......    "
};
