/* XPM */
static char *result[] = {
/* columns rows colors chars-per-pixel */
"128 128 26 1 ",
"  c #0F0F18",
". c #0F1019",
"X c #101019",
"o c #192032",
"O c #054F39",
"+ c #134B3B",
"@ c #2D3853",
"# c #1A6C50",
"$ c #3F536C",
"% c #40536C",
"& c #BE5F1F",
"* c #BF5F1F",
"= c #039649",
"- c #5A8C44",
"; c #EB8617",
": c #EC8617",
"> c #5B758B",
", c #5C758B",
"< c #63FFB6",
"1 c #919A9D",
"2 c #87A2B4",
"3 c #88A2B4",
"4 c #88A3B5",
"5 c #BDD1DB",
"6 c #BED2DC",
"7 c #E0ECF0",
/* pixels */
"    >>>444.                                                                                                           244>>>    ",
"    $$$$$$                                                                                                            $$$$$$    ",
"    $$$$$$                                                                                                            $$$$$$    ",
"    $$$$$$                                                                                                            $$$$$$    ",
"    $$$$$$   oooooooooooooooooooooooooooooooooooooooooooooooooooooooooooooooooooooooooooooooooooooooooooooooooooooo   $$$$$$    ",
"    $$$$$$   oooooooooooooooooooooooooooooooooooooooooooooooooooooooooooooooooooooooooooooooooooooooooooooooooooooo   $$$$$$    ",
"    $$$$$$   oooooooooooooooooooooooooooooooooooooooooooooooooooooooooooooooooooooooooooooooooooooooooooooooooooooo   $$$$$$    ",
"    $$$$$$   @@@>>>444444666666666666666666666666777777ooo444777777777666666666666666666666666666666666444444>>>@@@   $$$$$$    ",
"    $$$$$$   @@@>>>444444666666666666666666666666777777ooo444777777777666666666666666666666666666666666444444>>>@@@   $$$$$$    ",
"    $$$$$$   @@@>>>444444666666666666666666666666777777ooo444777777777666666666666666666666666666666666444444>>>@@@   $$$$$$    ",
"    $$$$$$   ooo@@@@@@@@@@@@@@@@@@@@@@@@@@@@@@@@@>>>666ooo444>>>@@@@@@@@@@@@@@@@@@@@@@@@@@@@@@@@@@@@@@@@@@@@@@@@ooo   $$$$$$    ",
"    $$$$$$   ooo@@@@@@@@@@@@@@@@@@@@@@@@@@@@@@@@@>>>666ooo444>>>@@@@@@@@@@@@@@@@@@@@@@@@@@@@@@@@@@@@@@@@@@@@@@@@ooo   $$$$$$    ",
"    $$$$$$   ooo@@@@@@@@@@@@@@@@@@@@@@@@@@@@@@@@@>>>666ooo444>>>@@@@@@@@@@@@@@@@@@@@@@@@@@@@@@@@@@@@@@@@@@@@@@@@ooo   $$$$$$    ",
"    $$$$$$   ooooooooooooooooooooooooooooooooooooooo666ooo444oooooooooooooooooooooooooooooooooooooooooooooooooooooo   $$$$$$    ",
"    $$$$$$   ooooooooooooooooooooooooooooooooooooooo666ooo444oooooooooooooooooooooooooooooooooooooooooooooooooooooo   $$$$$$    ",
"    $$$$$$   ooooooooooooooooooooooooooooooooooooooo666ooo444oooooooooooooooooooooooooooooooooooooooooooooooooooooo   $$$$$$    ",
"    $$$$$$   ooooooooooooooooooooooooooooooooooooooo666ooo444oooooooooooooooooooooooooooooooooooooooooooooooooooooo   566444    ",
"    $$$$$$   ooooooooooooooooooooooooooooooooooooooo666ooo444oooooooooooooooooooooooooooooooooooooooooooooooooooooo   566444    ",
"    $$$$$$   ooooooooooooooooooooooooooooooooooooooo666ooo444oooooooooooooooooooooooooooooooooooooooooooooooooooooo   566444    ",
"    444666X  ooo@@@@@@@@@@@@@@@@@@@@@@@@@@@@@@@@@>>>666ooo444>>>@@@@@@@@@@@@@@@@@@@@@@@@@@@@@@@@@@@@@@@@@@@@@@@@ooo   $$$$$$    ",
"    444666X  ooo@@@@@@@@@@@@@@@@@@@@@@@@@@@@@@@@@>>>666ooo444>>>@@@@@@@@@@@@@@@@@@@@@@@@@@@@@@@@@@@@@@@@@@@@@@@@ooo   $$$$$$    ",
"    444666X  ooo@@@@@@@@@@@@@@@@@@@@@@@@@@@@@@@@@>>>666ooo444>>>@@@@@@@@@@@@@@@@@@@@@@@@@@@@@@@@@@@@@@@@@@@@@@@@ooo   $$$$$$    ",
"    $$$$$$   @@@>>>444444666666666666666666666666777777ooo444777777777666666666666666666666666666666666444444>>>@@@   oooooo    ",
"    $$$$$$   @@@>>>444444666666666666666666666666777777ooo444777777777666666666666666666666666666666666444444>>>@@@   oooooo    ",
"    $$$$$$   @@@>>>444444666666666666666666666666777777ooo444777777777666666666666666666666666666666666444444>>>@@@   oooooo    ",
"    oooooo   @@@$$$444444444444444444444444444444444>>>ooo>>>444444444444444444444444444444444444444444444444$$$@@@   oooooo    ",
"    oooooo   @@@$$$444444444444444444444444444444444>>>ooo>>>444444444444444444444444444444444444444444444444$$$@@@   oooooo    ",
"    oooooo   @@@$$$444444444444444444444444444444444>>>ooo>>>444444444444444444444444444444444444444444444444$$$@@@   oooooo    ",
"    oooooo   oooooooooooo@@@@@@@@@@@@@@@@@@@@@oooooooooooooooooo@@@@@@@@@@@@@@@@@@@@@@@@@@@@@@@@@@@@@@@oooooooooooo   @@@@@@    ",
"    oooooo   oooooooooooo@@@@@@@@@@@@@@@@@@@@@oooooooooooooooooo@@@@@@@@@@@@@@@@@@@@@@@@@@@@@@@@@@@@@@@oooooooooooo   @@@@@@    ",
"    oooooo   oooooooooooo@@@@@@@@@@@@@@@@@@@@@oooooooooooooooooo@@@@@@@@@@@@@@@@@@@@@@@@@@@@@@@@@@@@@@@oooooooooooo   @@@@@@    ",
"    @@@@@@   ooo$$$$$$>>>>>>>>>>>>>>>>>>>>>>>>>>>@@@>>>ooo$$$>>>>>>>>>>>>>>>>>>>>>>>>>>>>>>>>>>>>>>>>>>>>>$$$$$$ooo   @@@@@@    ",
"    @@@@@@   ooo$$$$$$>>>>>>>>>>>>>>>>>>>>>>>>>>>@@@>>>ooo$$$>>>>>>>>>>>>>>>>>>>>>>>>>>>>>>>>>>>>>>>>>>>>>$$$$$$ooo   @@@@@@    ",
"    @@@@@@   ooo$$$$$$>>>>>>>>>>>>>>>>>>>>>>>>>>>@@@>>>ooo$$$>>>>>>>>>>>>>>>>>>>>>>>>>>>>>>>>>>>>>>>>>>>>>$$$$$$ooo   @@@@@@    ",
"    @@@@@@   ooo$$$$$$>>>>>>>>>>>>>>>>>>>>>>>>>>>@@@>>>ooo$$$>>>>>>>>>>>>>>>>>>>>>>>>>>>>>>>>>>>>>>>>>>>>>$$$$$$ooo   @@@@@@    ",
"    @@@@@@   ooo$$$$$$>>>>>>>>>>>>>>>>>>>>>>>>>>>@@@>>>ooo$$$>>>>>>>>>>>>>>>>>>>>>>>>>>>>>>>>>>>>>>>>>>>>>$$$$$$ooo   @@@@@@    ",
"    @@@@@@   ooo$$$$$$>>>>>>>>>>>>>>>>>>>>>>>>>>>@@@>>>ooo$$$>>>>>>>>>>>>>>>>>>>>>>>>>>>>>>>>>>>>>>>>>>>>>$$$$$$ooo   @@@@@@    ",
"    @@@@@@   ooo$$$$$$>>>>>>>>>>>>>>>>>>>>>>>>>>>$$$>>>ooo$$$>>>>>>>>>>>>>>>>>>>>>;::>>>>>>>>>>>>>>>>>>>>>$$$$$$ooo   @@@@@@    ",
"    @@@@@@   ooo$$$$$$>>>>>>>>>>>>>>>>>>>>>>>>>>>$$$>>>ooo$$$>>>>>>>>>>>>>>>>>>>>>;::>>>>>>>>>>>>>>>>>>>>>$$$$$$ooo   @@@@@@    ",
"    @@@@@@   ooo$$$$$$>>>>>>>>>>>>>>>>>>>>>>>>>>>$$$>>>ooo$$$>>>>>>>>>>>>>>>>>>>>>;::>>>>>>>>>>>>>>>>>>>>>$$$$$$ooo   @@@@@@    ",
"    @@@@@@oooooo@@@@@@@@@>>>>>>>>>>>>>>>>>>>>>>>>$$$>>>ooo$$$>>>>>>>>>>>>>>>>>>:::::::::>>>>>>>>>>>>>>>@@@@@@@@@oooooo@@@@@@    ",
"    @@@@@@oooooo@@@@@@@@@>>>>>>>>>>>>>>>>>>>>>>>>$$$>>>ooo$$$>>>>>>>>>>>>>>>>>>:::::::::>>>>>>>>>>>>>>>@@@@@@@@@oooooo@@@@@@    ",
"    @@@@@@oooooo@@@@@@@@@>>>>>>>>>>>>>>>>>>>>>>>>$$$>>>ooo$$$>>>>>>>>>>>>>>>>>>:::::::::>>>>>>>>>>>>>>>@@@@@@@@@oooooo@@@@@@    ",
"    @@@@@@oooooo>>>444>>>>>>>>>>>>>>>>>>>>>>>>>>>>>>>>>ooo$$$>>>>>>>>>>>>>>>::::::,>>::::::>>>>>>>>>>>>>>>444>>>oooooo@@@@@@    ",
"    @@@@@@oooooo>>>444>>>>>>>>>>>>>>>>>>>>>>>>>>>>>>>>>ooo$$$>>>>>>>>>>>>>>>::::::,>>::::::>>>>>>>>>>>>>>>444>>>oooooo@@@@@@    ",
"    @@@@@@oooooo>>>444>>>>>>>>>>>>>>>>>>>>>>>>>>>>>>>>>ooo$$$>>>>>>>>>>>>>>>::::::,>>::::::>>>>>>>>>>>>>>>444>>>oooooo@@@@@@    ",
"    @@@@@@ooo@@@>>>444>>>>>>>>>>>>>>>>>>>>>>>>>>>>>>>>>ooo@@@>>>>>>>>>>>>::::::>>>>>>>>>::::::>>>>>>>>>>>>444>>>@@@ooo@@@@@@    ",
"    @@@@@@ooo@@@>>>444>>>>>>>>>>>>>>>>>>>>>>>>>>>>>>>>>ooo@@@>>>>>>>>>>>>::::::>>>>>>>>>::::::>>>>>>>>>>>>444>>>@@@ooo@@@@@@    ",
"    @@@@@@ooo@@@>>>444>>>>>>>>>>>>>>>>>>>>>>>>>>>>>>>>>ooo@@@>>>>>>>>>>>>::::::>>>>>>>>>::::::>>>>>>>>>>>>444>>>@@@ooo@@@@@@    ",
"    @@@@@@ooo@@@@@@@@@$$$>>>>>>>>>>>>>>>>>>>>>>>>>>>444ooo@@@>>>>>>>>>>>>:::::::::::::::::::::>>>>>>>>>$$$@@@@@@@@@ooo@@@@@@    ",
"    @@@@@@ooo@@@@@@@@@$$$>>>>>>>>>>>>>>>>>>>>>>>>>>>444ooo@@@>>>>>>>>>>>>:::::::::::::::::::::>>>>>>>>>$$$@@@@@@@@@ooo@@@@@@    ",
"    @@@@@@ooo@@@@@@@@@$$$>>>>>>>>>>>>>>>>>>>>>>>>>>>444ooo@@@>>>>>>>>>>>>:::::::::::::::::::::>>>>>>>>>$$$@@@@@@@@@ooo@@@@@@    ",
"    @@@@@@ooo@@@@@@$$$>>>>>>>>>>>>>>>>>>>>>>>>>>>>>>444ooo444@@@>>>>>>>>>>>>>>>>>>>>>>>>>>>>>>>>>>>>>>>>>>$$$@@@@@@ooo@@@@@@    ",
"    @@@@@@ooo@@@@@@$$$>>>>>>>>>>>>>>>>>>>>>>>>>>>>>>444ooo444@@@>>>>>>>>>>>>>>>>>>>>>>>>>>>>>>>>>>>>>>>>>>$$$@@@@@@ooo@@@@@@    ",
"    @@@@@@ooo@@@@@@$$$>>>>>>>>>>>>>>>>>>>>>>>>>>>>>>444ooo444@@@>>>>>>>>>>>>>>>>>>>>>>>>>>>>>>>>>>>>>>>>>>$$$@@@@@@ooo@@@@@@    ",
"    @@@@@@ooo@@@$$$$$$>>>>>>>>>>>>>>>>>>>>>>>>>>>>>>>>>444ooo444@@@>>>>>>444444444444444444444>>>>>>>>>>>>$$$$$$@@@ooo@@@@@@    ",
"    @@@@@@ooo@@@$$$$$$>>>>>>>>>>>>>>>>>>>>>>>>>>>>>>>>>444ooo444@@@>>>>>>444444444444444444444>>>>>>>>>>>>$$$$$$@@@ooo@@@@@@    ",
"    @@@@@@ooo@@@$$$$$$>>>>>>>>>>>>>>>>>>>>>>>>>>>>>>>>>444ooo444@@@>>>>>>444444444444444444444>>>>>>>>>>>>$$$$$$@@@ooo@@@@@@    ",
"    @@@@@@ooo@@@$$$$$$>>>>>>>>>>>>>>>>>>>>>>>>>>>>>>>>>$$$444ooo344@@@>>>>>>>>>>>>>>>>>>>>>>>>>>>>>>>>>>>>$$$$$$@@@ooo@@@@@@    ",
"    @@@@@@ooo@@@$$$$$$>>>>>>>>>>>>>>>>>>>>>>>>>>>>>>>>>$$$444ooo344@@@>>>>>>>>>>>>>>>>>>>>>>>>>>>>>>>>>>>>$$$$$$@@@ooo@@@@@@    ",
"    @@@@@@ooo@@@$$$$$$>>>>>>>>>>>>>>>>>>>>>>>>>>>>>>>>>$$$444ooo344@@@>>>>>>>>>>>>>>>>>>>>>>>>>>>>>>>>>>>>$$$$$$@@@ooo@@@@@@    ",
"    @@@@@@   @@@$$$$$$>>>>>>>>>>>>>>>>>>>>>>>>>>>>>>>>>>>>$$$444ooo444@@@>>>>>>>>>>>>>>>>>>>>>>>>>>>>>>>>>$$$$$$@@@   @@@@@@    ",
"    @@@@@@   @@@$$$$$$>>>>>>>>>>>>>>>>>>>>>>>>>>>>>>>>>>>>$$$444ooo444@@@>>>>>>>>>>>>>>>>>>>>>>>>>>>>>>>>>$$$$$$@@@   @@@@@@    ",
"    @@@@@@   @@@$$$$$$>>>>>>>>>>>>>>>>>>>>>>>>>>>>>>>>>>>>$$$444ooo444@@@>>>>>>>>>>>>>>>>>>>>>>>>>>>>>>>>>$$$$$$@@@   @@@@@@    ",
"    @@@@@@   @@@$$$$$$>>>>>>>>>>>>>>>>>>>>>>>>>>>>>>>>>>>>>>>@@@566ooo666@@@>>>>>>>>>>>>>>>>>>>>>>>>>>>>>>$$$$$$@@@   @@@@@@    ",
"    @@@@@@   @@@$$$$$$>>>>>>>>>>>>>>>>>>>>>>>>>>>>>>>>>>>>>>>@@@566ooo666@@@>>>>>>>>>>>>>>>>>>>>>>>>>>>>>>$$$$$$@@@   @@@@@@    ",
"    @@@@@@   @@@$$$$$$>>>>>>>>>>>>>>>>>>>>>>>>>>>>>>>>>>>>>>>@@@566ooo666@@@>>>>>>>>>>>>>>>>>>>>>>>>>>>>>>$$$$$$@@@   @@@@@@    ",
"oooo@@@@@@   @@@$$$$$$>>>>>>>>>>>>>>>>>>>>>>>>>>>>>>>>>>>>>>>>>>@@@666ooo$$$>>>>>>>>>>>>>>>>>>>>>>>>>>>>>>$$$$$$@@@   @@@@@@oooo",
"oooo@@@@@@   @@@$$$$$$>>>>>>>>>>>>>>>>>>>>>>>>>>>>>>>>>>>>>>>>>>@@@666ooo$$$>>>>>>>>>>>>>>>>>>>>>>>>>>>>>>$$$$$$@@@   @@@@@@oooo",
"oooo@@@@@@   @@@$$$$$$>>>>>>>>>>>>>>>>>>>>>>>>>>>>>>>>>>>>>>>>>>@@@666ooo$$$>>>>>>>>>>>>>>>>>>>>>>>>>>>>>>$$$$$$@@@   @@@@@@oooo",
"oooo@@@@@@   ooo$$$$$$>>>>>>>>>>>>>>>>>>>>>>>>>>>>>>>>>444>>>>>>$$$666ooo$$$>>>>>>>>>444>>>>>>>>>>>>>>>>>>$$$$$$ooo   @@@@@@oooo",
"oooo@@@@@@   ooo$$$$$$>>>>>>>>>>>>>>>>>>>>>>>>>>>>>>>>>444>>>>>>$$$666ooo$$$>>>>>>>>>444>>>>>>>>>>>>>>>>>>$$$$$$ooo   @@@@@@oooo",
"oooo@@@@@@   ooo$$$$$$>>>>>>>>>>>>>>>>>>>>>>>>>>>>>>>>>444>>>>>>$$$666ooo$$$>>>>>>>>>444>>>>>>>>>>>>>>>>>>$$$$$$ooo   @@@@@@oooo",
"    @@@@@@   ooo$$$$$$>>>>>>>>>>>>>>>>>>>>>>>>>>>>>>444444>>>>>>$$$666ooo$$$>>>>>>>>>444444>>>>>>>>>>>>>>>$$$$$$ooo   @@@@@@    ",
"    @@@@@@   ooo$$$$$$>>>>>>>>>>>>>>>>>>>>>>>>>>>>>>444444>>>>>>$$$666ooo$$$>>>>>>>>>444444>>>>>>>>>>>>>>>$$$$$$ooo   @@@@@@    ",
"    @@@@@@   ooo$$$$$$>>>>>>>>>>>>>>>>>>>>>>>>>>>>>>444444>>>>>>$$$666ooo$$$>>>>>>>>>444444>>>>>>>>>>>>>>>$$$$$$ooo   @@@@@@    ",
"    @@@@@@   ooo$$$$$$>>>>>>>>>>>>>>>>>>>>>>>>>>>444444444>>>>>>$$$666ooo$$$>>>>>>>>>444444444>>>>>>>>>>>>$$$$$$ooo   @@@@@@    ",
"    @@@@@@   ooo$$$$$$>>>>>>>>>>>>>>>>>>>>>>>>>>>444444444>>>>>>$$$666ooo$$$>>>>>>>>>444444444>>>>>>>>>>>>$$$$$$ooo   @@@@@@    ",
"    @@@@@@   ooo$$$$$$>>>>>>>>>>>>>>>>>>>>>>>>>>>444444444>>>>>>$$$666ooo$$$>>>>>>>>>444444444>>>>>>>>>>>>$$$$$$ooo   @@@@@@    ",
"    @@@@@@   ooo$$$$$$>>>>>>>>>>>>>>>>>>>>>>>>>>>>>>444444>>>>>>$$$444ooo$$$>>>>>>>>>444444>>>>>>>>>>>>>>>$$$$$$ooo   @@@@@@    ",
"    @@@@@@   ooo$$$$$$>>>>>>>>>>>>>>>>>>>>>>>>>>>>>>444444>>>>>>$$$444ooo$$$>>>>>>>>>444444>>>>>>>>>>>>>>>$$$$$$ooo   @@@@@@    ",
"    @@@@@@   ooo$$$$$$>>>>>>>>>>>>>>>>>>>>>>>>>>>>>>444444>>>>>>$$$444ooo$$$>>>>>>>>>444444>>>>>>>>>>>>>>>$$$$$$ooo   @@@@@@    ",
"    @@@@@@   ooo@@@$$$>>>>>>>>>>>>>>>>>>>>>>>>>>>>>>>>>444>>>>>>$$$444ooo$$$>>>>>>>>>444>>>>>>>>>>>>>>>>>>$$$@@@ooo   @@@@@@    ",
"    @@@@@@   ooo@@@$$$>>>>>>>>>>>>>>>>>>>>>>>>>>>>>>>>>444>>>>>>$$$444ooo$$$>>>>>>>>>444>>>>>>>>>>>>>>>>>>$$$@@@ooo   @@@@@@    ",
"    @@@@@@   ooo@@@$$$>>>>>>>>>>>>>>>>>>>>>>>>>>>>>>>>>444>>>>>>$$$444ooo$$$>>>>>>>>>444>>>>>>>>>>>>>>>>>>$$$@@@ooo   @@@@@@    ",
"    oooooo   ooo@@@@@@$$$>>>>>>>>>>>>>>>>>>>>>>>>>>>>>>>>>>>>>>>$$$>>>ooo$$$>>>>>>>>>>>>>>>>>>>>>>>>>>>$$$@@@@@@ooo   oooooo    ",
"    oooooo   ooo@@@@@@$$$>>>>>>>>>>>>>>>>>>>>>>>>>>>>>>>>>>>>>>>$$$>>>ooo$$$>>>>>>>>>>>>>>>>>>>>>>>>>>>$$$@@@@@@ooo   oooooo    ",
"    oooooo   ooo@@@@@@$$$>>>>>>>>>>>>>>>>>>>>>>>>>>>>>>>>>>>>>>>$$$>>>ooo$$$>>>>>>>>>>>>>>>>>>>>>>>>>>>$$$@@@@@@ooo   oooooo    ",
"    oooooo   ooo>>>444>>>>>>444444444444444444444444444444444>>>$$$>>>ooo$$$>>>444444444444444444444>>>>>>444>>>ooo   oooooo    ",
"    oooooo   ooo>>>444>>>>>>444444444444444444444444444444444>>>$$$>>>ooo$$$>>>444444444444444444444>>>>>>444>>>ooo   oooooo    ",
"    oooooo   ooo>>>444>>>>>>444444444444444444444444444444444>>>$$$>>>ooo$$$>>>444444444444444444444>>>>>>444>>>ooo   oooooo    ",
"    oooooo   ooo>>>444>>>>>>>>>>>>>>>>>>>>>>>>>>>>>>>>>>>>>>>>>>$$$>>>ooo$$$>>>>>>>>>>>>>>>>>>>>>>>>>>>>>>444>>>ooo   oooooo    ",
"    oooooo   ooo>>>444>>>>>>>>>>>>>>>>>>>>>>>>>>>>>>>>>>>>>>>>>>$$$>>>ooo$$$>>>>>>>>>>>>>>>>>>>>>>>>>>>>>>444>>>ooo   oooooo    ",
"    oooooo   ooo>>>444>>>>>>>>>>>>>>>>>>>>>>>>>>>>>>>>>>>>>>>>>>$$$>>>ooo$$$>>>>>>>>>>>>>>>>>>>>>>>>>>>>>>444>>>ooo   oooooo    ",
"    oooooo   oooooo@@@$$$>>>>>>111111>>>>>>111111>>>>>>111111>>>$$$>>>ooo$$$>>>111111>>>>>>111111>>>>>>$$$@@@oooooo   oooooo    ",
"    oooooo   oooooo@@@$$$>>>>>>111111>>>>>>111111>>>>>>111111>>>$$$>>>ooo$$$>>>111111>>>>>>111111>>>>>>$$$@@@oooooo   oooooo    ",
"    oooooo   oooooo@@@$$$>>>>>>111111>>>>>>111111>>>>>>111111>>>$$$>>>ooo$$$>>>111111>>>>>>111111>>>>>>$$$@@@oooooo   oooooo    ",
"    oooooo   ooo$$$$$$>>>>>>111111>>>>>>111111>>>>>>111111>>>>>>@@@>>>ooo@@@>>>>>>111111>>>>>>111111>>>>>>$$$$$$ooo   oooooo    ",
"    oooooo   ooo$$$$$$>>>>>>111111>>>>>>111111>>>>>>111111>>>>>>@@@>>>ooo@@@>>>>>>111111>>>>>>111111>>>>>>$$$$$$ooo   oooooo    ",
"    oooooo   ooo$$$$$$>>>>>>111111>>>>>>111111>>>>>>111111>>>>>>@@@>>>ooo@@@>>>>>>111111>>>>>>111111>>>>>>$$$$$$ooo   oooooo    ",
"    oooooo   ooo$$$$$$>>>>>>>>>>>>>>>>>>>>>>>>>>>>>>>>>>>>>>>>>>@@@>>>ooo@@@>>>>>>>>>>>>>>>>>>>>>>>>>>>>>>$$$$$$      oooooo    ",
"    oooooo   ooo$$$$$$>>>>>>>>>>>>>>>>>>>>>>>>>>>>>>>>>>>>>>>>>>@@@>>>ooo@@@>>>>>>>>>>>>>>>>>>>>>>>>>>>>>>$$$$$$      oooooo    ",
"    oooooo   ooo$$$$$$>>>>>>>>>>>>>>>>>>>>>>>>>>>>>>>>>>>>>>>>>>@@@>>>ooo@@@>>>>>>>>>>>>>>>>>>>>>>>>>>>>>>$$$$$$      oooooo    ",
"    oooooo      OOO==========================================OOO@@@>>>   @@@OOO==============================OOO      oooooo    ",
"    oooooo      OOO==========================================OOO@@@>>>   @@@OOO==============================OOO      oooooo    ",
"    oooooo      OOO==========================================OOO@@@>>>   @@@OOO==============================OOO      oooooo    ",
"    oooooo   $$$   ooo@@@@@@@@@@@@@@@@@@@@@@@@@@@@@@@@@ooooooooooooooo   ooooooooooooooo@@@@@@@@@@@@@@@@@@@@@   $$$   oooooo    ",
"    oooooo   $$$   ooo@@@@@@@@@@@@@@@@@@@@@@@@@@@@@@@@@ooooooooooooooo   ooooooooooooooo@@@@@@@@@@@@@@@@@@@@@   $$$   oooooo    ",
"    oooooo   $$$   ooo@@@@@@@@@@@@@@@@@@@@@@@@@@@@@@@@@ooooooooooooooo   ooooooooooooooo@@@@@@@@@@@@@@@@@@@@@   $$$   oooooo    ",
"    ooooooooo$$$###   <<<<<<<<<<<<<<<<<<<<<<<<<<<<<<<<<<<<<<<===OOO@@@   @@@OOO======<<<<<<<<<<<<<<<<<<      ###$$$ooooooooo    ",
"    ooooooooo$$$###   <<<<<<<<<<<<<<<<<<<<<<<<<<<<<<<<<<<<<<<===OOO@@@   @@@OOO======<<<<<<<<<<<<<<<<<<      ###$$$ooooooooo    ",
"    ooooooooo$$$###   <<<<<<<<<<<<<<<<<<<<<<<<<<<<<<<<<<<<<<<===OOO@@@   @@@OOO======<<<<<<<<<<<<<<<<<<      ###$$$ooooooooo    ",
"    oooooooooooo###+++   @@@OOOOOOOOOOOOOOOOOOOOOOOOOOOOOOOOOOOOOOOooo   oooOOOOOOOOOOOOOOOOOOOOOOOO@@@   +++###oooooooooooo    ",
"    oooooooooooo###+++   @@@OOOOOOOOOOOOOOOOOOOOOOOOOOOOOOOOOOOOOOOooo   oooOOOOOOOOOOOOOOOOOOOOOOOO@@@   +++###oooooooooooo    ",
"    oooooooooooo###+++   @@@OOOOOOOOOOOOOOOOOOOOOOOOOOOOOOOOOOOOOOOooo   oooOOOOOOOOOOOOOOOOOOOOOOOO@@@   +++###oooooooooooo    ",
"       oooooooooooo+++         oooooooooooooooooooooooooooooooooooooooooooooooooooooooooooooooooo         +++oooooooooooo       ",
"       oooooooooooo+++         oooooooooooooooooooooooooooooooooooooooooooooooooooooooooooooooooo         +++oooooooooooo       ",
"       oooooooooooo+++         oooooooooooooooooooooooooooooooooooooooooooooooooooooooooooooooooo         +++oooooooooooo       ",
"          oooooooooooo   @@@########################################################################@@@   oooooooooooo          ",
"          oooooooooooo   @@@########################################################################@@@   oooooooooooo          ",
"          oooooooooooo   @@@########################################################################@@@   oooooooooooo          ",
"             oooooo   @@@######------######------######------######------######------######------######@@@   oooooo             ",
"             oooooo   @@@######------######------######------######------######------######------######@@@   oooooo             ",
"             oooooo   @@@######------######------######------######------######------######------######@@@   oooooo             ",
"    ooo   @@@@@@$$$$$$$$$$$$&*****$$$$$$******%$$$$$******$$$$$$$$$$$$******$$$$$$&*****$$$$$$******%$$$$$$$$$$$@@@@@@   ooo    ",
"    ooo   @@@@@@$$$$$$$$$$$$&*****$$$$$$******%$$$$$******$$$$$$$$$$$$******$$$$$$&*****$$$$$$******%$$$$$$$$$$$@@@@@@   ooo    ",
"    ooo   @@@@@@$$$$$$$$$$$$&*****$$$$$$******%$$$$$******$$$$$$$$$$$$******$$$$$$&*****$$$$$$******%$$$$$$$$$$$@@@@@@   ooo    ",
"    oooooo@@@@@@@@@$$$$$$$$$$$$$$$$$$$$$$$$$$$$$$$$$$$$$$$$$$$$$$$$$$$$$$$$$$$$$$$$$$$$$$$$$$$$$$$$$$$$$$$$$$@@@@@@@@@oooooo    "
};
