/* XPM */
static char *result[] = {
/* columns rows colors chars-per-pixel */
"128 128 18 1 ",
"  c #0F0F18",
". c #192032",
"X c #054F39",
"o c #134B3B",
"O c #2D3853",
"+ c #1A6C50",
"@ c #3F536C",
"# c #BF5F1F",
"$ c #039649",
"% c #5A8C44",
"& c #EC8617",
"* c #5B758B",
"= c #63FFB6",
"- c #919A9D",
"; c #88A3B5",
": c #BED2DC",
"> c #E0ECF0",
", c None",
/* pixels */
"    ***;;;               OOO,,,,,,,,,,,,,,,,,,,,,,,,,,,,,,,,,,,,,,,,,,,,,,,,,,,,,,,,,                                 ;;;***    ",
"    @@@@@@               OOO,,,,,,,,,,,,,,,,,,,,,,,,,,,,,,,,,,,,,,,,,,,,,,,,,,,,,,,,,                                 @@@@@@    ",
"    @@@@@@               OOO,,,,,,,,,,,,,,,,,,,,,,,,,,,,,,,,,,,,,,,,,,,,,,,,,,,,,,,,,                                 @@@@@@    ",
"    @@@@@@               OOO,,,,,,,,,,,,,,,,,,,,,,,,,,,,,,,,,,,,,,,,,,,,,,,,,,,,,,,,,                                 @@@@@@    ",
"    @@@@@@   ...............,,,,,,,,,,,,,,,,,,,,,,,,,,,,,,,,,,,,,,,,,,,,,,,,,,,,,,,,,..............................   @@@@@@    ",
"    @@@@@@   ...............,,,,,,,,,,,,,,,,,,,,,,,,,,,,,,,,,,,,,,,,,,,,,,,,,,,,,,,,,..............................   @@@@@@    ",
"    @@@@@@   ...............,,,,,,,,,,,,,,,,,,,,,,,,,,,,,,,,,,,,,,,,,,,,,,,,,,,,,,,,,..............................   @@@@@@    ",
"    @@@@@@   ::::::>>>>>>...,,,,,,,,,,,,,,,,,,,,,,,,,,,,,,,,,,,,,,,,,,,,,,,,,,,,,,,,,...;;;>>>>>>>>>:::::::::::::::   @@@@@@    ",
"    @@@@@@   ::::::>>>>>>...,,,,,,,,,,,,,,,,,,,,,,,,,,,,,,,,,,,,,,,,,,,,,,,,,,,,,,,,,...;;;>>>>>>>>>:::::::::::::::   @@@@@@    ",
"    @@@@@@   ::::::>>>>>>...,,,,,,,,,,,,,,,,,,,,,,,,,,,,,,,,,,,,,,,,,,,,,,,,,,,,,,,,,...;;;>>>>>>>>>:::::::::::::::   @@@@@@    ",
"    @@@@@@   OOOOOO***:::...,,,,,,,,,,,,,,,,,,,,,,,,,,,,,,,,,,,,,,,,,,,,,,,,,,,,,,,,,...;;;***OOOOOOOOOOOOOOOOOOOOO   @@@@@@    ",
"    @@@@@@   OOOOOO***:::...,,,,,,,,,,,,,,,,,,,,,,,,,,,,,,,,,,,,,,,,,,,,,,,,,,,,,,,,,...;;;***OOOOOOOOOOOOOOOOOOOOO   @@@@@@    ",
"    @@@@@@   OOOOOO***:::...,,,,,,,,,,,,,,,,,,,,,,,,,,,,,,,,,,,,,,,,,,,,,,,,,,,,,,,,,...;;;***OOOOOOOOOOOOOOOOOOOOO   @@@@@@    ",
"    @@@@@@   .........:::...,,,,,,,,,,,,,,,,,,,,,,,,,,,,,,,,,,,,,,,,,,,,,,,,,,,,,,,,,...;;;........................   @@@@@@    ",
"    @@@@@@   .........:::...,,,,,,,,,,,,,,,,,,,,,,,,,,,,,,,,,,,,,,,,,,,,,,,,,,,,,,,,,...;;;........................   @@@@@@    ",
"    @@@@@@   .........:::...,,,,,,,,,,,,,,,,,,,,,,,,,,,,,,,,,,,,,,,,,,,,,,,,,,,,,,,,,...;;;........................   @@@@@@    ",
"    @@@@@@   .........:::...,,,,,,,,,,,,,,,,,,,,,,,,,,,,,,,,,,,,,,,,,,,,,,,,,,,,,,,,,...;;;........................   :::;;;    ",
"    @@@@@@   .........:::...,,,,,,,,,,,,,,,,,,,,,,,,,,,,,,,,,,,,,,,,,,,,,,,,,,,,,,,,,...;;;........................   :::;;;    ",
"    @@@@@@   .........:::...,,,,,,,,,,,,,,,,,,,,,,,,,,,,,,,,,,,,,,,,,,,,,,,,,,,,,,,,,...;;;........................   :::;;;    ",
"    ;;;:::   OOOOOO***:::...,,,,,,,,,,,,,,,,,,,,,,,,,,,,,,,,,,,,,,,,,,,,,,,,,,,,,,,,,...;;;***OOOOOOOOOOOOOOOOOOOOO   @@@@@@    ",
"    ;;;:::   OOOOOO***:::...,,,,,,,,,,,,,,,,,,,,,,,,,,,,,,,,,,,,,,,,,,,,,,,,,,,,,,,,,...;;;***OOOOOOOOOOOOOOOOOOOOO   @@@@@@    ",
"    ;;;:::   OOOOOO***:::...,,,,,,,,,,,,,,,,,,,,,,,,,,,,,,,,,,,,,,,,,,,,,,,,,,,,,,,,,...;;;***OOOOOOOOOOOOOOOOOOOOO   @@@@@@    ",
"    @@@@@@   ::::::>>>>>>...,,,,,,,,,,,,,,,,,,,,,,,,,,,,,,,,,,,,,,,,,,,,,,,,,,,,,,,,,...;;;>>>>>>>>>:::::::::::::::   ......    ",
"    @@@@@@   ::::::>>>>>>...,,,,,,,,,,,,,,,,,,,,,,,,,,,,,,,,,,,,,,,,,,,,,,,,,,,,,,,,,...;;;>>>>>>>>>:::::::::::::::   ......    ",
"    @@@@@@   ::::::>>>>>>...,,,,,,,,,,,,,,,,,,,,,,,,,,,,,,,,,,,,,,,,,,,,,,,,,,,,,,,,,...;;;>>>>>>>>>:::::::::::::::   ......    ",
"    ......   ;;;;;;;;;***...,,,,,,,,,,,,,,,,,,,,,,,,,,,,,,,,,,,,,,,,,,,,,,,,,,,,,,,,,...***;;;;;;;;;;;;;;;;;;;;;;;;   ......    ",
"    ......   ;;;;;;;;;***...,,,,,,,,,,,,,,,,,,,,,,,,,,,,,,,,,,,,,,,,,,,,,,,,,,,,,,,,,...***;;;;;;;;;;;;;;;;;;;;;;;;   ......    ",
"    ......   ;;;;;;;;;***...,,,,,,,,,,,,,,,,,,,,,,,,,,,,,,,,,,,,,,,,,,,,,,,,,,,,,,,,,...***;;;;;;;;;;;;;;;;;;;;;;;;   ......    ",
"    ......   OOO............,,,,,,,,,,,,,,,,,,,,,,,,,,,,,,,,,,,,,,,,,,,,,,,,,,,,,,,,,.........OOOOOOOOOOOOOOOOOOOOO   OOOOOO    ",
"    ......   OOO............,,,,,,,,,,,,,,,,,,,,,,,,,,,,,,,,,,,,,,,,,,,,,,,,,,,,,,,,,.........OOOOOOOOOOOOOOOOOOOOO   OOOOOO    ",
"    ......   OOO............,,,,,,,,,,,,,,,,,,,,,,,,,,,,,,,,,,,,,,,,,,,,,,,,,,,,,,,,,.........OOOOOOOOOOOOOOOOOOOOO   OOOOOO    ",
"    OOOOOO   ******OOO***...,,,,,,,,,,,,,,,,,,,,,,,,,,,,,,,,,,,,,,,,,,,,,,,,,,,,,,,,,...@@@************************   OOOOOO    ",
"    OOOOOO   ******OOO***...,,,,,,,,,,,,,,,,,,,,,,,,,,,,,,,,,,,,,,,,,,,,,,,,,,,,,,,,,...@@@************************   OOOOOO    ",
"    OOOOOO   ******OOO***...,,,,,,,,,,,,,,,,,,,,,,,,,,,,,,,,,,,,,,,,,,,,,,,,,,,,,,,,,...@@@************************   OOOOOO    ",
"    OOOOOO   ******OOO***...,,,,,,,,,,,,,,,,,,,,,,,,,,,,,,,,,,,,,,,,,,,,,,,,,,,,,,,,,...@@@************************   OOOOOO    ",
"    OOOOOO   ******OOO***...,,,,,,,,,,,,,,,,,,,,,,,,,,,,,,,,,,,,,,,,,,,,,,,,,,,,,,,,,...@@@************************   OOOOOO    ",
"    OOOOOO   ******OOO***...,,,,,,,,,,,,,,,,,,,,,,,,,,,,,,,,,,,,,,,,,,,,,,,,,,,,,,,,,...@@@************************   OOOOOO    ",
"    OOOOOO   ******@@@***...,,,,,,,,,,,,,,,,,,,,,,,,,,,,,,,,,,,,,,,,,,,,,,,,,,,,,,,,,...@@@*********************&&&   OOOOOO    ",
"    OOOOOO   ******@@@***...,,,,,,,,,,,,,,,,,,,,,,,,,,,,,,,,,,,,,,,,,,,,,,,,,,,,,,,,,...@@@*********************&&&   OOOOOO    ",
"    OOOOOO   ******@@@***...,,,,,,,,,,,,,,,,,,,,,,,,,,,,,,,,,,,,,,,,,,,,,,,,,,,,,,,,,...@@@*********************&&&   OOOOOO    ",
"    OOOOOO...******@@@***...,,,,,,,,,,,,,,,,,,,,,,,,,,,,,,,,,,,,,,,,,,,,,,,,,,,,,,,,,...@@@******************&&&&&&...OOOOOO    ",
"    OOOOOO...******@@@***...,,,,,,,,,,,,,,,,,,,,,,,,,,,,,,,,,,,,,,,,,,,,,,,,,,,,,,,,,...@@@******************&&&&&&...OOOOOO    ",
"    OOOOOO...******@@@***...,,,,,,,,,,,,,,,,,,,,,,,,,,,,,,,,,,,,,,,,,,,,,,,,,,,,,,,,,...@@@******************&&&&&&...OOOOOO    ",
"    OOOOOO...************......,,,,,,,,,,,,,,,,,,,,,,,,,,,,,,,,,,,,,,,,,,,,,,,,,,,,,,...@@@***************&&&&&&***...OOOOOO    ",
"    OOOOOO...************......,,,,,,,,,,,,,,,,,,,,,,,,,,,,,,,,,,,,,,,,,,,,,,,,,,,,,,...@@@***************&&&&&&***...OOOOOO    ",
"    OOOOOO...************......,,,,,,,,,,,,,,,,,,,,,,,,,,,,,,,,,,,,,,,,,,,,,,,,,,,,,,...@@@***************&&&&&&***...OOOOOO    ",
"    OOOOOO...************...@@@...,,,,,,,,,,,,,,,,,,,,,,,,,,,,,,,,,,,,,,,,,,,,,,,,,,,...OOO************&&&&&&******...OOOOOO    ",
"    OOOOOO...************...@@@...,,,,,,,,,,,,,,,,,,,,,,,,,,,,,,,,,,,,,,,,,,,,,,,,,,,...OOO************&&&&&&******...OOOOOO    ",
"    OOOOOO...************...@@@...,,,,,,,,,,,,,,,,,,,,,,,,,,,,,,,,,,,,,,,,,,,,,,,,,,,...OOO************&&&&&&******...OOOOOO    ",
"    OOOOOO...*********;;;@@@@@@;;;...,,,,,,,,,,,,,,,,,,,,,,,,,,,,,,,,,,,,,,,,,,,,,,,,...OOO************&&&&&&&&&&&&...OOOOOO    ",
"    OOOOOO...*********;;;@@@@@@;;;...,,,,,,,,,,,,,,,,,,,,,,,,,,,,,,,,,,,,,,,,,,,,,,,,...OOO************&&&&&&&&&&&&...OOOOOO    ",
"    OOOOOO...*********;;;@@@@@@;;;...,,,,,,,,,,,,,,,,,,,,,,,,,,,,,,,,,,,,,,,,,,,,,,,,...OOO************&&&&&&&&&&&&...OOOOOO    ",
"    OOOOOO...*********;;;@@@@@@***:::...,,,,,,,,,,,,,,,,,,,,,,,,,,,,,,,,,,,,,,,,,,,,,...;;;OOO*********************...OOOOOO    ",
"    OOOOOO...*********;;;@@@@@@***:::...,,,,,,,,,,,,,,,,,,,,,,,,,,,,,,,,,,,,,,,,,,,,,...;;;OOO*********************...OOOOOO    ",
"    OOOOOO...*********;;;@@@@@@***:::...,,,,,,,,,,,,,,,,,,,,,,,,,,,,,,,,,,,,,,,,,,,,,...;;;OOO*********************...OOOOOO    ",
"    OOOOOO...************;;;@@@***;;;:::...,,,,,,,,,,,,,,,,,,,,,,,,,,,,,,,,,,,,,,,,,,,,,...;;;OOO******;;;;;;;;;;;;...OOOOOO    ",
"    OOOOOO...************;;;@@@***;;;:::...,,,,,,,,,,,,,,,,,,,,,,,,,,,,,,,,,,,,,,,,,,,,,...;;;OOO******;;;;;;;;;;;;...OOOOOO    ",
"    OOOOOO...************;;;@@@***;;;:::...,,,,,,,,,,,,,,,,,,,,,,,,,,,,,,,,,,,,,,,,,,,,,...;;;OOO******;;;;;;;;;;;;...OOOOOO    ",
"    OOOOOO...************@@@;;;***;;;;;;...,,,,,,,,,,,,,,,,,,,,,,,,,,,,,,,,,,,,,,,,,,,,,,,,...;;;OOO***************...OOOOOO    ",
"    OOOOOO...************@@@;;;***;;;;;;...,,,,,,,,,,,,,,,,,,,,,,,,,,,,,,,,,,,,,,,,,,,,,,,,...;;;OOO***************...OOOOOO    ",
"    OOOOOO...************@@@;;;***;;;;;;...,,,,,,,,,,,,,,,,,,,,,,,,,,,,,,,,,,,,,,,,,,,,,,,,...;;;OOO***************...OOOOOO    ",
"    OOOOOO   ***************@@@;;;;;;;;;...,,,,,,,,,,,,,,,,,,,,,,,,,,,,,,,,,,,,,,,,,,,,,,,,,,,...;;;OOO************   OOOOOO    ",
"    OOOOOO   ***************@@@;;;;;;;;;...,,,,,,,,,,,,,,,,,,,,,,,,,,,,,,,,,,,,,,,,,,,,,,,,,,,...;;;OOO************   OOOOOO    ",
"    OOOOOO   ***************@@@;;;;;;;;;...,,,,,,,,,,,,,,,,,,,,,,,,,,,,,,,,,,,,,,,,,,,,,,,,,,,...;;;OOO************   OOOOOO    ",
"    OOOOOO   ******************OOO:::;;;...,,,,,,,,,,,,,,,,,,,,,,,,,,,,,,,,,,,,,,,,,,,,,,,,,,,,,,...:::OOO*********   OOOOOO    ",
"    OOOOOO   ******************OOO:::;;;...,,,,,,,,,,,,,,,,,,,,,,,,,,,,,,,,,,,,,,,,,,,,,,,,,,,,,,...:::OOO*********   OOOOOO    ",
"    OOOOOO   ******************OOO:::;;;...,,,,,,,,,,,,,,,,,,,,,,,,,,,,,,,,,,,,,,,,,,,,,,,,,,,,,,...:::OOO*********   OOOOOO    ",
"....OOOOOO   *********************OOO:::...,,,,,,,,,,,,,,,,,,,,,,,,,,,,,,,,,,,,,,,,,,,,,,,,,,,,,,,,,...@@@*********   OOOOOO....",
"....OOOOOO   *********************OOO:::...,,,,,,,,,,,,,,,,,,,,,,,,,,,,,,,,,,,,,,,,,,,,,,,,,,,,,,,,,...@@@*********   OOOOOO....",
"....OOOOOO   *********************OOO:::...,,,,,,,,,,,,,,,,,,,,,,,,,,,,,,,,,,,,,,,,,,,,,,,,,,,,,,,,,...@@@*********   OOOOOO....",
"....OOOOOO   ************;;;******@@@:::...,,,,,,,,,,,,,,,,,,,,,,,,,,,,,,,,,,,,,,,,,,,,,,,,,,,,,,,,,...@@@*********   OOOOOO....",
"....OOOOOO   ************;;;******@@@:::...,,,,,,,,,,,,,,,,,,,,,,,,,,,,,,,,,,,,,,,,,,,,,,,,,,,,,,,,,...@@@*********   OOOOOO....",
"....OOOOOO   ************;;;******@@@:::...,,,,,,,,,,,,,,,,,,,,,,,,,,,,,,,,,,,,,,,,,,,,,,,,,,,,,,,,,...@@@*********   OOOOOO....",
"    OOOOOO   *********;;;;;;******@@@:::...,,,,,,,,,,,,,,,,,,,,,,,,,,,,,,,,,,,,,,,,,,,,,,,,,,,,,,,,,...@@@*********   OOOOOO    ",
"    OOOOOO   *********;;;;;;******@@@:::...,,,,,,,,,,,,,,,,,,,,,,,,,,,,,,,,,,,,,,,,,,,,,,,,,,,,,,,,,...@@@*********   OOOOOO    ",
"    OOOOOO   *********;;;;;;******@@@:::...,,,,,,,,,,,,,,,,,,,,,,,,,,,,,,,,,,,,,,,,,,,,,,,,,,,,,,,,,...@@@*********   OOOOOO    ",
"    OOOOOO   ******;;;;;;;;;******@@@:::...,,,,,,,,,,,,,,,,,,,,,,,,,,,,,,,,,,,,,,,,,,,,,,,,,,,,,,,,,...@@@*********   OOOOOO    ",
"    OOOOOO   ******;;;;;;;;;******@@@:::...,,,,,,,,,,,,,,,,,,,,,,,,,,,,,,,,,,,,,,,,,,,,,,,,,,,,,,,,,...@@@*********   OOOOOO    ",
"    OOOOOO   ******;;;;;;;;;******@@@:::...,,,,,,,,,,,,,,,,,,,,,,,,,,,,,,,,,,,,,,,,,,,,,,,,,,,,,,,,,...@@@*********   OOOOOO    ",
"    OOOOOO   *********;;;;;;******@@@;;;...,,,,,,,,,,,,,,,,,,,,,,,,,,,,,,,,,,,,,,,,,,,,,,,,,,,,,,,,,...@@@*********   OOOOOO    ",
"    OOOOOO   *********;;;;;;******@@@;;;...,,,,,,,,,,,,,,,,,,,,,,,,,,,,,,,,,,,,,,,,,,,,,,,,,,,,,,,,,...@@@*********   OOOOOO    ",
"    OOOOOO   *********;;;;;;******@@@;;;...,,,,,,,,,,,,,,,,,,,,,,,,,,,,,,,,,,,,,,,,,,,,,,,,,,,,,,,,,...@@@*********   OOOOOO    ",
"    OOOOOO   ************;;;******@@@;;;...,,,,,,,,,,,,,,,,,,,,,,,,,,,,,,,,,,,,,,,,,,,,,,,,,,,,,,,,,...@@@*********   OOOOOO    ",
"    OOOOOO   ************;;;******@@@;;;...,,,,,,,,,,,,,,,,,,,,,,,,,,,,,,,,,,,,,,,,,,,,,,,,,,,,,,,,,...@@@*********   OOOOOO    ",
"    OOOOOO   ************;;;******@@@;;;...,,,,,,,,,,,,,,,,,,,,,,,,,,,,,,,,,,,,,,,,,,,,,,,,,,,,,,,,,...@@@*********   OOOOOO    ",
"    ......   *********************@@@***...,,,,,,,,,,,,,,,,,,,,,,,,,,,,,,,,,,,,,,,,,,,,,,,,,,,,,,,,,...@@@*********   ......    ",
"    ......   *********************@@@***...,,,,,,,,,,,,,,,,,,,,,,,,,,,,,,,,,,,,,,,,,,,,,,,,,,,,,,,,,...@@@*********   ......    ",
"    ......   *********************@@@***...,,,,,,,,,,,,,,,,,,,,,,,,,,,,,,,,,,,,,,,,,,,,,,,,,,,,,,,,,...@@@*********   ......    ",
"    ......   ;;;;;;;;;;;;;;;;;;***@@@***...,,,,,,,,,,,,,,,,,,,,,,,,,,,,,,,,,,,,,,,,,,,,,,,,,,,,,,,,,...@@@***;;;;;;   ......    ",
"    ......   ;;;;;;;;;;;;;;;;;;***@@@***...,,,,,,,,,,,,,,,,,,,,,,,,,,,,,,,,,,,,,,,,,,,,,,,,,,,,,,,,,...@@@***;;;;;;   ......    ",
"    ......   ;;;;;;;;;;;;;;;;;;***@@@***...,,,,,,,,,,,,,,,,,,,,,,,,,,,,,,,,,,,,,,,,,,,,,,,,,,,,,,,,,...@@@***;;;;;;   ......    ",
"    ......   *********************@@@***...,,,,,,,,,,,,,,,,,,,,,,,,,,,,,,,,,,,,,,,,,,,,,,,,,,,,,,,,,...@@@*********   ......    ",
"    ......   *********************@@@***...,,,,,,,,,,,,,,,,,,,,,,,,,,,,,,,,,,,,,,,,,,,,,,,,,,,,,,,,,...@@@*********   ......    ",
"    ......   *********************@@@***...,,,,,,,,,,,,,,,,,,,,,,,,,,,,,,,,,,,,,,,,,,,,,,,,,,,,,,,,,...@@@*********   ......    ",
"    ......   ------******------***@@@***...,,,,,,,,,,,,,,,,,,,,,,,,,,,,,,,,,,,,,,,,,,,,,,,,,,,,,,,,,...@@@***------   ......    ",
"    ......   ------******------***@@@***...,,,,,,,,,,,,,,,,,,,,,,,,,,,,,,,,,,,,,,,,,,,,,,,,,,,,,,,,,...@@@***------   ......    ",
"    ......   ------******------***@@@***...,,,,,,,,,,,,,,,,,,,,,,,,,,,,,,,,,,,,,,,,,,,,,,,,,,,,,,,,,...@@@***------   ......    ",
"    ......   ---******------******OOO***...,,,,,,,,,,,,,,,,,,,,,,,,,,,,,,,,,,,,,,,,,,,,,,,,,,,,,,,,,...OOO******---   ......    ",
"    ......   ---******------******OOO***...,,,,,,,,,,,,,,,,,,,,,,,,,,,,,,,,,,,,,,,,,,,,,,,,,,,,,,,,,...OOO******---   ......    ",
"    ......   ---******------******OOO***...,,,,,,,,,,,,,,,,,,,,,,,,,,,,,,,,,,,,,,,,,,,,,,,,,,,,,,,,,...OOO******---   ......    ",
"    ......   *********************OOO***...,,,,,,,,,,,,,,,,,,,,,,,,,,,,,,,,,,,,,,,,,,,,,,,,,,,,,,,,,...OOO*********   ......    ",
"    ......   *********************OOO***...,,,,,,,,,,,,,,,,,,,,,,,,,,,,,,,,,,,,,,,,,,,,,,,,,,,,,,,,,...OOO*********   ......    ",
"    ......   *********************OOO***...,,,,,,,,,,,,,,,,,,,,,,,,,,,,,,,,,,,,,,,,,,,,,,,,,,,,,,,,,...OOO*********   ......    ",
"    ......      $$$$$$$$$$$$$$$XXXOOO***...,,,,,,,,,,,,,,,,,,,,,,,,,,,,,,,,,,,,,,,,,,,,,,,,,,,,,,,,,   OOOXXX$$$      ......    ",
"    ......      $$$$$$$$$$$$$$$XXXOOO***...,,,,,,,,,,,,,,,,,,,,,,,,,,,,,,,,,,,,,,,,,,,,,,,,,,,,,,,,,   OOOXXX$$$      ......    ",
"    ......      $$$$$$$$$$$$$$$XXXOOO***...,,,,,,,,,,,,,,,,,,,,,,,,,,,,,,,,,,,,,,,,,,,,,,,,,,,,,,,,,   OOOXXX$$$      ......    ",
"    ......   @@@   OOOOOO..................,,,,,,,,,,,,,,,,,,,,,,,,,,,,,,,,,,,,,,,,,,,,,,,,,,,,,,,,,   ......   @@@   ......    ",
"    ......   @@@   OOOOOO..................,,,,,,,,,,,,,,,,,,,,,,,,,,,,,,,,,,,,,,,,,,,,,,,,,,,,,,,,,   ......   @@@   ......    ",
"    ......   @@@   OOOOOO..................,,,,,,,,,,,,,,,,,,,,,,,,,,,,,,,,,,,,,,,,,,,,,,,,,,,,,,,,,   ......   @@@   ......    ",
"    .........@@@@@@   =========$$$XXXOOO...,,,,,,,,,,,,,,,,,,,,,,,,,,,,,,,,,,,,,,,,,,,,,,,,,,,,,,,,,         @@@@@@.........    ",
"    .........@@@@@@   =========$$$XXXOOO...,,,,,,,,,,,,,,,,,,,,,,,,,,,,,,,,,,,,,,,,,,,,,,,,,,,,,,,,,         @@@@@@.........    ",
"    .........@@@@@@   =========$$$XXXOOO...,,,,,,,,,,,,,,,,,,,,,,,,,,,,,,,,,,,,,,,,,,,,,,,,,,,,,,,,,         @@@@@@.........    ",
"    ............@@@OOO   OOOXXXXXXXXX......,,,,,,,,,,,,,,,,,,,,,,,,,,,,,,,,,,,,,,,,,,,,,,,,,,,,,,,,,OOO   OOO@@@............    ",
"    ............@@@OOO   OOOXXXXXXXXX......,,,,,,,,,,,,,,,,,,,,,,,,,,,,,,,,,,,,,,,,,,,,,,,,,,,,,,,,,OOO   OOO@@@............    ",
"    ............@@@OOO   OOOXXXXXXXXX......,,,,,,,,,,,,,,,,,,,,,,,,,,,,,,,,,,,,,,,,,,,,,,,,,,,,,,,,,OOO   OOO@@@............    ",
"       ............OOO         ..................................................................         OOO............       ",
"       ............OOO         ..................................................................         OOO............       ",
"       ............OOO         ..................................................................         OOO............       ",
"          ............   ooo++++++++++++@@@@@@@@@@@@@@@@@@@@@@@@@@@@@@@@@@@@@@@@@@@@@@@@@@@@@@@@@@@@OOO   ............          ",
"          ............   ooo++++++++++++@@@@@@@@@@@@@@@@@@@@@@@@@@@@@@@@@@@@@@@@@@@@@@@@@@@@@@@@@@@@OOO   ............          ",
"          ............   ooo++++++++++++@@@@@@@@@@@@@@@@@@@@@@@@@@@@@@@@@@@@@@@@@@@@@@@@@@@@@@@@@@@@OOO   ............          ",
"             ......   OOO++++++%%%%%%+++@@@######@@@@@@######@@@@@@######@@@@@@######@@@@@@######@@@@@@OOO   ......             ",
"             ......   OOO++++++%%%%%%+++@@@######@@@@@@######@@@@@@######@@@@@@######@@@@@@######@@@@@@OOO   ......             ",
"             ......   OOO++++++%%%%%%+++@@@######@@@@@@######@@@@@@######@@@@@@######@@@@@@######@@@@@@OOO   ......             ",
"    ...   OOOOOO@@@@@@@@@@@@######@@@@@@######@@@@@@######@@@@@@@@@@@@######@@@@@@######@@@@@@######@@@@@@@@@@@@OOOOOO   ...    ",
"    ...   OOOOOO@@@@@@@@@@@@######@@@@@@######@@@@@@######@@@@@@@@@@@@######@@@@@@######@@@@@@######@@@@@@@@@@@@OOOOOO   ...    ",
"    ...   OOOOOO@@@@@@@@@@@@######@@@@@@######@@@@@@######@@@@@@@@@@@@######@@@@@@######@@@@@@######@@@@@@@@@@@@OOOOOO   ...    ",
"    ......OOOOOOOOO@@@@@@@@@@@@@@@@@@@@@@@@@@@@@@@@@@@@@@@@@@@@@@@@@@@@@@@@@@@@@@@@@@@@@@@@@@@@@@@@@@@@@@@@@@OOOOOOOOO......    "
};
